<?xml version="1.0" encoding="UTF-8"?>
<!DOCTYPE svg PUBLIC "-//W3C//DTD SVG 1.1//EN" "http://www.w3.org/Graphics/SVG/1.1/DTD/svg11.dtd">
<!-- Creator: CorelDRAW -->
<svg xmlns="http://www.w3.org/2000/svg" xml:space="preserve" width="3.86512in" height="2.87959in" version="1.1" shape-rendering="geometricPrecision" text-rendering="geometricPrecision" image-rendering="optimizeQuality" fill-rule="evenodd" clip-rule="evenodd"
viewBox="0 0 247.53 184.41"
 xmlns:xlink="http://www.w3.org/1999/xlink"
 xmlns:xodm="http://www.corel.com/coreldraw/odm/2003">
 <g id="Layer_x0020_1">
  <metadata id="CorelCorpID_0Corel-Layer"/>
  <g id="_105553301565824">
   <path fill="white" d="M0.16 156.55l-0.16 0 0 -37.11 0 -7.7 0 -3.63 0.16 -0.97 0 -2.31c0,-15.68 14.62,-27.32 26.45,-35.36 16.51,-11.22 35.44,-16.36 55.25,-17.24l0.31 -0.01 0.31 0c18.61,0.12 36.98,2.15 55.26,5.61 14.07,2.67 27.75,6.22 41.64,9.65 2.37,0.58 4.72,1.4 6.97,2.37 10.74,3.31 20.04,9.72 23.58,20.87l5 15.75c0.69,0.47 1.41,0.9 2.15,1.27 1.48,0.74 3.04,1.24 4.6,1.8 2.88,1.03 5.5,2.19 8.13,3.79 2.54,1.55 4.63,3.05 6.68,4.7l6.52 5.63 4.54 17.28 0 7.29 -0.01 0.24c-0.23,5.75 -1.73,10.8 -4.48,14.71l-11.69 10.18c-1.06,1.38 -2.46,2.81 -4.58,4.67 -5.57,4.9 -11.76,6.51 -19.1,6.4 -9.46,-0.14 -17.73,-4.39 -22.73,-11.47l-8.1 -0.07 1.77 -1.88 -30.6 0c-4.75,7.88 -13.31,13.61 -24.75,13.42 -10.46,-0.17 -18.68,-5.56 -23.2,-13.42l-32.21 0c-4.75,7.88 -13.31,13.61 -24.75,13.42 -10.64,-0.17 -18.96,-5.75 -23.44,-13.84 -4.64,-0.87 -8.81,-3.08 -12.11,-6.2l-7.39 -7.82z"/>
   <g>
    <path fill="#1899D6" d="M126.44 83.55c-0.48,-0.1 -0.98,-0.21 -1.48,-0.31 0.42,0.09 0.84,0.17 1.25,0.26 -21.31,-10.83 -59.31,-10.49 -85.83,0.46 0.51,-0.15 1.03,-0.3 1.55,-0.44 -15.72,4.36 -27.57,12.3 -29.82,25.62l0 37.73c0,6.61 5.41,12.02 12.02,12.02l4.22 0c-1.57,-10.47 5.51,-22.46 20.3,-17.51 9.21,3.08 12.37,10.64 11.11,17.51l48.75 0c-1.57,-10.47 5.51,-22.46 20.3,-17.51 9.21,3.08 12.37,10.64 11.11,17.51l12.9 0c6.51,-1.93 7.44,-2.11 9.68,-7.15 5.53,-12.41 -0.6,-18.52 -9.68,-24.42 -5.53,-3.6 -7.93,-10.04 -9.54,-17.88 -0.43,-2.08 -0.8,-4.26 -1.16,-6.51 -4.05,-17.94 -12.36,-18.65 -15.68,-19.37zm-1.79 -0.37c-0.47,-0.1 -0.95,-0.19 -1.44,-0.28 0.49,0.09 0.96,0.19 1.44,0.28zm-1.49 -0.29c-0.5,-0.1 -1.01,-0.19 -1.52,-0.29 0.51,0.09 1.02,0.19 1.52,0.29zm-1.89 -0.35c-0.51,-0.09 -1.03,-0.18 -1.56,-0.28 0.53,0.09 1.04,0.18 1.56,0.28zm-1.65 -0.29c-0.52,-0.09 -1.05,-0.18 -1.58,-0.26 0.53,0.09 1.06,0.17 1.58,0.26zm-1.86 -0.31c-0.55,-0.09 -1.11,-0.18 -1.67,-0.26 0.56,0.09 1.12,0.17 1.67,0.26zm-1.92 -0.3c-0.51,-0.08 -1.02,-0.15 -1.53,-0.23 0.52,0.07 1.03,0.15 1.53,0.23zm-1.84 -0.27c-0.57,-0.08 -1.14,-0.16 -1.71,-0.24 0.58,0.08 1.15,0.16 1.71,0.24zm-2.05 -0.28c-0.54,-0.07 -1.09,-0.14 -1.64,-0.21 0.55,0.07 1.1,0.14 1.64,0.21zm-1.85 -0.24c-0.58,-0.07 -1.17,-0.14 -1.76,-0.21 0.59,0.07 1.18,0.14 1.76,0.21zm-2.2 -0.26c-0.6,-0.07 -1.21,-0.14 -1.82,-0.2 0.61,0.06 1.22,0.13 1.82,0.2zm-1.93 -0.21c-0.59,-0.06 -1.18,-0.12 -1.78,-0.18 0.6,0.06 1.19,0.12 1.78,0.18zm-2.18 -0.22c-0.62,-0.06 -1.24,-0.12 -1.86,-0.17 0.62,0.06 1.24,0.11 1.86,0.17zm-2.21 -0.2c-0.56,-0.05 -1.12,-0.1 -1.69,-0.14 0.57,0.05 1.13,0.09 1.69,0.14zm-2.03 -0.17c-0.64,-0.05 -1.29,-0.1 -1.94,-0.15 0.65,0.05 1.3,0.09 1.94,0.15zm-2.27 -0.17c-0.63,-0.04 -1.26,-0.09 -1.89,-0.12 0.63,0.04 1.26,0.08 1.89,0.12zm-2.06 -0.14c-0.66,-0.04 -1.32,-0.08 -1.98,-0.11 0.66,0.04 1.32,0.07 1.98,0.11zm-2.39 -0.13c-0.66,-0.03 -1.33,-0.07 -2,-0.1 0.67,0.03 1.34,0.06 2,0.1zm-2.15 -0.1c-0.64,-0.03 -1.28,-0.05 -1.93,-0.07 0.64,0.02 1.29,0.05 1.93,0.07zm-2.3 -0.09c-0.67,-0.02 -1.35,-0.04 -2.03,-0.06 0.68,0.02 1.35,0.04 2.03,0.06zm-2.31 -0.06c-0.63,-0.01 -1.25,-0.03 -1.88,-0.04 0.63,0.01 1.26,0.02 1.88,0.04zm-2.19 -0.04c-0.67,-0.01 -1.35,-0.01 -2.02,-0.02 0.68,0 1.35,0.01 2.02,0.02zm-2.42 -0.02c-0.66,-0 -1.32,-0 -1.98,0 0.66,-0 1.32,-0 1.98,-0zm-2.09 0c-0.69,0.01 -1.37,0.01 -2.06,0.03 0.69,-0.01 1.37,-0.02 2.06,-0.03zm-2.49 0.03c-0.69,0.01 -1.37,0.03 -2.06,0.05 0.69,-0.02 1.37,-0.04 2.06,-0.05zm-2.17 0.05c-0.66,0.02 -1.31,0.04 -1.97,0.07 0.66,-0.03 1.31,-0.05 1.97,-0.07zm-2.37 0.08c-0.68,0.03 -1.36,0.06 -2.04,0.09 0.68,-0.04 1.36,-0.07 2.04,-0.09zm-2.32 0.11c-0.62,0.03 -1.23,0.07 -1.84,0.11 0.61,-0.04 1.23,-0.07 1.84,-0.11zm-2.22 0.13c-0.67,0.04 -1.33,0.09 -2,0.14 0.66,-0.05 1.33,-0.1 2,-0.14zm-2.36 0.17c-0.65,0.05 -1.29,0.11 -1.94,0.16 0.64,-0.06 1.29,-0.11 1.94,-0.16zm-2.08 0.18c-0.67,0.06 -1.33,0.13 -1.99,0.2 0.66,-0.07 1.33,-0.13 1.99,-0.2zm-2.43 0.24c-0.66,0.07 -1.32,0.14 -1.97,0.22 0.65,-0.08 1.31,-0.15 1.97,-0.22zm-2.12 0.24c-0.62,0.08 -1.24,0.16 -1.85,0.24 0.62,-0.08 1.23,-0.16 1.85,-0.24zm-2.26 0.29c-0.64,0.09 -1.29,0.18 -1.92,0.28 0.64,-0.1 1.28,-0.19 1.92,-0.28zm-2.21 0.32c-0.59,0.09 -1.17,0.18 -1.75,0.28 0.58,-0.1 1.16,-0.19 1.75,-0.28zm-2.06 0.33c-0.63,0.11 -1.25,0.22 -1.87,0.34 0.62,-0.12 1.24,-0.23 1.87,-0.34zm-2.25 0.41c-0.58,0.11 -1.16,0.23 -1.74,0.34 0.58,-0.12 1.16,-0.23 1.74,-0.34zm-1.92 0.38c-0.61,0.13 -1.22,0.26 -1.83,0.4 0.61,-0.14 1.22,-0.27 1.83,-0.4zm-2.22 0.49c-0.61,0.14 -1.22,0.29 -1.82,0.44 0.6,-0.15 1.21,-0.3 1.82,-0.44zm-1.9 0.46c-0.57,0.14 -1.14,0.29 -1.7,0.45 0.56,-0.15 1.13,-0.3 1.7,-0.45z"/>
    <path fill="#1BAFF5" d="M228.61 153.72c-1.88,0.45 -52.89,1.53 -55.52,-1.13 -1.84,-1.86 -0.57,-5.01 0.95,-6.13 3.06,-2.25 26.52,-0.58 31.91,-0.51 5.38,0.07 10.78,0.19 16.18,0.22 11.93,0.08 6.72,2.61 6.49,7.54zm-46.46 -72.5c-2.16,-0.97 -4.13,-1.62 -5.67,-2 -23.17,-5.72 -54.79,-14.66 -94.07,-14.91 -19.03,0.84 -35.36,5.9 -48.98,15.16 -7.98,5.42 -21.15,15.04 -21.15,25.35l0 4.77c13.37,-42.07 123.71,-45.85 129.74,-7.37 1.75,11.03 3.66,20.44 10.81,25.09 9.08,5.9 15.2,12 9.68,24.42 -2.24,5.04 -3.17,5.22 -9.68,7.15l30.52 0c2.21,-2.91 2.58,-3.61 7.55,-3.77l30.19 1.21c2.56,1 3.06,2.47 3.67,3.24l0 0.03c9.07,0 10.46,-6.17 10.67,-11.62l0 -7.69c-0.12,-0.95 -0.38,-1.74 -0.89,-2.28l-15.8 0.57c0.81,-7.55 6.67,-6.81 14.02,-7.83 -3.34,-2.95 -5,-4.5 -9.25,-7.09 -4.41,-2.68 -7.43,-2.91 -11.82,-5.08 -2.68,-1.33 -4.98,-3.02 -7.15,-4.81l-6.16 -19.39c-2.16,-6.8 -8.26,-10.83 -16.23,-13.16zm-18.43 50.37c3.82,-1.13 9.82,-0.77 13.87,-0.26 4.65,0.59 6.56,2.57 7.09,7 -7.93,0.81 -20.26,1.8 -20.96,-6.74zm25.64 -0.83l25.02 -0.04c0.3,6.61 -4.23,12.43 -11.38,10.65 -3.56,-0.89 -8.98,-4.78 -11.56,-7.03 -3.75,-3.28 -1.21,-0.12 -2.09,-3.57z"/>
    <path fill="#16364E" d="M126.99 160.63c-4.36,3.68 -10.62,-1.45 -8.6,-6.7 3.4,-8.86 17.13,-0.5 8.6,6.7zm-3.53 11.67c17.72,0.29 24.15,-24.64 5.34,-30.93 -24.65,-8.25 -27.89,30.57 -5.34,30.93z"/>
    <path fill="#1792CD" d="M228.61 153.72c0.23,-4.93 5.45,-7.46 -6.49,-7.54 -5.39,-0.04 -10.8,-0.15 -16.18,-0.22 -5.4,-0.07 -28.85,-1.74 -31.91,0.51 -1.52,1.12 -2.79,4.27 -0.95,6.13 2.63,2.66 53.65,1.58 55.52,1.13z"/>
    <path fill="#16364E" d="M224.75 159.59l-0 -0.03c-4.48,-0.02 -10.06,-0.74 -12.85,1.5l-7.22 -0.06c-1.93,-1.64 -2.04,-1.77 -5.7,-1.93 -2.44,-0.11 -5.02,-0.32 -6.67,0.7 1.21,6.74 6.54,12.4 15.54,12.54 5.13,0.08 8.13,-0.93 10.93,-3.39 4.49,-3.95 3.69,-4.03 5.97,-9.32z"/>
    <path fill="#74C1E6" d="M28.11 120.02c1.84,0.92 0.38,0.52 3.47,1.14l9.92 0.32c37.77,-1.02 44.92,-0.95 82.38,0.57 2.14,0.09 5.11,0.2 7.19,0.01l4.61 -1.03c-29.73,-4.79 -77.43,-5.24 -107.57,-1z"/>
    <path fill="#1693CE" d="M189.35 130.76c0.88,3.46 -1.67,0.29 2.09,3.57 2.57,2.25 7.99,6.14 11.56,7.03 7.14,1.79 11.68,-4.04 11.38,-10.65l-25.02 0.04z"/>
    <path fill="#1792CC" d="M183.34 158.88c3.63,1.07 4.26,0.89 8.97,0.89 1.65,-1.02 4.23,-0.81 6.67,-0.7 3.66,0.17 3.77,0.29 5.7,1.93 1.85,-1.96 -2.68,-1.5 3.17,-1.87 5.53,-0.35 3.64,1.55 4.05,1.93 2.79,-2.24 8.37,-1.52 12.85,-1.5 -0.61,-0.77 -1.11,-2.24 -3.67,-3.24l-30.19 -1.21c-4.96,0.16 -5.33,0.86 -7.55,3.77z"/>
    <path fill="#FCFDFE" d="M177.59 131.33c-4.05,-0.51 -10.05,-0.87 -13.87,0.26 0.7,8.54 13.03,7.55 20.96,6.74 -0.53,-4.43 -2.43,-6.41 -7.09,-7z"/>
    <path fill="#FCFDFE" d="M234.53 138.01c-0.07,-3.73 -0.78,-4.66 -1.78,-7.26 -7.35,1.02 -13.21,0.28 -14.02,7.83l15.8 -0.57z"/>
    <path fill="#F3F4FC" d="M211.9 161.06c-0.41,-0.38 1.48,-2.29 -4.05,-1.93 -5.84,0.37 -1.31,-0.09 -3.17,1.87l7.22 0.06z"/>
    <path fill="white" d="M126.99 160.63c8.53,-7.2 -5.2,-15.56 -8.6,-6.7 -2.01,5.25 4.24,10.38 8.6,6.7z"/>
    <path fill="#16364E" d="M46.83 160.63c-4.36,3.68 -10.62,-1.45 -8.6,-6.7 3.4,-8.86 17.13,-0.5 8.6,6.7zm-3.53 11.67c17.72,0.29 24.15,-24.64 5.34,-30.93 -24.65,-8.25 -27.89,30.57 -5.34,30.93z"/>
    <path fill="white" d="M46.83 160.63c8.53,-7.2 -5.2,-15.56 -8.6,-6.7 -2.01,5.25 4.24,10.38 8.6,6.7z"/>
    <path fill="#FC4849" stroke="#373535" stroke-width="0.44" stroke-miterlimit="2.61313" d="M20.22 131.92l-8.12 0 0 12.52 8.12 0c2.42,0 4.41,-1.98 4.41,-4.41l0 -3.71c0,-2.42 -1.98,-4.41 -4.41,-4.41z"/>
    <path fill="black" stroke="black" stroke-width="0.44" stroke-miterlimit="2.61313" d="M192.45 116.67c9.24,0.49 6.29,-6.28 3.51,-13.32 -6.43,-16.34 -8.76,-12.89 -29.18,-13.68 -29.57,-1.14 -20.15,6.57 -15.65,23.68 0.84,3.55 9.02,4.84 23.03,4.18l18.29 -0.85z"/>
    <path fill="black" d="M50.16 115.44c-1.88,-10.87 -2.3,-20.38 -1.25,-28.54 -18.64,5.63 -32.59,16.08 -31.9,31.9 10.83,-1.48 21.88,-2.6 33.15,-3.36z"/>
    <path fill="black" d="M53.41 85.66c-1.07,8.39 -0.6,18.23 1.43,29.49 7.56,-0.44 15.22,-0.71 22.98,-0.83 -2.37,-12.42 -2.92,-23.14 -1.62,-32.16 -7.79,0.51 -15.56,1.67 -22.78,3.49z"/>
    <path fill="black" d="M80.2 81.96c-1.33,9.05 -0.8,19.83 1.59,32.32 8.77,-0.07 17.66,0.08 26.67,0.42 -2.32,-11.97 -2.94,-22.37 -1.87,-31.2 -8.14,-1.36 -17.21,-1.89 -26.38,-1.54z"/>
    <path fill="black" d="M110.68 84.28c-0.95,8.7 -0.28,18.91 2,30.6 9.02,0.41 18.16,1.02 27.43,1.84 -1.02,-1.27 -2.04,-9.31 -2.47,-13.94 -0.83,-9.03 -11.86,-15.31 -26.96,-18.5z"/>
   </g>
   <g>
    <rect fill="white" x="65.9" y="-0" width="90.4" height="88.92" rx="27.58" ry="19.97"/>
    <rect fill="#1CB0F6" x="75.07" y="8.43" width="72.05" height="72.05" rx="19.57" ry="20.71"/>
    <g>
     <rect fill="white" transform="matrix(0.322503 -3.54615E-002 0.0486284 0.442249 86.9799 25.4338)" width="135.69" height="92.1" rx="23.06" ry="23.06"/>
     <path fill="#1CB0F6" d="M117.53 48.82c0.35,3.23 -1.97,6.13 -5.2,6.49 -3.23,0.35 -6.13,-1.97 -6.49,-5.2l11.69 -1.29z"/>
     <g>
      <path fill="#1CB0F6" d="M99.9 56.67l3.35 0.64c2.23,0.43 3.7,2.6 3.27,4.83l-1.3 6.77c-0.43,2.23 -2.6,3.7 -4.83,3.27l-3.35 -0.64c-2.23,-0.43 -3.7,-2.6 -3.27,-4.83l1.3 -6.77c0.43,-2.23 2.6,-3.7 4.83,-3.27z"/>
     </g>
     <rect fill="white" transform="matrix(0.391064 0.075303 -6.46329E-002 0.335652 97.2136 57.9011)" width="20.64" height="34.24" rx="6.04" ry="6.04"/>
     <g>
      <path fill="#1CB0F6" d="M123.14 54.54l3.32 -0.78c2.2,-0.52 4.44,0.87 4.96,3.07l1.57 6.71c0.52,2.2 -0.87,4.44 -3.07,4.96l-3.32 0.78c-2.2,0.52 -4.44,-0.87 -4.96,-3.07l-1.57 -6.71c-0.52,-2.2 0.87,-4.44 3.07,-4.96z"/>
     </g>
     <rect fill="white" transform="matrix(0.387724 -9.09488E-002 0.0780617 0.332785 121.189 56.765)" width="20.64" height="34.24" rx="6.04" ry="6.04"/>
     <path fill="#1CB0F6" d="M97.98 28.22l22.74 -2.5c3.69,-0.41 7.04,2.28 7.44,5.97l1.09 9.96 -36.15 3.97 -1.09 -9.96c-0.41,-3.69 2.28,-7.04 5.97,-7.44z"/>
     <circle fill="white" transform="matrix(0.34009 -3.73953E-002 0.0373953 0.34009 100.014 45.1724)" r="15.1"/>
     <ellipse fill="#1CB0F6" transform="matrix(0.311105 -3.42082E-002 0.0427597 0.388876 100.014 45.1723)" rx="10.21" ry="8.16"/>
     <circle fill="white" transform="matrix(0.34009 -3.73953E-002 0.0373953 0.34009 122.417 42.709)" r="15.1"/>
     <ellipse fill="#1CB0F6" transform="matrix(0.311105 -3.42082E-002 0.0427597 0.388876 122.417 42.709)" rx="10.21" ry="8.16"/>
    </g>
   </g>
  </g>
 </g>
</svg>
