<?xml version="1.0" encoding="UTF-8"?>
<!DOCTYPE svg PUBLIC "-//W3C//DTD SVG 1.1//EN" "http://www.w3.org/Graphics/SVG/1.1/DTD/svg11.dtd">
<!-- Creator: CorelDRAW -->
<svg xmlns="http://www.w3.org/2000/svg" xml:space="preserve" width="3.51688in" height="2.75887in" version="1.1" shape-rendering="geometricPrecision" text-rendering="geometricPrecision" image-rendering="optimizeQuality" fill-rule="evenodd" clip-rule="evenodd"
viewBox="0 0 196.68 154.29"
 xmlns:xlink="http://www.w3.org/1999/xlink"
 xmlns:xodm="http://www.corel.com/coreldraw/odm/2003">
 <defs>
   <clipPath id="id0">
    <rect x="10.57" y="59.83" width="175.54" height="83.89"/>
   </clipPath>
 </defs>
 <g id="Layer_x0020_1">
  <metadata id="CorelCorpID_0Corel-Layer"/>
  <path fill="white" d="M160.01 77.98c3.13,2.54 6.61,6.15 10.07,7.87 1.29,0.64 2.66,1.09 4.01,1.57 2.52,0.9 4.8,1.91 7.1,3.31 3.74,2.28 6.36,4.44 9.6,7.31l1.93 1.71 0.93 2.4c1.1,2.85 1.79,4.66 2.09,7.26 0.42,1.13 0.71,2.32 0.86,3.55l0.08 0.66 0 7.59 -0.01 0.21c-0.37,9.32 -4.55,16.52 -12.51,19.18 -1.14,2.21 -2.48,3.88 -5.6,6.62 -4.87,4.28 -10.27,5.69 -16.68,5.59 -8.83,-0.13 -16.46,-4.36 -20.7,-11.32 -0.62,-0.1 -1.26,-0.24 -1.95,-0.41l-24.68 0c-3.67,7.36 -10.83,12.36 -19.82,13.16l-0.47 0.04 -4.19 0 -0.5 -0.05c-5.6,-0.53 -11.11,-2.86 -15.11,-6.88 -1.98,-2 -3.41,-4.06 -4.48,-6.28l-12.05 0c-1.09,1.96 -2.56,3.77 -4.95,5.82 -5.11,4.37 -10.17,6.02 -16.95,5.91 -9.25,-0.15 -17.67,-5.18 -21.84,-12.98 -7.18,-2.01 -12.6,-6.43 -14.05,-15.05l-0.15 -0.87 0 -15.81c0,-5.46 1.11,-8.62 3.36,-13.34l0.47 -0.99 0.66 -0.87c3.09,-4.06 3.56,-4.83 8.08,-7.76 1.77,-1.15 3.68,-2.25 5.32,-3.59l0.82 -0.66 0.9 -0.47c1.1,-0.64 3.51,-2.69 4.31,-3.68 2.26,-2.98 5.03,-5.08 7.24,-7.84 6.65,-8.33 11.89,-12.3 22.17,-15.72 7.93,-2.63 18.08,-3.51 26.41,-3.9l0.25 -0.01 19.04 0 0.26 0.01c4.51,0.22 9.07,0.6 13.53,1.32 17.23,2.78 27.6,8.48 40.04,20.48l7.16 6.91z"/>
  <g clip-path="url(#id0)">
   <image x="10.57" y="59.83" width="175.54" height="83.89" xlink:href="curve_curver_Images/curve_curver_ImgID1.png"/>
  </g>
  <g id="_105553300866432">
   <rect fill="white" x="50.78" y="-0" width="78.94" height="77.65" rx="24.08" ry="17.44"/>
   <rect fill="#1CB0F6" x="58.79" y="7.37" width="62.92" height="62.92" rx="17.09" ry="18.09"/>
   <g>
    <rect fill="white" transform="matrix(0.322503 -3.54615E-002 0.0486284 0.442249 69.19 22.2101)" width="118.49" height="80.43" rx="20.14" ry="20.14"/>
    <path fill="#1CB0F6" d="M95.87 42.63c0.31,2.82 -1.72,5.35 -4.54,5.66 -2.82,0.31 -5.35,-1.72 -5.66,-4.54l10.21 -1.12z"/>
    <g>
     <path fill="#1CB0F6" d="M80.47 49.48l2.92 0.56c1.95,0.38 3.23,2.27 2.86,4.22l-1.14 5.91c-0.38,1.95 -2.27,3.23 -4.22,2.86l-2.92 -0.56c-1.95,-0.37 -3.23,-2.27 -2.86,-4.22l1.14 -5.91c0.38,-1.95 2.27,-3.23 4.22,-2.86z"/>
    </g>
    <rect fill="white" transform="matrix(0.391064 0.075303 -6.46329E-002 0.335652 78.1265 50.5623)" width="18.03" height="29.9" rx="5.28" ry="5.28"/>
    <g>
     <path fill="#1CB0F6" d="M100.77 47.63l2.9 -0.68c1.92,-0.45 3.88,0.76 4.33,2.69l1.37 5.86c0.45,1.92 -0.76,3.88 -2.69,4.33l-2.9 0.68c-1.92,0.45 -3.88,-0.76 -4.33,-2.69l-1.37 -5.86c-0.45,-1.92 0.76,-3.88 2.69,-4.33z"/>
    </g>
    <rect fill="white" transform="matrix(0.387724 -9.09488E-002 0.0780617 0.332785 99.0632 49.5701)" width="18.03" height="29.9" rx="5.28" ry="5.28"/>
    <path fill="#1CB0F6" d="M78.79 24.65l19.86 -2.18c3.22,-0.35 6.14,1.99 6.5,5.21l0.96 8.69 -31.57 3.47 -0.96 -8.69c-0.35,-3.22 1.99,-6.14 5.21,-6.5z"/>
    <circle fill="white" transform="matrix(0.34009 -3.73953E-002 0.0373953 0.34009 80.572 39.4469)" r="13.19"/>
    <ellipse fill="#1CB0F6" transform="matrix(0.311105 -3.42082E-002 0.0427597 0.388876 80.572 39.4468)" rx="8.91" ry="7.13"/>
    <circle fill="white" transform="matrix(0.34009 -3.73953E-002 0.0373953 0.34009 100.135 37.2958)" r="13.19"/>
    <ellipse fill="#1CB0F6" transform="matrix(0.311105 -3.42082E-002 0.0427597 0.388876 100.135 37.2957)" rx="8.91" ry="7.13"/>
   </g>
  </g>
 </g>
</svg>
