<svg xmlns="http://www.w3.org/2000/svg" width="381.754" height="772.394" viewBox="0 0 381.754 772.394">
  <g id="Layer_x0020_1" transform="translate(0.01 0.001)">
    <rect id="Rectangle_2244" data-name="Rectangle 2244" width="255.559" height="385.201" transform="translate(99.807 387.192)" fill="none"/>
    <g id="_1960281536656" transform="translate(-0.01 -0.001)">
      <path id="Path_2622" data-name="Path 2622" d="M55.44,35.541q133.344,4.13,133.344,4.142C184.8,17.979,181.8,2.222,158.936.649,130.453-.277,107.13-.184,83.02.741Q61.363.672,55.463,35.541Z" transform="translate(72.86 0.001)" fill="#1cb0f6" fill-rule="evenodd"/>
      <path id="Path_2623" data-name="Path 2623" d="M51.657,122.66a12.706,12.706,0,0,1,15.225-15.387c3.725.879,36.327,17.747,42.6,20.894,7.474,3.748,15.78,5.808,17.654,14.068A12.672,12.672,0,0,1,112,157.39c-3.887-.787-36.4-17.654-42.713-20.824C61.93,132.887,53.508,130.619,51.657,122.66ZM.013,170.509v-48.2c.324-10.435,1.712-20.153,6.548-30.565,8.654-18.6,31.028-34.938,51.875-35.494l26.192-.208L180,55.93l11.2.093.023,76.24c-16.659.74-38.062-4.512-38.316,12.656-.255,17.539,22.166,12.1,38.131,12.911l-.069,50.973,88.85.023v.255H102.1c-2.684-1.5-33.3-.509-39.219-.509H43.189c-8.4,0-10.69-1.041-17.793-2.106-4.581-2.129-5.067-1.8-9.811-5.368a37.14,37.14,0,0,1-7.358-7.265c-5.461-7.15-7.543-14.97-8.237-23.3Z" transform="translate(0.01 73.482)" fill="#fd7875" fill-rule="evenodd"/>
      <path id="Path_2624" data-name="Path 2624" d="M222.052,122c-1.782,8.515-10.389,10.713-17.631,14.346-5.946,2.985-39.265,20.176-42.528,20.986A12.656,12.656,0,0,1,146.46,141.9c1.735-7.566,11.129-10.435,17.955-13.837,5.854-2.915,39.335-20.223,42.574-20.87a12.7,12.7,0,0,1,15.086,14.831Zm51.251-6.548v58.03a41.249,41.249,0,0,1-8.33,20.847c-3.239,4.35-11.176,10.829-17.076,12.147-20.153,5.576-54-.023-76.517,2.291l-88.85-.023L82.6,157.77c7.983.093,17.747.463,25.591-.023,16.937-1.064,16.59-24.781-.023-25.544-7.959-.37-17.33-.116-25.382.023l-.023-76.24,16.382-.046h43.106l27.534.046,19.2.139,25.868-.139c18.95,1.018,37.692,13.165,46.762,26.886,8.26,12.518,10.944,22,11.685,32.578Z" transform="translate(108.451 73.496)" fill="#fc4849" fill-rule="evenodd"/>
      <path id="Path_2625" data-name="Path 2625" d="M83.373,77.321c2.985-.949,6.872-8.538,21.333-13.327a52.184,52.184,0,0,1,30.7-.555c15.433,4.558,31.907,19.552,34.568,36l19.2.139c-1.6-12.587-8.214-41.648-11.291-57.035C173.126,18.712,170.858,23.2,128.678,23.2c-15.271,0-30.612-.139-45.859.023-.347,8.908-.069,18.3-.069,27.28,0,4.142-1.111,25.128.625,26.84Z" transform="translate(108.278 30.041)" fill="#384949" fill-rule="evenodd"/>
      <path id="Path_2626" data-name="Path 2626" d="M82.58,37.573c15.248-.162,30.588-.023,45.859-.023,42.181,0,44.448-4.489,49.214,19.343,3.077,15.387,9.695,44.448,11.291,57.035l25.868-.139L200.352,40.557C196.743,26.4,184.364,15.43,169.9,12.584c-5.623-1.111-77.906-.44-87.276-.44L82.58,37.6Z" transform="translate(108.517 15.693)" fill="#cc2e43" fill-rule="evenodd"/>
      <path id="Path_2627" data-name="Path 2627" d="M87.682,123.585c-2.684-1.5-33.3-.509-39.219-.509H28.773c-8.4,0-10.69-1.041-17.793-2.106,0,17.932-.023,26.7,7.52,37.645,3.239,4.7,7.034,7.751,11.893,10.967,4.581,3.031,10.736,4.859,17.446,5.437l.324.023h4.026c10.389-.717,20.685-6.918,26.863-14.508,7.057-8.677,10.32-20.107,8.63-36.951Z" transform="translate(14.449 158.932)" fill="#4a696f" fill-rule="evenodd"/>
      <path id="Path_2628" data-name="Path 2628" d="M121.209,123.291v.255c-1.087,5.044-.093,17.191.9,20.986,3.008,11.685,9.463,20.153,19.737,26.007A42.11,42.11,0,0,0,157.929,175h3.355c12.957-.717,22.93-8.168,28.737-15.965,8.283-11.153,7.7-19.39,7.7-38.039C177.573,126.576,143.722,120.977,121.209,123.291Z" transform="translate(158.645 158.971)" fill="#384949" fill-rule="evenodd"/>
      <path id="Path_2629" data-name="Path 2629" d="M83.477,55.455c-.486.995-.671,1.481-1.157,2.453,1.249,2.175.37,16.544.717,19.644l16.382-.046c2.939-6.34,11.754-12.495,21.727-12.4,10.2.093,18.395,6.317,21.379,12.4l27.534.046c-2.638-16.451-19.135-31.445-34.568-36a52.184,52.184,0,0,0-30.7.555C90.3,46.894,86.415,54.484,83.454,55.432Z" transform="translate(108.175 51.907)" fill="#8ebac5" fill-rule="evenodd"/>
      <path id="Path_2630" data-name="Path 2630" d="M22.52,93.7c1.874,7.959,10.273,10.227,17.631,13.906,6.317,3.17,38.826,20.014,42.713,20.824A12.665,12.665,0,0,0,98,113.278c-1.874-8.26-10.158-10.32-17.654-14.068-6.27-3.147-38.872-20.014-42.6-20.894A12.706,12.706,0,0,0,22.52,93.7Z" transform="translate(29.147 102.439)" fill="#fed300" fill-rule="evenodd"/>
      <path id="Path_2631" data-name="Path 2631" d="M185.97,93.059a12.7,12.7,0,0,0-15.086-14.831c-3.239.648-36.72,17.955-42.574,20.87-6.826,3.424-16.22,6.27-17.955,13.837a12.663,12.663,0,0,0,15.433,15.433c3.262-.81,36.581-18,42.528-20.986,7.242-3.61,15.85-5.831,17.631-14.346Z" transform="translate(144.533 102.435)" fill="#fdbe00" fill-rule="evenodd"/>
      <path id="Path_2632" data-name="Path 2632" d="M110.851,38.011h47.04l.046-25.452H109.879Q42.825,5.1,37.642,56.244a4.275,4.275,0,0,0-.324-.324L25.24,114.459l26.192-.208,4.975-25.313c7.45-42.759,10.805-55.022,55.068-51.343l.648-.393-1.3.787ZM40.442,60.825c.069.185.162.37.231.578C40.6,61.219,40.511,61.011,40.442,60.825Z" transform="translate(33.183 15.254)" fill="#e5394f" fill-rule="evenodd"/>
      <path id="Path_2633" data-name="Path 2633" d="M82.57,114.576c7.983.093,17.747.463,25.591-.023,16.937-1.064,16.59-24.781-.023-25.544-7.959-.37-17.33-.116-25.382.023l-.185,25.544Z" transform="translate(108.503 116.689)" fill="#3e5959" fill-rule="evenodd"/>
      <path id="Path_2634" data-name="Path 2634" d="M104.223,114.572l.185-25.544c-16.659.74-38.062-4.512-38.316,12.656-.255,17.539,22.166,12.1,38.131,12.911Z" transform="translate(86.851 116.694)" fill="#4a686e" fill-rule="evenodd"/>
      <path id="Path_2635" data-name="Path 2635" d="M89.71,62.983h43.106c-2.985-6.085-11.176-12.309-21.379-12.4C101.464,50.488,92.648,56.643,89.71,62.983Z" transform="translate(117.884 66.453)" fill="#384949" fill-rule="evenodd"/>
      <path id="Path_2636" data-name="Path 2636" d="M77.79,67.022l11.2.093c-.347-3.124.532-17.469-.717-19.644-4.6,4.419-8.607,11.407-10.482,19.575Z" transform="translate(102.223 62.368)" fill="#a7d2d7" fill-rule="evenodd"/>
      <path id="Path_2637" data-name="Path 2637" d="M30.61,56.248Q35.781,5.09,102.847,12.563" transform="translate(40.238 15.25)" fill="none" fill-rule="evenodd"/>
      <path id="Path_2638" data-name="Path 2638" d="M38.73,74.533C46.18,31.774,49.535,19.511,93.8,23.19" transform="translate(50.906 29.659)" fill="none" fill-rule="evenodd"/>
      <path id="Path_2639" data-name="Path 2639" d="M96.613,23.2C52.35,19.521,49.018,31.784,41.545,74.543L36.57,99.856l95.375-.116c1.874-8.168,5.877-15.155,10.481-19.575.486-.995.671-1.481,1.157-2.453-1.735-1.712-.625-22.675-.625-26.84,0-8.954-.278-18.372.069-27.28H95.988l.648-.393Z" transform="translate(48.069 29.672)" fill="#3e5959" fill-rule="evenodd"/>
      <path id="Path_2640" data-name="Path 2640" d="M145.531,244.031l57.405-42.99,57.382-42.99H30.72l57.405,42.99Z" transform="translate(40.383 207.647)" fill="#1cb0f6" fill-rule="evenodd"/>
    </g>
  </g>
</svg>
