<svg xmlns="http://www.w3.org/2000/svg" width="379.908" height="449.495" viewBox="0 0 379.908 449.495">
  <g id="Layer_x0020_1" transform="translate(0.01 0.001)">
    <g id="_1959929514624" transform="translate(-0.01 -0.001)">
      <path id="Path_2599" data-name="Path 2599" d="M55.44,35.369q132.7,4.11,132.7,4.122c-3.96-21.6-6.954-37.279-29.7-38.845C130.091-.275,106.88-.183,82.887.738Q61.335.669,55.463,35.369Z" transform="translate(72.24 0.001)" fill="#1cb0f6" fill-rule="evenodd"/>
      <path id="Path_2600" data-name="Path 2600" d="M51.407,122.337a12.645,12.645,0,0,1,15.151-15.312c3.707.875,36.151,17.661,42.391,20.793,7.437,3.73,15.7,5.78,17.569,14A12.611,12.611,0,0,1,111.46,156.9c-3.868-.783-36.22-17.569-42.506-20.724C61.631,132.515,53.249,130.258,51.407,122.337ZM.013,169.955V121.992c.322-10.385,1.7-20.056,6.516-30.418C15.141,73.061,37.407,56.8,58.154,56.252l26.066-.207,94.914-.115,11.145.092.023,75.871c-16.579.737-37.878-4.49-38.131,12.6-.253,17.454,22.059,12.043,37.947,12.849l-.069,50.727,88.42.023v.253H101.6c-2.671-1.5-33.135-.507-39.029-.507H42.98c-8.358,0-10.638-1.036-17.707-2.1-4.559-2.118-5.043-1.8-9.763-5.342a36.961,36.961,0,0,1-7.322-7.23c-5.434-7.115-7.507-14.9-8.2-23.187Z" transform="translate(0.01 72.857)" fill="#fd7875" fill-rule="evenodd"/>
      <path id="Path_2601" data-name="Path 2601" d="M221.378,121.68c-1.773,8.474-10.339,10.661-17.546,14.276-5.918,2.97-39.075,20.079-42.322,20.885a12.6,12.6,0,0,1-15.358-15.358c1.727-7.53,11.076-10.385,17.868-13.77,5.826-2.9,39.144-20.125,42.368-20.77A12.634,12.634,0,0,1,221.4,121.7Zm51-6.516v57.75a41.05,41.05,0,0,1-8.289,20.747c-3.224,4.329-11.122,10.776-16.993,12.089-20.056,5.549-53.743-.023-76.148,2.28L82.53,208l.069-50.727c7.944.092,17.661.461,25.467-.023,16.855-1.059,16.51-24.661-.023-25.421-7.921-.368-17.247-.115-25.26.023L82.76,55.986l16.3-.046h42.9l27.4.046,19.112.138,25.743-.138c18.858,1.013,37.51,13.1,46.536,26.756,8.22,12.457,10.891,21.9,11.628,32.421Z" transform="translate(107.528 72.87)" fill="#fc4849" fill-rule="evenodd"/>
      <path id="Path_2602" data-name="Path 2602" d="M83.369,77.057c2.97-.944,6.839-8.5,21.23-13.263a51.932,51.932,0,0,1,30.556-.553c15.358,4.536,31.753,19.457,34.4,35.829l19.112.138c-1.589-12.526-8.174-41.447-11.237-56.759-4.743-23.717-7-19.25-48.977-19.25-15.2,0-30.464-.138-45.638.023-.345,8.865-.069,18.214-.069,27.148,0,4.122-1.105,25.006.622,26.71Z" transform="translate(107.357 29.786)" fill="#384949" fill-rule="evenodd"/>
      <path id="Path_2603" data-name="Path 2603" d="M82.58,37.449c15.174-.161,30.441-.023,45.638-.023,41.977,0,44.233-4.467,48.977,19.25,3.062,15.312,9.648,44.233,11.237,56.759l25.743-.138L199.783,40.419c-3.592-14.092-15.911-25.006-30.3-27.839-5.6-1.105-77.529-.437-86.855-.437L82.58,37.472Z" transform="translate(107.593 15.559)" fill="#cc2e43" fill-rule="evenodd"/>
      <path id="Path_2604" data-name="Path 2604" d="M87.312,123.572c-2.671-1.5-33.135-.507-39.029-.507h-19.6c-8.358,0-10.638-1.036-17.707-2.1,0,17.845-.023,26.572,7.483,37.464,3.224,4.674,7,7.714,11.835,10.914,4.559,3.016,10.684,4.836,17.362,5.411l.322.023H51.99c10.339-.714,20.585-6.885,26.733-14.437,7.023-8.635,10.27-20.01,8.589-36.773Z" transform="translate(14.326 157.579)" fill="#4a696f" fill-rule="evenodd"/>
      <path id="Path_2605" data-name="Path 2605" d="M121.206,123.28v.253c-1.082,5.02-.092,17.108.9,20.885,2.993,11.628,9.418,20.056,19.641,25.881a41.906,41.906,0,0,0,16,4.444h3.339c12.895-.714,22.819-8.128,28.6-15.888,8.243-11.1,7.668-19.3,7.668-37.855-20.056,5.549-53.743-.023-76.147,2.28Z" transform="translate(157.295 157.618)" fill="#384949" fill-rule="evenodd"/>
      <path id="Path_2606" data-name="Path 2606" d="M83.471,55.378c-.484.99-.668,1.474-1.151,2.441,1.243,2.164.368,16.464.714,19.549l16.3-.046c2.924-6.309,11.7-12.434,21.622-12.342,10.155.092,18.306,6.286,21.276,12.342l27.4.046C167.01,61,150.593,46.076,135.234,41.54a51.932,51.932,0,0,0-30.556.553C90.264,46.859,86.4,54.411,83.448,55.355Z" transform="translate(107.254 51.465)" fill="#8ebac5" fill-rule="evenodd"/>
      <path id="Path_2607" data-name="Path 2607" d="M22.518,93.627c1.865,7.921,10.224,10.178,17.546,13.839,6.286,3.155,38.638,19.918,42.506,20.724A12.6,12.6,0,0,0,97.63,113.107c-1.865-8.22-10.108-10.27-17.569-14C73.821,95.976,41.377,79.19,37.67,78.315A12.645,12.645,0,0,0,22.518,93.627Z" transform="translate(28.899 101.567)" fill="#fed300" fill-rule="evenodd"/>
      <path id="Path_2608" data-name="Path 2608" d="M185.6,92.986a12.634,12.634,0,0,0-15.013-14.76c-3.224.645-36.543,17.868-42.368,20.77-6.793,3.408-16.141,6.24-17.868,13.77a12.6,12.6,0,0,0,15.358,15.358c3.247-.806,36.4-17.914,42.322-20.885,7.207-3.592,15.773-5.8,17.546-14.276Z" transform="translate(143.303 101.563)" fill="#fdbe00" fill-rule="evenodd"/>
      <path id="Path_2609" data-name="Path 2609" d="M110.437,37.884h46.812l.046-25.329H109.47Q42.74,5.129,37.582,56.028a4.255,4.255,0,0,0-.322-.322L25.24,113.962l26.066-.207,4.951-25.191c7.414-42.552,10.753-54.756,54.8-51.1l.645-.391-1.289.783Zm-70.069,22.7c.069.184.161.368.23.576C40.529,60.979,40.437,60.772,40.368,60.588Z" transform="translate(32.901 15.124)" fill="#e5394f" fill-rule="evenodd"/>
      <path id="Path_2610" data-name="Path 2610" d="M82.57,114.452c7.944.092,17.661.461,25.467-.023,16.855-1.059,16.51-24.661-.023-25.421-7.921-.368-17.247-.115-25.26.023l-.184,25.421Z" transform="translate(107.58 115.696)" fill="#3e5959" fill-rule="evenodd"/>
      <path id="Path_2611" data-name="Path 2611" d="M104.038,114.447l.184-25.421c-16.579.737-37.878-4.49-38.131,12.6-.253,17.454,22.059,12.043,37.947,12.849Z" transform="translate(86.112 115.701)" fill="#4a686e" fill-rule="evenodd"/>
      <path id="Path_2612" data-name="Path 2612" d="M89.71,62.923h42.9c-2.97-6.056-11.122-12.25-21.276-12.342C101.407,50.488,92.634,56.613,89.71,62.923Z" transform="translate(116.881 65.887)" fill="#384949" fill-rule="evenodd"/>
      <path id="Path_2613" data-name="Path 2613" d="M77.79,66.927l11.145.092c-.345-3.109.53-17.385-.714-19.549-4.582,4.4-8.566,11.352-10.431,19.48Z" transform="translate(101.353 61.837)" fill="#a7d2d7" fill-rule="evenodd"/>
      <path id="Path_2614" data-name="Path 2614" d="M30.61,56.032Q35.756,5.121,102.5,12.559" transform="translate(39.896 15.12)" fill="none" fill-rule="evenodd"/>
      <path id="Path_2615" data-name="Path 2615" d="M38.73,74.282c7.414-42.552,10.753-54.756,54.8-51.1" transform="translate(50.473 29.407)" fill="none" fill-rule="evenodd"/>
      <path id="Path_2616" data-name="Path 2616" d="M96.323,23.2c-44.049-3.661-47.365,8.543-54.8,51.1L36.57,99.482l94.914-.115c1.865-8.128,5.849-15.082,10.431-19.48.484-.99.668-1.474,1.151-2.441-1.727-1.7-.622-22.566-.622-26.71,0-8.911-.276-18.283.069-27.148H95.7l.645-.391Z" transform="translate(47.66 29.42)" fill="#3e5959" fill-rule="evenodd"/>
      <path id="Path_2617" data-name="Path 2617" d="M144.976,243.615,202.1,200.833l57.1-42.783H30.72l57.128,42.783Z" transform="translate(40.039 205.88)" fill="#1cb0f6" fill-rule="evenodd"/>
    </g>
  </g>
</svg>
