<svg xmlns="http://www.w3.org/2000/svg" width="16.001" height="10.999" viewBox="0 0 16.001 10.999">
  <path id="Union_2" data-name="Union 2" d="M-572-1847a1,1,0,0,1-1-1v-5a1,1,0,0,1,1-1h14a1,1,0,0,1,1,1v5a1,1,0,0,1-1,1Zm10-4v1a1,1,0,0,0,1,1h1a1,1,0,0,0,1-1v-1a1,1,0,0,0-1-1h-1A1,1,0,0,0-562-1851Zm-9,0v1a1,1,0,0,0,1,1h6a1,1,0,0,0,1-1v-1a1,1,0,0,0-1-1h-6A1,1,0,0,0-571-1851Zm-1-4a1,1,0,0,1-1-1v-1a1,1,0,0,1,1-1h14a1,1,0,0,1,1,1v1a1,1,0,0,1-1,1Z" transform="translate(573 1858)" fill="#1da1f3"/>
</svg>
