<svg id="Layer_x0020_1" xmlns="http://www.w3.org/2000/svg" width="20.186" height="19.211" viewBox="0 0 20.186 19.211">
  <g id="_1750187526480" transform="translate(0)">
    <g id="Group_1773" data-name="Group 1773">
      <path id="Path_2473" data-name="Path 2473" d="M74.08,132.3H73.048a.478.478,0,0,1-.478-.478V129.06h1.988v2.766A.478.478,0,0,1,74.08,132.3Z" transform="translate(-64.385 -114.504)" fill="#5a5a5a" fill-rule="evenodd"/>
      <path id="Path_2474" data-name="Path 2474" d="M143.208,129.05v2.766a.478.478,0,0,1-.478.478H141.7a.478.478,0,0,1-.478-.478V129.05Z" transform="translate(-125.292 -114.495)" fill="#5a5a5a" fill-rule="evenodd"/>
      <path id="Path_2475" data-name="Path 2475" d="M78.278,129.05v2.766a.478.478,0,0,1-.478.478h.921a.478.478,0,0,0,.478-.478V129.05Z" transform="translate(-69.025 -114.495)" fill="#444" fill-rule="evenodd"/>
      <path id="Path_2476" data-name="Path 2476" d="M146.918,129.05v2.766a.478.478,0,0,1-.478.478h.921a.478.478,0,0,0,.478-.478V129.05Z" transform="translate(-129.924 -114.495)" fill="#444" fill-rule="evenodd"/>
      <path id="Path_2477" data-name="Path 2477" d="M76.305,39.252H68.346a1.536,1.536,0,0,1-1.536-1.536V29.077A2.287,2.287,0,0,1,69.1,26.79h6.457a2.287,2.287,0,0,1,2.287,2.287v8.638a1.536,1.536,0,0,1-1.536,1.536Z" transform="translate(-59.275 -23.768)" fill="#fc4848" fill-rule="evenodd"/>
      <path id="Path_2478" data-name="Path 2478" d="M78.31,44.039V41.223A1.093,1.093,0,0,1,79.4,40.13h6.253a1.093,1.093,0,0,1,1.093,1.093v2.816a.546.546,0,0,1-.546.546H78.857a.546.546,0,0,1-.546-.546Z" transform="translate(-69.478 -35.604)" fill="#c8effe" fill-rule="evenodd"/>
      <path id="Path_2479" data-name="Path 2479" d="M54.06,64.878H52.782a.342.342,0,0,1-.342-.342V62.692a.342.342,0,0,1,.342-.342h.936a.342.342,0,0,1,.342.342v2.185h0Z" transform="translate(-46.526 -55.318)" fill="#fc6b6b" fill-rule="evenodd"/>
      <path id="Path_2480" data-name="Path 2480" d="M164.62,64.878H165.9a.342.342,0,0,0,.342-.342V62.692a.342.342,0,0,0-.342-.342h-.936a.342.342,0,0,0-.342.342v2.185h0Z" transform="translate(-146.053 -55.318)" fill="#fc6b6b" fill-rule="evenodd"/>
      <path id="Path_2481" data-name="Path 2481" d="M19.96,159.24H.554a.364.364,0,0,1-.364-.364v-.681a.364.364,0,0,1,.364-.364H19.96a.364.364,0,0,1,.364.364v.681a.364.364,0,0,1-.364.364Z" transform="translate(-0.169 -140.029)" fill="#9c9c9c" fill-rule="evenodd"/>
      <path id="Path_2482" data-name="Path 2482" d="M134.137,26.79h-1.3a2.287,2.287,0,0,1,2.287,2.287v8.638a1.536,1.536,0,0,1-1.536,1.536h1.3a1.536,1.536,0,0,0,1.536-1.536V29.077a2.287,2.287,0,0,0-2.287-2.287Z" transform="translate(-117.858 -23.768)" fill="#e34141" fill-rule="evenodd"/>
      <path id="Path_2483" data-name="Path 2483" d="M73.218,124.246H62.33a.65.65,0,0,1-.65-.65V122.37a.65.65,0,0,1,.65-.65H73.218a.65.65,0,0,1,.65.65V123.6a.65.65,0,0,1-.65.65Z" transform="translate(-54.723 -107.992)" fill="#cecece" fill-rule="evenodd"/>
      <path id="Path_2484" data-name="Path 2484" d="M84.89,90.11h6.716v2.526H84.89Z" transform="translate(-75.316 -79.947)" fill="#ca2e43" fill-rule="evenodd"/>
      <path id="Path_2485" data-name="Path 2485" d="M79.7,92.645H78.617a.307.307,0,0,1-.307-.307V90.427a.307.307,0,0,1,.307-.307H79.7a.307.307,0,0,1,.307.307v1.912a.307.307,0,0,1-.307.307Z" transform="translate(-69.478 -79.956)" fill="#fc0" fill-rule="evenodd"/>
      <path id="Path_2486" data-name="Path 2486" d="M139.235,92.645h-1.078a.307.307,0,0,1-.307-.307V90.427a.307.307,0,0,1,.307-.307h1.078a.307.307,0,0,1,.307.307v1.912a.307.307,0,0,1-.307.307Z" transform="translate(-122.303 -79.956)" fill="#fc0" fill-rule="evenodd"/>
      <path id="Path_2487" data-name="Path 2487" d="M78.31,44.039V41.223A1.093,1.093,0,0,1,79.4,40.13h6.253a1.093,1.093,0,0,1,1.093,1.093v2.816a.546.546,0,0,1-.546.546H78.857a.546.546,0,0,1-.546-.546Z" transform="translate(-69.478 -35.604)" fill="#dff6fd" fill-rule="evenodd"/>
      <path id="Path_2488" data-name="Path 2488" d="M86.666,40.13H80.413a1.1,1.1,0,0,0-.963.575h6.18A1.093,1.093,0,0,1,86.722,41.8v2.787h.489a.546.546,0,0,0,.546-.546V41.223a1.093,1.093,0,0,0-1.093-1.093h0Z" transform="translate(-70.489 -35.604)" fill="#c8effe" fill-rule="evenodd"/>
      <path id="Path_2489" data-name="Path 2489" d="M164.612,157.82H163.23a.364.364,0,0,1,.364.364v.681a.364.364,0,0,1-.364.364h1.382a.364.364,0,0,0,.364-.364v-.681a.364.364,0,0,0-.364-.364Z" transform="translate(-144.82 -140.02)" fill="#838383" fill-rule="evenodd"/>
      <path id="Path_2490" data-name="Path 2490" d="M153.112,121.72H151.73a.65.65,0,0,1,.65.65V123.6a.65.65,0,0,1-.65.65h1.382a.65.65,0,0,0,.65-.65V122.37A.65.65,0,0,0,153.112,121.72Z" transform="translate(-134.617 -107.992)" fill="#bfbfbf" fill-rule="evenodd"/>
      <path id="Path_2491" data-name="Path 2491" d="M13.47,34.53h1.175v9.2H13.47Z" transform="translate(-11.951 -30.636)" fill="#444" fill-rule="evenodd"/>
      <path id="Path_2492" data-name="Path 2492" d="M13.47,24.33h1.175V39.386H13.47Z" transform="translate(-11.951 -21.586)" fill="#5a5a5a" fill-rule="evenodd"/>
      <path id="Path_2493" data-name="Path 2493" d="M3.646,33.527H.567A.567.567,0,0,1,0,32.959V24.33H4.214v8.629A.567.567,0,0,1,3.646,33.527Z" transform="translate(0 -21.586)" fill="#99e6fc" fill-rule="evenodd"/>
      <path id="Path_2494" data-name="Path 2494" d="M3.646,0H.567A.567.567,0,0,0,0,.567V2.744H4.214V.567A.567.567,0,0,0,3.646,0h0Z" transform="translate(0)" fill="#0290cf" fill-rule="evenodd"/>
      <path id="Path_2495" data-name="Path 2495" d="M22.687,24.33v8.629a.567.567,0,0,1-.567.567h1.152a.567.567,0,0,0,.567-.567V24.33H22.687Z" transform="translate(-19.625 -21.586)" fill="#62dbfb" fill-rule="evenodd"/>
      <path id="Path_2496" data-name="Path 2496" d="M23.272,0H22.12a.567.567,0,0,1,.567.567V2.744h1.152V.567A.567.567,0,0,0,23.272,0Z" transform="translate(-19.625)" fill="#017bae" fill-rule="evenodd"/>
    </g>
  </g>
</svg>
