<svg id="calendar" xmlns="http://www.w3.org/2000/svg" width="11.503" height="11.503" viewBox="0 0 11.503 11.503">
  <g id="Group_1853" data-name="Group 1853">
    <g id="Group_1852" data-name="Group 1852">
      <path id="Path_2566" data-name="Path 2566" d="M10.155.9H9.616V0h-.9V.9H2.786V0h-.9V.9H1.348A1.35,1.35,0,0,0,0,2.247v7.908A1.35,1.35,0,0,0,1.348,11.5h8.807A1.35,1.35,0,0,0,11.5,10.155V2.247A1.35,1.35,0,0,0,10.155.9Zm.449,9.257a.45.45,0,0,1-.449.449H1.348A.45.45,0,0,1,.9,10.155V4.224H10.6Zm0-6.83H.9V2.247A.45.45,0,0,1,1.348,1.8h.539v.9h.9V1.8H8.717v.9h.9V1.8h.539a.45.45,0,0,1,.449.449Z" fill="#a7a7a7"/>
    </g>
  </g>
  <g id="Group_1855" data-name="Group 1855" transform="translate(1.534 5.368)">
    <g id="Group_1854" data-name="Group 1854" transform="translate(0 0)">
      <rect id="Rectangle_2251" data-name="Rectangle 2251" width="1" height="1" transform="translate(-0.17 -0.135)" fill="#a7a7a7"/>
    </g>
  </g>
  <g id="Group_1857" data-name="Group 1857" transform="translate(3.834 5.368)">
    <g id="Group_1856" data-name="Group 1856" transform="translate(0 0)">
      <rect id="Rectangle_2252" data-name="Rectangle 2252" width="1" height="1" transform="translate(-0.471 -0.135)" fill="#a7a7a7"/>
    </g>
  </g>
  <g id="Group_1859" data-name="Group 1859" transform="translate(5.368 5.368)">
    <g id="Group_1858" data-name="Group 1858" transform="translate(0 0)">
      <rect id="Rectangle_2253" data-name="Rectangle 2253" width="1" height="1" transform="translate(-0.005 -0.135)" fill="#a7a7a7"/>
    </g>
  </g>
  <g id="Group_1861" data-name="Group 1861" transform="translate(6.902 5.368)">
    <g id="Group_1860" data-name="Group 1860" transform="translate(0 0)">
      <rect id="Rectangle_2254" data-name="Rectangle 2254" height="1" transform="translate(0.462 -0.135)" fill="#a7a7a7"/>
    </g>
  </g>
  <g id="Group_1863" data-name="Group 1863" transform="translate(9.203 5.368)">
    <g id="Group_1862" data-name="Group 1862" transform="translate(0 0)">
      <rect id="Rectangle_2255" data-name="Rectangle 2255" width="1" height="1" transform="translate(0.161 -0.135)" fill="#a7a7a7"/>
    </g>
  </g>
  <g id="Group_1865" data-name="Group 1865" transform="translate(1.534 6.902)">
    <g id="Group_1864" data-name="Group 1864" transform="translate(0 0)">
      <rect id="Rectangle_2256" data-name="Rectangle 2256" width="1" transform="translate(-0.17 0.331)" fill="#a7a7a7"/>
    </g>
  </g>
  <g id="Group_1867" data-name="Group 1867" transform="translate(3.834 6.902)">
    <g id="Group_1866" data-name="Group 1866" transform="translate(0 0)">
      <rect id="Rectangle_2257" data-name="Rectangle 2257" width="1" transform="translate(-0.471 0.331)" fill="#a7a7a7"/>
    </g>
  </g>
  <g id="Group_1869" data-name="Group 1869" transform="translate(5.368 6.902)">
    <g id="Group_1868" data-name="Group 1868" transform="translate(0 0)">
      <rect id="Rectangle_2258" data-name="Rectangle 2258" width="1" transform="translate(-0.005 0.331)" fill="#a7a7a7"/>
    </g>
  </g>
  <g id="Group_1871" data-name="Group 1871" transform="translate(6.902 6.902)">
    <g id="Group_1870" data-name="Group 1870" transform="translate(0 0)">
      <rect id="Rectangle_2259" data-name="Rectangle 2259" transform="translate(0.462 0.331)" fill="#a7a7a7"/>
    </g>
  </g>
  <g id="Group_1873" data-name="Group 1873" transform="translate(1.534 8.436)">
    <g id="Group_1872" data-name="Group 1872" transform="translate(0 0)">
      <rect id="Rectangle_2260" data-name="Rectangle 2260" width="1" height="2" transform="translate(-0.17 -0.203)" fill="#a7a7a7"/>
    </g>
  </g>
  <g id="Group_1875" data-name="Group 1875" transform="translate(3.834 8.436)">
    <g id="Group_1874" data-name="Group 1874" transform="translate(0 0)">
      <rect id="Rectangle_2261" data-name="Rectangle 2261" width="1" height="2" transform="translate(-0.471 -0.203)" fill="#a7a7a7"/>
    </g>
  </g>
  <g id="Group_1877" data-name="Group 1877" transform="translate(5.368 8.436)">
    <g id="Group_1876" data-name="Group 1876" transform="translate(0 0)">
      <rect id="Rectangle_2262" data-name="Rectangle 2262" width="1" height="2" transform="translate(-0.005 -0.203)" fill="#a7a7a7"/>
    </g>
  </g>
  <g id="Group_1879" data-name="Group 1879" transform="translate(6.902 8.436)">
    <g id="Group_1878" data-name="Group 1878" transform="translate(0 0)">
      <rect id="Rectangle_2263" data-name="Rectangle 2263" height="2" transform="translate(0.462 -0.203)" fill="#a7a7a7"/>
    </g>
  </g>
  <g id="Group_1881" data-name="Group 1881" transform="translate(9.203 6.902)">
    <g id="Group_1880" data-name="Group 1880" transform="translate(0 0)">
      <rect id="Rectangle_2264" data-name="Rectangle 2264" width="1" transform="translate(0.161 0.331)" fill="#a7a7a7"/>
    </g>
  </g>
</svg>
