<svg id="Component_205_1" data-name="Component 205 – 1" xmlns="http://www.w3.org/2000/svg" width="27" height="27" viewBox="0 0 27 27">
  <circle id="Ellipse_465" data-name="Ellipse 465" cx="13.5" cy="13.5" r="13.5" fill="#1da1f3"/>
  <g id="map-gps-navigation-place-location-32055" transform="translate(6 6)">
    <path id="Path_1997" data-name="Path 1997" d="M17.507,6a.266.266,0,0,0-.1.016L13.89,7.381,9.945,6,6.24,7.249A.334.334,0,0,0,6,7.565v9.942a.33.33,0,0,0,.329.329.266.266,0,0,0,.1-.016l3.514-1.364,3.945,1.381L17.6,16.589a.339.339,0,0,0,.237-.319V6.329A.33.33,0,0,0,17.507,6ZM13.89,16.52,9.945,15.136V7.315L13.89,8.7Z" transform="translate(-4.027 -4.027)" fill="#fff"/>
    <path id="Path_1998" data-name="Path 1998" d="M0,0H15.78V15.78H0Z" fill="none"/>
  </g>
</svg>
