<svg id="directions_car-24px_1_" data-name="directions_car-24px (1)" xmlns="http://www.w3.org/2000/svg" width="98.843" height="98.843" viewBox="0 0 98.843 98.843">
  <path id="Path_2436" data-name="Path 2436" d="M0,0H98.843V98.843H0Z" fill="none"/>
  <path id="Path_2437" data-name="Path 2437" d="M68.566,9.16A6.154,6.154,0,0,0,62.718,5h-45.3a6.193,6.193,0,0,0-5.848,4.16L3.453,32.511A8.552,8.552,0,0,0,3,35.229V64.718a6.178,6.178,0,0,0,12.355,0V62.658H64.777v2.059a6.178,6.178,0,0,0,12.355,0V35.229a8.749,8.749,0,0,0-.453-2.718ZM17.415,50.3a6.178,6.178,0,1,1,6.178-6.178A6.169,6.169,0,0,1,17.415,50.3Zm45.3,0A6.178,6.178,0,1,1,68.9,44.125,6.169,6.169,0,0,1,62.718,50.3ZM11.237,29.711l5.23-15.732a4.174,4.174,0,0,1,3.913-2.8H59.752a4.174,4.174,0,0,1,3.913,2.8L68.9,29.711Z" transform="translate(9.355 15.592)" fill="#474747"/>
</svg>
