<svg xmlns="http://www.w3.org/2000/svg" width="40.866" height="26.916" viewBox="0 0 40.866 26.916">
  <g id="Layer_x0020_1" transform="translate(-0.025)">
    <path id="Path_2506" data-name="Path 2506" d="M39.988,8.042a.879.879,0,0,0-.656-.492H35.557c-.328,0-.656.164-.656.492a1.48,1.48,0,0,0-.164.821L32.274,1.969A2.809,2.809,0,0,0,29.648,0H10.611A2.809,2.809,0,0,0,7.985,1.969L5.523,8.862a7.108,7.108,0,0,1-.164-.821A.879.879,0,0,0,4.7,7.549H.928c-.328,0-.656.164-.656.492a4.068,4.068,0,0,0,0,2.79.879.879,0,0,0,.656.492H4.7v.164a1.92,1.92,0,0,0-1.313,1.805V25.931a.946.946,0,0,0,.985.985h4.6a1.059,1.059,0,0,0,.985-.985V21.5H30.961v4.431a.946.946,0,0,0,.985.985h4.6a1.059,1.059,0,0,0,.985-.985V13.294a1.92,1.92,0,0,0-1.313-1.805v-.164h3.775c.328,0,.656-.164.656-.492a4.068,4.068,0,0,0,0-2.79Zm-29.213-4.6H28.992l2.954,8.042H7.821l2.954-8.042Zm.492,13.622H7.328a1.477,1.477,0,0,1,0-2.954h3.939a1.477,1.477,0,0,1,0,2.954Zm21.171,0H28.5a1.477,1.477,0,0,1,0-2.954h3.939a1.477,1.477,0,0,1,0,2.954Z" transform="translate(0)" fill="#fff" fill-rule="evenodd"/>
  </g>
</svg>
