<svg xmlns="http://www.w3.org/2000/svg" width="27" height="27" viewBox="0 0 27 27">
  <path id="Subtraction_35" data-name="Subtraction 35" d="M-91.5-1831a13.412,13.412,0,0,1-9.546-3.954A13.412,13.412,0,0,1-105-1844.5a13.412,13.412,0,0,1,3.954-9.546A13.412,13.412,0,0,1-91.5-1858a13.412,13.412,0,0,1,9.546,3.954A13.412,13.412,0,0,1-78-1844.5a13.412,13.412,0,0,1-3.954,9.546A13.412,13.412,0,0,1-91.5-1831Zm-1.7-12.232h3.733v5.6H-84.8v-7.468H-82l-9.335-8.4-9.335,8.4h2.8v7.468H-93.2v-5.6Z" transform="translate(105 1858)" fill="#1da1f3"/>
</svg>
