<svg xmlns="http://www.w3.org/2000/svg" width="137.349" height="137.349" viewBox="0 0 137.349 137.349">
  <g id="Group_1787" data-name="Group 1787" transform="translate(-1659 -1576)">
    <g id="Group_1784" data-name="Group 1784" transform="translate(1659 1576)">
      <g id="Group_1776" data-name="Group 1776">
        <path id="Path_2498" data-name="Path 2498" d="M117.235,20.114a68.675,68.675,0,0,0-97.121,97.121,68.675,68.675,0,0,0,97.121-97.121Zm-5.691,91.43a60.627,60.627,0,0,1-85.739-85.74,60.627,60.627,0,1,1,85.739,85.74Z" transform="translate(0)" fill="#c9c9c9"/>
      </g>
    </g>
    <g id="Group_1783" data-name="Group 1783" transform="translate(1696 1613)">
      <g id="Group_1782" data-name="Group 1782">
        <path id="Path_2501" data-name="Path 2501" d="M163.13,149.389,153.015,139.31a5.886,5.886,0,0,0-8.323-.01l-.01.01-5.8,5.8a1.278,1.278,0,0,1-1.638.144,66.8,66.8,0,0,1-15.6-15.317,1.26,1.26,0,0,1,.126-1.638l5.94-5.94a5.885,5.885,0,0,0,0-8.315l-10.115-10.115a6.03,6.03,0,0,0-8.333,0l-3.2,3.2a18,18,0,0,0-4.464,18.359,53.992,53.992,0,0,0,6.588,13.355,70.009,70.009,0,0,0,20.212,19.853,51.525,51.525,0,0,0,14.975,6.659,17.336,17.336,0,0,0,4.176.5,18.215,18.215,0,0,0,12.833-5.4l2.754-2.754A5.885,5.885,0,0,0,163.13,149.389Zm-2.549,5.86-.007.007.018-.054-2.754,2.754a14.4,14.4,0,0,1-13.589,3.888,47.844,47.844,0,0,1-13.895-6.227A66.545,66.545,0,0,1,111.2,136.844a50.39,50.39,0,0,1-6.156-12.455,14.4,14.4,0,0,1,3.6-14.7l3.2-3.2a2.286,2.286,0,0,1,3.233-.007l.007.007L125.207,116.6a2.286,2.286,0,0,1,.007,3.233l-.007.007-5.94,5.94a4.842,4.842,0,0,0-.5,6.3,70.9,70.9,0,0,0,16.469,16.163,4.877,4.877,0,0,0,6.227-.54l5.742-5.832a2.286,2.286,0,0,1,3.233-.007l.007.007,10.133,10.151A2.285,2.285,0,0,1,160.581,155.25Z" transform="translate(-100.712 -102.253)" fill="#c9c9c9" stroke="#c9c9c9" stroke-width="4"/>
      </g>
    </g>
  </g>
</svg>
