<svg xmlns="http://www.w3.org/2000/svg" width="137.349" height="137.349" viewBox="0 0 137.349 137.349">
  <g id="Group_1786" data-name="Group 1786" transform="translate(-1300 -1576)">
    <g id="Group_1777" data-name="Group 1777" transform="translate(1300 1576)">
      <g id="Group_1776" data-name="Group 1776">
        <path id="Path_2498" data-name="Path 2498" d="M117.235,20.114a68.675,68.675,0,0,0-97.121,97.121,68.675,68.675,0,0,0,97.121-97.121Zm-5.691,91.43a60.627,60.627,0,0,1-85.739-85.74,60.627,60.627,0,1,1,85.739,85.74Z" transform="translate(0)" fill="#c9c9c9"/>
      </g>
    </g>
    <g id="Group_1785" data-name="Group 1785">
      <g id="Group_1784" data-name="Group 1784" transform="translate(1300 1576)">
        <g id="Group_1776-2" data-name="Group 1776">
          <path id="Path_2498-2" data-name="Path 2498" d="M117.235,20.114a68.675,68.675,0,0,0-97.121,97.121,68.675,68.675,0,0,0,97.121-97.121Zm-5.691,91.43a60.627,60.627,0,0,1-85.739-85.74,60.627,60.627,0,1,1,85.739,85.74Z" transform="translate(0)" fill="#c9c9c9"/>
        </g>
      </g>
      <g id="Group_1779" data-name="Group 1779" transform="translate(1337 1612)">
        <g id="Group_1778" data-name="Group 1778">
          <path id="Path_2499" data-name="Path 2499" d="M182.7,178.65l-17.5-17.5,17.5-17.5a2.865,2.865,0,0,0-4.052-4.051l-17.5,17.5-17.5-17.5a2.865,2.865,0,1,0-4.052,4.052l17.5,17.5-17.5,17.5a2.865,2.865,0,0,0,4.052,4.052l17.5-17.5,17.5,17.5a2.865,2.865,0,0,0,4.052-4.052Z" transform="translate(-129.753 -128.754)" fill="#c9c9c9" stroke="#c9c9c9" stroke-width="3"/>
        </g>
      </g>
    </g>
  </g>
</svg>
