<svg xmlns="http://www.w3.org/2000/svg" width="137.349" height="137.349" viewBox="0 0 137.349 137.349">
  <g id="Group_1798" data-name="Group 1798" transform="translate(-1121 -1576)">
    <g id="Group_1790" data-name="Group 1790" transform="translate(196)">
      <g id="Group_1777" data-name="Group 1777" transform="translate(925 1576)">
        <g id="Group_1776" data-name="Group 1776">
          <path id="Path_2498" data-name="Path 2498" d="M117.235,20.114a68.675,68.675,0,0,0-97.121,97.121,68.675,68.675,0,0,0,97.121-97.121Zm-5.691,91.43a60.627,60.627,0,0,1-85.739-85.74,60.627,60.627,0,1,1,85.739,85.74Z" transform="translate(0)" fill="#727272"/>
        </g>
      </g>
      <g id="Group_1784" data-name="Group 1784" transform="translate(925 1576)">
        <g id="Group_1776-2" data-name="Group 1776">
          <path id="Path_2498-2" data-name="Path 2498" d="M117.235,20.114a68.675,68.675,0,0,0-97.121,97.121,68.675,68.675,0,0,0,97.121-97.121Zm-5.691,91.43a60.627,60.627,0,0,1-85.739-85.74,60.627,60.627,0,1,1,85.739,85.74Z" transform="translate(0)" fill="#c9c9c9"/>
        </g>
      </g>
    </g>
    <g id="Layer_x0020_1" transform="translate(1155.012 1603.984)">
      <g id="_2201890972576" transform="translate(-0.012 0.016)">
        <path id="Path_2514" data-name="Path 2514" d="M64.995,53.717a40.112,40.112,0,0,1-9.738,15.158A50.875,50.875,0,0,1,36.244,80.138a4.465,4.465,0,0,1-.8.211,4.524,4.524,0,0,1-1.058.127H34.3a5.256,5.256,0,0,1-1.135-.127,5.121,5.121,0,0,1-.763-.211A51.061,51.061,0,0,1,13.348,68.875,40.628,40.628,0,0,1,3.61,53.717C-.341,43.046-.13,31.312.084,21.876v-.127c.043-.763.043-1.61.084-2.5a8.505,8.505,0,0,1,8.044-8.344A33.124,33.124,0,0,0,30.74,1.423l.041-.043A5.011,5.011,0,0,1,34.339.018,5.1,5.1,0,0,1,37.769,1.38l.043.043a33.1,33.1,0,0,0,22.525,9.484,8.567,8.567,0,0,1,8.044,8.342c0,.931.043,1.737.084,2.5v.043c.17,9.443.381,21.213-3.558,31.927ZM34.339,7.1A39.758,39.758,0,0,1,8.594,17.462a1.894,1.894,0,0,0-1.778,1.864c0,.89-.043,1.737-.084,2.625V22c-.211,9.781-.3,20.155,3.133,29.428A34.057,34.057,0,0,0,18,64.134a44.729,44.729,0,0,0,16.347,9.654,44.222,44.222,0,0,0,16.3-9.654,33.687,33.687,0,0,0,8.131-12.7C62.206,42.122,62.079,31.7,61.909,22v.043c-.043-.89-.084-1.816-.084-2.711a1.894,1.894,0,0,0-1.778-1.864A39.67,39.67,0,0,1,34.3,7.1Z" transform="translate(0.012 -0.016)" fill="#c9c9c9"/>
        <path id="Path_2515" data-name="Path 2515" d="M21.5,4.608A25.259,25.259,0,0,1,5.189,11.17a1.2,1.2,0,0,0-1.135,1.183c0,.549-.043,1.1-.043,1.651v.043C3.884,20.229,3.8,26.791,6,32.678a21.542,21.542,0,0,0,5.165,8.056A28.181,28.181,0,0,0,21.5,46.864a28.181,28.181,0,0,0,10.331-6.13,21.883,21.883,0,0,0,5.165-8.044,51.429,51.429,0,0,0,1.991-18.672v.043c-.043-.593-.043-1.135-.043-1.737a1.2,1.2,0,0,0-1.135-1.185,25.08,25.08,0,0,1-16.3-6.564Z" transform="translate(12.85 14.711)" fill="#c9c9c9" fill-rule="evenodd"/>
      </g>
    </g>
  </g>
</svg>
