<svg id="_1960385832176" xmlns="http://www.w3.org/2000/svg" width="279.406" height="279.406" viewBox="0 0 279.406 279.406">
  <circle id="Ellipse_768" data-name="Ellipse 768" cx="139.703" cy="139.703" r="139.703" fill="#89e219"/>
  <path id="Path_2598" data-name="Path 2598" d="M172.957,19.038a12.479,12.479,0,0,0-17.59.71l-79.28,85.768-44-40.7a12.448,12.448,0,1,0-16.88,18.3L68.332,132.23h0l.253.2h0l.253.2h0l.253.2h0l.253.2h0l.253.2h0l.253.152.253.152h0l.253.152h0l.253.152h0l.253.152h0l.253.152h0l.253.152.253.152h0l.3.1h0l.3.1.3.1.3.1.3.1h0l.3.1.3.1h0l.3.051.3.051.3.051.3.051h0l.3.051.3.051.3.051h2.129l.3-.051h0l.3-.051.3-.051.3-.051.3-.051.3-.051h0l.3-.051.3-.1.3-.1.3-.1h0l.3-.1.3-.1h0l.3-.1.253-.1.253-.152.253-.152h0l.253-.152h0l.253-.152.253-.152h0l.253-.152h0l.253-.152h0l.253-.152h0l.253-.2h0l.253-.2.253-.2h0l.253-.2h0l.253-.2h0l.2-.2h0l.2-.2h0l.2-.253h0l87.745-94.893a12.479,12.479,0,0,0-.71-17.59Z" transform="translate(45.621 64.094)" fill="#fff" fill-rule="evenodd"/>
</svg>
