<svg xmlns="http://www.w3.org/2000/svg" width="53.897" height="131.386" viewBox="0 0 53.897 131.386">
  <g id="Layer_x0020_1" transform="translate(-0.01)">
    <path id="Path_2239" data-name="Path 2239" d="M52.294,130.991l1,.394.192-.5c-.334-.131-.662-.258-1-.389l-.2.5ZM53.134.142l.051.2L53.71.223,53.7.182,53.655,0l-.516.137Zm.238,1.729v.086l-.005.162-.005.162-.01.162-.015.162-.02.162-.02.142.531.081.02-.152.02-.172.015-.172.01-.172.01-.177.005-.177V1.881l-.536-.005Zm-.48,2.523-.04.106-.066.157-.066.157-.071.157-.076.157-.081.157-.03.056.47.253.035-.066.081-.167.081-.167.076-.167.071-.167.071-.167.04-.106-.5-.2ZM51.632,6.68l-.121.167L51.394,7l-.121.157-.121.157-.162.2.41.344.172-.207.126-.162.126-.162.121-.162.126-.172-.435-.314ZM49.922,8.688l-.172.177-.157.157-.162.157-.268.253.364.394.273-.263.162-.157.162-.157.177-.177L49.917,8.7Zm-1.947,1.8c-.157.131-.314.263-.475.394l-.349.283.334.42.354-.283c.162-.131.319-.268.48-.4l-.344-.41Zm-2.083,1.659c-.283.212-.571.425-.86.632l.314.435c.293-.207.582-.425.865-.637l-.319-.43Zm-2.169,1.563c-.293.2-.587.4-.88.6l.3.445c.3-.2.592-.4.885-.607Zm-2.215,1.5c-.3.2-.6.389-.9.587l.293.45c.3-.2.6-.389.9-.587l-.293-.45Zm-2.25,1.451-.905.576.288.455.905-.576-.288-.45Zm-2.266,1.431-.91.566.283.455.91-.571-.283-.455ZM34.721,19.51l-.91.566.283.455.91-.566Zm-2.271,1.426c-.3.192-.607.379-.905.571l.288.455c.3-.192.6-.384.905-.571l-.283-.455Zm-2.266,1.436c-.3.192-.6.384-.905.582l.293.45.9-.582ZM27.93,23.834l-.9.592.3.445.9-.592-.293-.45Zm-2.235,1.492c-.3.2-.592.4-.885.607l.3.44c.293-.2.587-.4.885-.6Zm-2.21,1.527c-.293.207-.582.415-.875.622l.314.435c.288-.207.582-.415.87-.622l-.308-.44ZM21.3,28.425c-.288.212-.576.43-.86.642l.324.425c.283-.217.571-.43.855-.642l-.319-.43Zm-2.139,1.628c-.283.223-.561.445-.845.668l.334.42c.278-.223.556-.445.839-.662l-.329-.42Zm-2.094,1.689-.415.349-.4.344.349.4L17,32.5l.415-.349-.344-.41ZM15.034,33.5l-.263.233-.263.238-.273.248.364.394.268-.248.263-.238.263-.233-.359-.4Zm-1.967,1.836-.364.354-.253.248-.152.152.379.379.4-.394.364-.354-.374-.384Zm-1.891,1.917-.207.217-.243.258-.283.314.4.359.278-.308.238-.258.207-.217-.394-.364Zm-1.8,2-.283.334-.228.273-.182.223.415.339.177-.217L9.5,39.94l.283-.334-.41-.349Zm-1.689,2.1-.131.172-.212.283-.207.283-.1.131.435.314.091-.126.207-.283.207-.278.131-.172-.43-.324ZM6.119,43.551l-.187.278-.192.293-.212.329.455.283.207-.324.192-.293.187-.278-.45-.293ZM4.693,45.842l-.228.4-.172.308-.126.238.47.253.126-.233.167-.3.223-.394-.465-.268ZM3.429,48.228l-.1.212-.152.324-.147.324-.056.121.491.217.051-.116.147-.319.152-.319.1-.212-.485-.233ZM2.341,50.7,2.2,51.06l-.126.334-.116.314.506.182.111-.308.126-.329.142-.359-.5-.2Zm-.9,2.549-.091.3-.081.283-.081.283-.046.167.516.137.046-.162.081-.278.081-.278.091-.3-.511-.157ZM.753,55.859.7,56.107l-.061.283-.056.283-.046.243.526.1.046-.238.056-.278.056-.278.056-.248-.526-.111Zm-.465,2.66-.02.142-.035.283-.03.283-.04.364.536.051.035-.359L.764,59,.8,58.727l.02-.142-.531-.066ZM.045,61.21l-.01.273-.01.278-.01.278-.005.248.536.01.005-.243.01-.278.01-.278.01-.273L.045,61.2Zm-.02,2.7.015.359.015.278.015.278.01.167.536-.035-.01-.167-.015-.273-.01-.273L.566,63.89l-.536.02Zm.192,2.7.046.4.035.273.056.4L.885,67.6l-.056-.389-.035-.268-.046-.4-.531.061Zm.4,2.67.025.142L.7,69.68l.056.263.086.389.521-.121-.081-.379-.056-.258-.081-.4-.526.1Zm.612,2.63.1.369.076.253.076.253.051.157.511-.157L2,72.623l-.076-.248-.071-.253-.1-.369-.516.142Zm.814,2.574.106.3.091.243.091.243.091.228.5-.2-.086-.223-.091-.238-.091-.243L2.554,74.3l-.506.182Zm1.011,2.508.081.182.106.233.106.233.162.334.48-.238-.157-.324-.106-.228-.106-.228-.081-.182-.485.223Zm1.2,2.417.137.248.121.217.126.217.152.258.46-.278-.147-.248-.121-.212-.121-.212-.137-.248-.47.258Zm1.4,2.311.167.248.137.2.137.2.172.243.435-.314-.167-.233-.137-.2-.137-.2L6.1,81.417l-.445.3ZM7.247,83.9l.152.187.152.182.152.182.243.283.4-.349-.233-.278-.147-.177-.147-.182-.147-.182-.42.334Zm1.785,2.033.228.228.162.162.162.157.223.212.364-.389L9.952,86.1l-.147-.147.511.051.04-.339.03-.253.035-.253.03-.207-.531-.076-.03.207-.035.258-.035.258-.04.334-.147-.147-.223-.228-.384.374Zm1.987,1.841.228.187.172.137.172.137.172.131.111.081.319-.43-.273-.207-.167-.131-.167-.131-.223-.182-.339.415Zm2.195,1.6.131.081.177.111.177.106.182.106.268.152.258-.47-.258-.147-.177-.1L13.8,89.1,13.628,89l-.131-.081-.283.455Zm2.4,1.284.091.04.182.081.187.076.187.076.187.071.177.066.182-.506-.172-.061-.177-.071-.177-.071-.177-.076-.177-.076-.091-.04-.212.491Zm2.584.875.121.03.187.04.187.04.187.035.187.035.2.03.076-.531-.182-.03-.182-.03-.182-.035-.182-.035-.182-.04-.121-.03-.121.521Zm2.711.354.248.005h.187l.187-.005.187-.005.187-.01.1-.005-.04-.536-.086.005-.182.01-.182.005-.182.005h-.182l-.238-.005-.01.536Zm2.726-.263.152-.035.187-.046.187-.051.187-.051.187-.056.162-.051-.167-.511-.152.046-.177.051-.177.051-.177.046-.177.04-.152.035.121.521Zm2.589-.9.142-.066.182-.091.182-.1.177-.1.177-.1.106-.061-.278-.46-.1.061-.172.1-.172.1-.172.091-.172.086-.142.066.238.48Zm2.321-1.436.116-.086.172-.137L29,88.927l.172-.142.212-.187-.359-.394-.2.177-.162.137-.167.137-.167.131-.116.086.329.42Zm2.008-1.841-.4-.359.116-.126.116-.131L30.5,86.7l.111-.131.111-.131.121-.147.425.329-.126.157-.111.137-.116.137-.116.137-.121.137-.116.126ZM32.2,85.281l.1-.162.081-.142.081-.142.076-.142.076-.142.071-.142.046-.1-.485-.233-.04.086-.066.137-.071.137-.071.137-.076.137-.076.137-.1.157.46.278Zm1.133-2.5.025-.086.04-.142.04-.142.035-.142.035-.142.035-.142.03-.142.025-.116-.526-.1-.02.106-.03.137-.03.137-.035.137-.035.137-.035.137-.066.223.516.157Zm.465-2.705.005-.243v-.283L33.8,79.41l-.005-.142-.005-.142-.01-.152-.536.04.01.142.005.131.005.131v.4l-.005.238.536.015Zm-.248-2.731-.035-.147-.03-.137-.035-.137-.035-.131-.035-.131-.04-.131-.076-.248-.511.167c.04.121.076.238.111.359l.035.126.035.126.03.126.03.126.03.137.526-.116Zm-.905-2.584c-.04-.091-.086-.177-.131-.263l-.066-.121-.131-.243-.066-.121-.126-.217-.46.278c.106.182.212.364.314.551.066.121.126.248.187.369l.48-.233Zm-1.456-2.311c-.228-.288-.465-.561-.718-.829l-.389.369c.238.253.47.521.688.794ZM29.27,70.5c-.1-.081-.2-.162-.308-.243l-.212-.162-.106-.081c-.081-.056-.162-.116-.248-.172l-.3.445c.288.2.566.4.839.627l.334-.42Zm-2.3-1.482-.162-.076-.121-.056-.121-.056-.121-.051-.243-.1-.121-.046-.126-.046-.177.506h0l.233.091c.192.081.384.162.571.248l.157.076.233-.48Zm-2.6-.875-.162-.03-.126-.02-.126-.02-.126-.02-.126-.015-.126-.015-.126-.01L23.287,68l-.03.536.147.01.121.01.121.015.121.015.121.015.121.02.121.02.157.03.1-.526Zm-2.756-.106-.121.015-.131.02-.131.02-.131.02-.131.025-.131.025-.131.03-.187.046.137.516.172-.04.121-.025.121-.025.121-.025.121-.02.121-.02.121-.015.121-.015-.071-.531Zm-2.645.769-.162.081-.126.066-.126.066-.126.071-.121.071-.121.071L18,69.341l.293.45.167-.106.116-.071.116-.066.116-.066.116-.061.116-.061.157-.076-.233-.48Zm-2.281,1.537-.172.157-.116.111-.116.111-.111.116-.111.116-.152.167.4.359.142-.152.106-.111.106-.111L16.769,71l.111-.106.167-.152-.359-.394Zm-1.805,2.048-.111.157-.1.152-.1.152-.1.157-.1.157-.086.142.46.278.081-.137.1-.152.1-.152.1-.147.1-.147.106-.152-.44-.308Zm-1.406,2.316-.106.192-.142.263-.137.263-.121.238.475.243.121-.233.137-.258.137-.258.106-.192-.47-.253Zm-1.209,2.412-.061.137-.116.263-.111.263-.137.329.5.2.137-.324.111-.258.116-.258.061-.137-.491-.217Zm-1.011,2.508-.086.248-.091.263-.086.263-.081.253.511.162.081-.248.086-.258.086-.258.086-.248-.506-.177Zm-.789,2.584-.066.268-.061.258L10.281,83l-.061.268.526.106.056-.258.061-.253.061-.253.066-.263Zm-.8,5.345-.015.344-.005.258-.005.258v.223h.536v-.217l.005-.253.005-.253.015-.339-.536-.025Zm.02,2.711.01.192.02.253.02.253.025.253.015.126.531-.056-.01-.121-.025-.248-.02-.248-.02-.248-.01-.192-.536.035Zm.3,2.69.051.283.046.253.051.253.056.278.526-.116-.056-.268-.046-.248-.046-.248-.046-.278-.531.086Zm.582,2.645.04.142.071.248.071.248.076.248.046.152.511-.162-.046-.147-.076-.243-.071-.243L11.12,95.6l-.04-.142-.516.142Zm.834,2.574.111.288.1.243.1.243.1.228.5-.207-.091-.223-.1-.243-.1-.243-.106-.283-.5.192Zm1.067,2.483.116.238.121.243.121.243.126.248.47-.253-.126-.238-.121-.238-.116-.238-.116-.238-.48.238Zm1.274,2.382.152.253.142.238.147.238.121.192.455-.283-.121-.192-.142-.233-.142-.233-.147-.253-.46.273Zm1.451,2.276.233.339.167.233.223.308.43-.319-.217-.3-.162-.233-.233-.334-.44.3Zm1.6,2.169.207.258.187.228.288.349.41-.344-.283-.344-.182-.228-.2-.253-.42.334Zm1.735,2.063.223.248.207.228.3.324.389-.369-.293-.319-.2-.223-.217-.243-.4.359Zm1.846,1.962.3.3.223.223.243.233.369-.389-.238-.233-.223-.217-.3-.3-.379.379Zm1.942,1.866.212.2.243.217.344.308.354-.4-.339-.3-.238-.217-.212-.2-.359.4Zm2.023,1.775.435.364.394.324.339-.415-.389-.319-.435-.364-.344.41Zm2.094,1.689.475.369.379.283.319-.43-.374-.283-.475-.364-.329.425Zm2.154,1.608.293.212.288.207.293.207.3-.44-.288-.2-.288-.2-.293-.207-.314.435Zm2.21,1.532c.3.2.6.394.9.592l.293-.45-.435-.283-.455-.3-.3.445Zm2.255,1.461c.3.192.607.379.915.566l.278-.46-.531-.324-.379-.238-.283.455Zm2.3,1.391c.308.182.622.359.93.541l.268-.465c-.308-.177-.617-.354-.925-.536Zm2.336,1.33c.314.172.627.344.946.516l.253-.47c-.314-.167-.627-.339-.941-.511l-.258.47Zm2.367,1.269c.319.167.637.329.956.491l.243-.48c-.319-.162-.637-.324-.951-.491l-.248.475Zm2.4,1.214.966.47.233-.485c-.324-.157-.642-.308-.961-.47l-.238.48Zm2.422,1.158c.324.152.652.3.976.45l.223-.491c-.324-.147-.647-.3-.971-.445l-.228.485Zm2.448,1.107c.329.142.657.288.986.43l.212-.491c-.329-.142-.652-.283-.981-.43l-.212.491ZM49.8,129.97l.991.41.2-.5-.991-.41-.207.5Z" fill="#023046"/>
  </g>
</svg>
