<svg xmlns="http://www.w3.org/2000/svg" xmlns:xlink="http://www.w3.org/1999/xlink" width="117.947" height="86.442" viewBox="0 0 117.947 86.442">
  <defs>
    <linearGradient id="linear-gradient" x1="0.179" y1="1.033" x2="0.026" y2="0.759" gradientUnits="objectBoundingBox">
      <stop offset="0" stop-color="#aadbfa"/>
      <stop offset="1" stop-color="#75beeb"/>
    </linearGradient>
    <linearGradient id="linear-gradient-2" x1="0.062" y1="0.663" x2="0.092" y2="1.044" xlink:href="#linear-gradient"/>
    <linearGradient id="linear-gradient-3" x1="-0.009" y1="0.592" x2="0.066" y2="0.912" xlink:href="#linear-gradient"/>
    <linearGradient id="linear-gradient-4" x1="0.475" y1="0.727" x2="-0.135" y2="-0.01" gradientUnits="objectBoundingBox">
      <stop offset="0" stop-color="#aadbfa"/>
      <stop offset="0.361" stop-color="#aadbfa"/>
      <stop offset="1" stop-color="#7497ad"/>
    </linearGradient>
  </defs>
  <g id="Layer_x0020_1" transform="translate(0)">
    <g id="_2241618700112" transform="translate(54.765)">
      <path id="Path_2233" data-name="Path 2233" d="M255.63,24.953l9.728,6.566L303.11,0Z" transform="translate(-239.928)" fill-rule="evenodd" fill="url(#linear-gradient)"/>
      <path id="Path_2234" data-name="Path 2234" d="M198.67,14.938l9.723,6.211L261.851,0Z" transform="translate(-198.67)" fill-rule="evenodd" fill="url(#linear-gradient-2)"/>
      <path id="Path_2235" data-name="Path 2235" d="M233.94,76.72l4.055,12.785,1.924-8.981" transform="translate(-224.217 -55.571)" fill="none" fill-rule="evenodd"/>
      <path id="Path_2236" data-name="Path 2236" d="M233.94,21.149l4.055,12.785,1.924-8.981L287.4,0Z" transform="translate(-224.217)" fill-rule="evenodd" fill="url(#linear-gradient-3)"/>
      <path id="Path_2237" data-name="Path 2237" d="M250.574,90.52,248.65,99.5l7.487-5.227Z" transform="translate(-234.872 -65.567)" fill-rule="evenodd" fill="url(#linear-gradient-4)"/>
    </g>
    <path id="Path_2238" data-name="Path 2238" d="M67.972,123.331c.232-.174.466-.347.7-.518l-.256-.353c-.237.174-.471.347-.706.521ZM.317,175.141c.19-.2.378-.394.568-.59l-.314-.306-.3.309L0,174.841l.317.3ZM2.418,173c.207-.207.413-.411.62-.615l-.306-.311-.623.615Zm2.191-2.128c.212-.2.425-.4.637-.6l-.3-.32c-.212.2-.425.4-.637.6l.3.317ZM6.853,168.8c.215-.2.433-.389.651-.582l-.289-.328c-.218.193-.436.389-.651.584l.292.325Zm2.291-2.021c.221-.19.441-.378.664-.568l-.281-.334c-.223.19-.444.378-.664.568l.284.331Zm2.338-1.965c.226-.185.449-.369.675-.551l-.276-.339-.678.554.276.339Zm2.382-1.913c.229-.179.458-.358.689-.538l-.267-.347-.692.538.27.345Zm2.426-1.858.7-.521-.259-.353c-.234.174-.469.347-.7.524l.262.35Zm2.464-1.806.711-.5-.251-.358c-.24.168-.477.336-.714.507l.254.356Zm2.5-1.75.722-.491-.243-.364c-.243.163-.482.328-.725.491l.245.361Zm2.542-1.7c.243-.16.488-.317.733-.474l-.237-.367c-.245.157-.491.317-.736.477l.237.367Zm2.577-1.64c.248-.154.5-.306.744-.458l-.229-.372c-.248.152-.5.306-.744.46l.229.372Zm2.613-1.585c.251-.149.5-.295.753-.441l-.221-.378c-.254.146-.5.295-.755.444l.223.378Zm2.646-1.527c.254-.143.507-.284.764-.425l-.212-.383c-.256.141-.51.284-.766.427l.215.38Zm2.679-1.467c.256-.138.515-.273.772-.408l-.2-.389c-.259.135-.515.273-.775.408l.2.386Zm2.712-1.406c.259-.13.521-.262.78-.389l-.193-.391c-.262.13-.524.259-.783.391l.2.391Zm2.746-1.34c.262-.124.527-.248.791-.369l-.182-.4c-.265.121-.529.248-.794.372l.187.394Zm2.779-1.271c.267-.119.532-.234.8-.35l-.174-.4-.8.35.176.4Zm2.809-1.2.808-.328-.16-.405c-.27.108-.543.218-.813.328Zm2.842-1.114c.273-.1.546-.2.819-.3l-.149-.411c-.276.1-.549.2-.821.3l.152.411Zm2.878-1.02c.276-.094.551-.182.827-.273l-.132-.416-.832.273.138.413Zm2.911-.91c.278-.08.56-.16.838-.237l-.116-.422q-.422.116-.844.24Zm2.947-.775c.284-.066.565-.13.849-.19l-.091-.427c-.287.061-.571.127-.857.193l.1.427Zm2.985-.6c.287-.047.573-.088.86-.127l-.055-.433c-.289.039-.582.08-.871.127l.069.433Zm3.016-.32.425-.014.281,0H63.8l.008-.438h-.165c-.146,0-.292,0-.436.006l-.284.011.014.436Zm3,.182.3.05.259.047.287.055.091-.427-.3-.058-.265-.047-.309-.052Zm2.936.706.2.069.209.074.207.077.2.077.163-.405-.2-.08-.212-.08-.215-.077-.2-.069-.143.413Zm2.721,1.265.069.041.157.1.154.1.149.107.174.13.27-.345-.033-.025-.154-.113-.157-.11-.16-.11-.163-.108-.069-.041-.237.367Zm2.23,1.965.036.044.1.13.1.13.094.132.091.132.083.127.369-.234-.085-.132-.094-.141-.1-.138-.1-.138-.1-.135-.036-.044-.345.27Zm1.378,2.619.019.063.041.149.039.149.036.149.033.152.033.163.43-.077-.036-.179-.036-.16-.039-.157-.041-.157-.044-.157-.019-.063-.419.124Zm.358,2.952-.008.2-.011.16-.014.16-.017.16-.019.176.433.058.022-.19.017-.165.014-.165.011-.165.011-.2-.436-.019Zm-.524,2.947L75,152.38l-.052.157-.055.157-.055.157-.083.218.408.16.025-.066.061-.163.058-.163.055-.163.055-.163.039-.121-.416-.135Zm-1.2,2.757-.083.143-.088.149-.088.146-.091.146-.1.154.364.243.1-.163.094-.152.091-.152.091-.152.083-.143-.378-.221ZM72.1,157.474l-.055.063-.116.13-.116.127-.119.127-.119.124-.061.063.312.306.066-.066.121-.13.121-.13.119-.132.119-.132.055-.063-.328-.289ZM69.9,159.534l-.132.1-.138.1-.138.1-.141.1-.154.1.237.367.163-.11.143-.1.143-.1.143-.1.132-.1-.259-.353Zm-2.591,1.519-.168.072-.154.061-.154.061-.154.058-.165.058.135.416.176-.061.163-.058.16-.061.16-.063.174-.074-.171-.4Zm-2.881.775-.154.017-.163.014-.165.011-.165.008-.207.005,0,.438h.05l.174-.005.174-.008.171-.011.171-.014.154-.017-.041-.436Zm-2.974-.157-.174-.041-.168-.041-.168-.047-.168-.05-.146-.047-.135.416.154.047.176.052.176.047.176.044.182.041.1-.427Zm-2.77-1.1-.094-.052-.168-.1-.168-.1-.168-.11-.132-.088-.248.358.138.094.174.113.174.11.174.1.094.052.223-.375Zm-2.39-1.819-.185-.179-.163-.163-.163-.168-.1-.1-.323.3.1.108.165.174.168.168.19.185.3-.314Zm-1.979-2.277-.119-.163-.154-.218-.154-.223-.069-.1-.367.24.074.11.157.229.157.223.119.163.356-.256ZM52.8,153.885c-.113-.265-.215-.529-.311-.8v0l-.413.141c.1.278.207.56.323.83ZM51.956,151q-.07-.426-.116-.852l-.436.044c.03.295.072.587.119.879l.433-.069Zm-.185-3c.011-.289.03-.573.055-.863l-.436-.039c-.025.295-.044.587-.055.882Zm.369-3c.058-.284.121-.565.193-.844l-.425-.108c-.072.287-.135.573-.2.86Zm.813-2.919c.094-.273.2-.543.3-.813l-.408-.16c-.1.273-.21.549-.306.827Zm1.163-2.8c.127-.262.254-.521.386-.777l-.389-.2c-.135.262-.265.524-.391.788Zm1.444-2.674c.149-.248.3-.493.458-.739l-.369-.234c-.157.248-.312.5-.463.747Zm1.673-2.539c.168-.234.342-.469.515-.7l-.35-.265c-.176.234-.35.471-.521.708Zm1.863-2.407c.185-.223.372-.444.562-.664l-.331-.287c-.193.221-.38.444-.568.67Zm2.023-2.274c.2-.21.4-.419.606-.626l-.312-.306c-.2.21-.408.419-.609.631l.317.3Zm2.164-2.145c.212-.2.425-.394.64-.59l-.292-.325q-.327.294-.645.6l.3.32Zm2.282-2.018c.223-.187.447-.372.673-.554l-.276-.339c-.226.185-.452.369-.678.557l.278.336Z" transform="translate(0 -88.703)" fill="#0c1c26"/>
  </g>
</svg>
