<svg xmlns="http://www.w3.org/2000/svg" width="375.19" height="213.229" viewBox="0 0 375.19 213.229">
  <g id="Layer_x0020_1" transform="translate(0 -0.02)">
    <g id="_1612790702384" transform="translate(0 0.02)">
      <path id="Path_2243" data-name="Path 2243" d="M235.2,2527.649l-89.131,50.46H501.448L377.157,2527.22Z" transform="translate(-136.695 -2365.02)" fill="#cee4ed"/>
      <path id="Path_2244" data-name="Path 2244" d="M112.307,2592.083a.408.408,0,1,1,.4.711l-81.058,45.355a.408.408,0,1,1-.4-.711Z" transform="translate(-29.049 -2425.671)" fill="#59221d"/>
      <path id="Path_2245" data-name="Path 2245" d="M4269.8,2695a.406.406,0,0,1-.3.755L4163.428,2653.6a.406.406,0,1,1,.3-.755Z" transform="translate(-3895.971 -2482.551)" fill="#0c3e5e"/>
      <path id="Path_2246" data-name="Path 2246" d="M3622,550.389v62.265H3494.68v-85.7a5.9,5.9,0,0,1,5.9-5.9h26.243V488.12h53.106v62.265l42.07,0Z" transform="translate(-3270.385 -456.793)" fill="#cee4ed"/>
      <rect id="Rectangle_2129" data-name="Rectangle 2129" width="2.348" height="2.348" transform="translate(236.199 85.3)" fill="#fff"/>
      <rect id="Rectangle_2130" data-name="Rectangle 2130" width="2.348" height="2.348" transform="translate(239.666 85.3)" fill="#fff"/>
      <rect id="Rectangle_2131" data-name="Rectangle 2131" width="2.348" height="2.348" transform="translate(236.199 88.639)" fill="#fff"/>
      <rect id="Rectangle_2132" data-name="Rectangle 2132" width="2.348" height="2.348" transform="translate(239.666 88.639)" fill="#fff"/>
      <rect id="Rectangle_2133" data-name="Rectangle 2133" width="2.348" height="2.348" transform="translate(248.865 85.3)" fill="#1da1f3"/>
      <rect id="Rectangle_2134" data-name="Rectangle 2134" width="2.348" height="2.348" transform="translate(252.333 85.3)" fill="#1da1f3"/>
      <rect id="Rectangle_2135" data-name="Rectangle 2135" width="2.348" height="2.348" transform="translate(248.865 88.639)" fill="#1da1f3"/>
      <rect id="Rectangle_2136" data-name="Rectangle 2136" width="2.348" height="2.348" transform="translate(252.333 88.639)" fill="#1da1f3"/>
      <rect id="Rectangle_2137" data-name="Rectangle 2137" width="2.348" height="2.348" transform="translate(248.865 96.999)" fill="#fff"/>
      <rect id="Rectangle_2138" data-name="Rectangle 2138" width="2.348" height="2.348" transform="translate(252.333 96.999)" fill="#fff"/>
      <rect id="Rectangle_2139" data-name="Rectangle 2139" width="2.348" height="2.348" transform="translate(248.865 100.339)" fill="#fff"/>
      <rect id="Rectangle_2140" data-name="Rectangle 2140" width="2.348" height="2.348" transform="translate(252.333 100.339)" fill="#fff"/>
      <rect id="Rectangle_2141" data-name="Rectangle 2141" width="2.348" height="2.348" transform="translate(236.199 72.439)" fill="#fff"/>
      <rect id="Rectangle_2142" data-name="Rectangle 2142" width="2.348" height="2.348" transform="translate(239.666 72.439)" fill="#fff"/>
      <rect id="Rectangle_2143" data-name="Rectangle 2143" width="2.348" height="2.348" transform="translate(236.199 75.779)" fill="#fff"/>
      <rect id="Rectangle_2144" data-name="Rectangle 2144" width="2.348" height="2.348" transform="translate(239.666 75.779)" fill="#fff"/>
      <rect id="Rectangle_2145" data-name="Rectangle 2145" width="15.479" height="62.269" transform="translate(309.546 31.326)" fill="#98c8db"/>
      <path id="Path_2247" data-name="Path 2247" d="M4822.96,1403.97h42.07v.979h-42.07Z" transform="translate(-4513.414 -1313.862)" fill="#cee4ed"/>
      <circle id="Ellipse_502" data-name="Ellipse 502" cx="0.601" cy="0.601" r="0.601" transform="translate(328.991 105.242)" fill="#fff"/>
      <circle id="Ellipse_503" data-name="Ellipse 503" cx="0.601" cy="0.601" r="0.601" transform="translate(325.021 105.242)" fill="#fff"/>
      <circle id="Ellipse_504" data-name="Ellipse 504" cx="0.601" cy="0.601" r="0.601" transform="translate(332.961 105.242)" fill="#fff"/>
      <circle id="Ellipse_505" data-name="Ellipse 505" cx="0.601" cy="0.601" r="0.601" transform="translate(336.931 105.242)" fill="#fff"/>
      <circle id="Ellipse_506" data-name="Ellipse 506" cx="0.601" cy="0.601" r="0.601" transform="translate(340.902 105.242)" fill="#fff"/>
      <circle id="Ellipse_507" data-name="Ellipse 507" cx="0.601" cy="0.601" r="0.601" transform="translate(344.871 105.242)" fill="#fff"/>
      <circle id="Ellipse_508" data-name="Ellipse 508" cx="0.601" cy="0.601" r="0.601" transform="translate(328.991 101.722)" fill="#fff"/>
      <circle id="Ellipse_509" data-name="Ellipse 509" cx="0.601" cy="0.601" r="0.601" transform="translate(325.021 101.722)" fill="#fff"/>
      <circle id="Ellipse_510" data-name="Ellipse 510" cx="0.601" cy="0.601" r="0.601" transform="translate(332.961 101.722)" fill="#fff"/>
      <circle id="Ellipse_511" data-name="Ellipse 511" cx="0.601" cy="0.601" r="0.601" transform="translate(336.931 101.722)" fill="#fff"/>
      <circle id="Ellipse_512" data-name="Ellipse 512" cx="0.601" cy="0.601" r="0.601" transform="translate(340.902 101.722)" fill="#fff"/>
      <circle id="Ellipse_513" data-name="Ellipse 513" cx="0.601" cy="0.601" r="0.601" transform="translate(344.871 101.722)" fill="#fff"/>
      <circle id="Ellipse_514" data-name="Ellipse 514" cx="0.601" cy="0.601" r="0.601" transform="translate(328.991 108.762)" fill="#fff"/>
      <circle id="Ellipse_515" data-name="Ellipse 515" cx="0.601" cy="0.601" r="0.601" transform="translate(325.021 108.762)" fill="#fff"/>
      <circle id="Ellipse_516" data-name="Ellipse 516" cx="0.601" cy="0.601" r="0.601" transform="translate(332.961 108.762)" fill="#fff"/>
      <circle id="Ellipse_517" data-name="Ellipse 517" cx="0.601" cy="0.601" r="0.601" transform="translate(336.931 108.762)" fill="#fff"/>
      <circle id="Ellipse_518" data-name="Ellipse 518" cx="0.601" cy="0.601" r="0.601" transform="translate(340.902 108.762)" fill="#fff"/>
      <circle id="Ellipse_519" data-name="Ellipse 519" cx="0.601" cy="0.601" r="0.601" transform="translate(344.871 108.762)" fill="#fff"/>
      <circle id="Ellipse_520" data-name="Ellipse 520" cx="0.601" cy="0.601" r="0.601" transform="translate(325.021 112.284)" fill="#fff"/>
      <circle id="Ellipse_521" data-name="Ellipse 521" cx="0.601" cy="0.601" r="0.601" transform="translate(328.991 112.284)" fill="#fff"/>
      <circle id="Ellipse_522" data-name="Ellipse 522" cx="0.601" cy="0.601" r="0.601" transform="translate(332.961 112.284)" fill="#fff"/>
      <circle id="Ellipse_523" data-name="Ellipse 523" cx="0.601" cy="0.601" r="0.601" transform="translate(336.931 112.284)" fill="#fff"/>
      <circle id="Ellipse_524" data-name="Ellipse 524" cx="0.601" cy="0.601" r="0.601" transform="translate(340.902 112.284)" fill="#fff"/>
      <circle id="Ellipse_525" data-name="Ellipse 525" cx="0.601" cy="0.601" r="0.601" transform="translate(344.871 112.284)" fill="#fff"/>
      <circle id="Ellipse_526" data-name="Ellipse 526" cx="0.601" cy="0.601" r="0.601" transform="translate(328.991 115.862)" fill="#fff"/>
      <circle id="Ellipse_527" data-name="Ellipse 527" cx="0.601" cy="0.601" r="0.601" transform="translate(325.021 115.862)" fill="#fff"/>
      <circle id="Ellipse_528" data-name="Ellipse 528" cx="0.601" cy="0.601" r="0.601" transform="translate(332.961 115.862)" fill="#fff"/>
      <circle id="Ellipse_529" data-name="Ellipse 529" cx="0.601" cy="0.601" r="0.601" transform="translate(336.931 115.862)" fill="#fff"/>
      <circle id="Ellipse_530" data-name="Ellipse 530" cx="0.601" cy="0.601" r="0.601" transform="translate(340.902 115.862)" fill="#fff"/>
      <circle id="Ellipse_531" data-name="Ellipse 531" cx="0.601" cy="0.601" r="0.601" transform="translate(344.871 115.862)" fill="#fff"/>
      <circle id="Ellipse_532" data-name="Ellipse 532" cx="0.601" cy="0.601" r="0.601" transform="translate(328.991 119.383)" fill="#fff"/>
      <circle id="Ellipse_533" data-name="Ellipse 533" cx="0.601" cy="0.601" r="0.601" transform="translate(325.021 119.383)" fill="#fff"/>
      <circle id="Ellipse_534" data-name="Ellipse 534" cx="0.601" cy="0.601" r="0.601" transform="translate(332.961 119.383)" fill="#fff"/>
      <circle id="Ellipse_535" data-name="Ellipse 535" cx="0.601" cy="0.601" r="0.601" transform="translate(336.931 119.383)" fill="#fff"/>
      <circle id="Ellipse_536" data-name="Ellipse 536" cx="0.601" cy="0.601" r="0.601" transform="translate(340.902 119.383)" fill="#fff"/>
      <circle id="Ellipse_537" data-name="Ellipse 537" cx="0.601" cy="0.601" r="0.601" transform="translate(344.871 119.383)" fill="#fff"/>
      <circle id="Ellipse_538" data-name="Ellipse 538" cx="0.601" cy="0.601" r="0.601" transform="translate(325.021 122.904)" fill="#fff"/>
      <circle id="Ellipse_539" data-name="Ellipse 539" cx="0.601" cy="0.601" r="0.601" transform="translate(328.991 122.904)" fill="#fff"/>
      <circle id="Ellipse_540" data-name="Ellipse 540" cx="0.601" cy="0.601" r="0.601" transform="translate(332.961 122.904)" fill="#fff"/>
      <circle id="Ellipse_541" data-name="Ellipse 541" cx="0.601" cy="0.601" r="0.601" transform="translate(336.931 122.904)" fill="#fff"/>
      <circle id="Ellipse_542" data-name="Ellipse 542" cx="0.601" cy="0.601" r="0.601" transform="translate(340.902 122.904)" fill="#fff"/>
      <circle id="Ellipse_543" data-name="Ellipse 543" cx="0.601" cy="0.601" r="0.601" transform="translate(344.871 122.904)" fill="#fff"/>
      <circle id="Ellipse_544" data-name="Ellipse 544" cx="0.601" cy="0.601" r="0.601" transform="translate(313.139 105.242)" fill="#fff"/>
      <circle id="Ellipse_545" data-name="Ellipse 545" cx="0.601" cy="0.601" r="0.601" transform="translate(317.109 105.242)" fill="#fff"/>
      <circle id="Ellipse_546" data-name="Ellipse 546" cx="0.601" cy="0.601" r="0.601" transform="translate(321.08 105.242)" fill="#fff"/>
      <circle id="Ellipse_547" data-name="Ellipse 547" cx="0.601" cy="0.601" r="0.601" transform="translate(313.139 101.722)" fill="#fff"/>
      <circle id="Ellipse_548" data-name="Ellipse 548" cx="0.601" cy="0.601" r="0.601" transform="translate(317.109 101.722)" fill="#fff"/>
      <circle id="Ellipse_549" data-name="Ellipse 549" cx="0.601" cy="0.601" r="0.601" transform="translate(321.08 101.722)" fill="#fff"/>
      <circle id="Ellipse_550" data-name="Ellipse 550" cx="0.601" cy="0.601" r="0.601" transform="translate(313.139 108.762)" fill="#fff"/>
      <circle id="Ellipse_551" data-name="Ellipse 551" cx="0.601" cy="0.601" r="0.601" transform="translate(317.109 108.762)" fill="#fff"/>
      <circle id="Ellipse_552" data-name="Ellipse 552" cx="0.601" cy="0.601" r="0.601" transform="translate(321.08 108.762)" fill="#fff"/>
      <circle id="Ellipse_553" data-name="Ellipse 553" cx="0.601" cy="0.601" r="0.601" transform="translate(313.139 112.284)" fill="#fff"/>
      <circle id="Ellipse_554" data-name="Ellipse 554" cx="0.601" cy="0.601" r="0.601" transform="translate(317.109 112.284)" fill="#fff"/>
      <circle id="Ellipse_555" data-name="Ellipse 555" cx="0.601" cy="0.601" r="0.601" transform="translate(321.08 112.284)" fill="#fff"/>
      <circle id="Ellipse_556" data-name="Ellipse 556" cx="0.601" cy="0.601" r="0.601" transform="translate(313.139 115.862)" fill="#fff"/>
      <circle id="Ellipse_557" data-name="Ellipse 557" cx="0.601" cy="0.601" r="0.601" transform="translate(317.109 115.862)" fill="#fff"/>
      <circle id="Ellipse_558" data-name="Ellipse 558" cx="0.601" cy="0.601" r="0.601" transform="translate(321.08 115.862)" fill="#fff"/>
      <circle id="Ellipse_559" data-name="Ellipse 559" cx="0.601" cy="0.601" r="0.601" transform="translate(313.139 119.383)" fill="#fff"/>
      <circle id="Ellipse_560" data-name="Ellipse 560" cx="0.601" cy="0.601" r="0.601" transform="translate(317.109 119.383)" fill="#fff"/>
      <circle id="Ellipse_561" data-name="Ellipse 561" cx="0.601" cy="0.601" r="0.601" transform="translate(321.08 119.383)" fill="#fff"/>
      <circle id="Ellipse_562" data-name="Ellipse 562" cx="0.601" cy="0.601" r="0.601" transform="translate(313.139 122.904)" fill="#fff"/>
      <circle id="Ellipse_563" data-name="Ellipse 563" cx="0.601" cy="0.601" r="0.601" transform="translate(317.109 122.904)" fill="#fff"/>
      <circle id="Ellipse_564" data-name="Ellipse 564" cx="0.601" cy="0.601" r="0.601" transform="translate(321.08 122.904)" fill="#fff"/>
      <path id="Path_2248" data-name="Path 2248" d="M557.536,1437.361,521.753,1456.7l-.463-.861,35.783-19.339Z" transform="translate(-487.833 -1344.304)" fill="#cee4ed"/>
      <path id="Path_2249" data-name="Path 2249" d="M637.4,820.881V931.146H524.9V883.161l35.783-19.336V843.481a5.009,5.009,0,0,1,5.008-5.008h40.6V820.88H637.4Z" transform="translate(-491.211 -768.196)" fill="#cee4ed"/>
      <circle id="Ellipse_565" data-name="Ellipse 565" cx="0.601" cy="0.601" r="0.601" transform="translate(124.078 62.288)" fill="#fff"/>
      <circle id="Ellipse_566" data-name="Ellipse 566" cx="0.601" cy="0.601" r="0.601" transform="translate(120.107 62.288)" fill="#fff"/>
      <circle id="Ellipse_567" data-name="Ellipse 567" cx="0.601" cy="0.601" r="0.601" transform="translate(128.047 62.288)" fill="#fff"/>
      <circle id="Ellipse_568" data-name="Ellipse 568" cx="0.601" cy="0.601" r="0.601" transform="translate(132.017 62.288)" fill="#fff"/>
      <circle id="Ellipse_569" data-name="Ellipse 569" cx="0.601" cy="0.601" r="0.601" transform="translate(135.988 62.288)" fill="#fff"/>
      <circle id="Ellipse_570" data-name="Ellipse 570" cx="0.601" cy="0.601" r="0.601" transform="translate(139.958 62.288)" fill="#fff"/>
      <circle id="Ellipse_571" data-name="Ellipse 571" cx="0.601" cy="0.601" r="0.601" transform="translate(124.078 58.768)" fill="#fff"/>
      <circle id="Ellipse_572" data-name="Ellipse 572" cx="0.601" cy="0.601" r="0.601" transform="translate(120.107 58.768)" fill="#fff"/>
      <circle id="Ellipse_573" data-name="Ellipse 573" cx="0.601" cy="0.601" r="0.601" transform="translate(128.047 58.768)" fill="#fff"/>
      <circle id="Ellipse_574" data-name="Ellipse 574" cx="0.601" cy="0.601" r="0.601" transform="translate(132.017 58.768)" fill="#fff"/>
      <circle id="Ellipse_575" data-name="Ellipse 575" cx="0.601" cy="0.601" r="0.601" transform="translate(135.988 58.768)" fill="#fff"/>
      <circle id="Ellipse_576" data-name="Ellipse 576" cx="0.601" cy="0.601" r="0.601" transform="translate(139.958 58.768)" fill="#fff"/>
      <circle id="Ellipse_577" data-name="Ellipse 577" cx="0.601" cy="0.601" r="0.601" transform="translate(124.078 65.81)" fill="#fff"/>
      <circle id="Ellipse_578" data-name="Ellipse 578" cx="0.601" cy="0.601" r="0.601" transform="translate(120.107 65.81)" fill="#fff"/>
      <circle id="Ellipse_579" data-name="Ellipse 579" cx="0.601" cy="0.601" r="0.601" transform="translate(128.047 65.81)" fill="#fff"/>
      <circle id="Ellipse_580" data-name="Ellipse 580" cx="0.601" cy="0.601" r="0.601" transform="translate(132.017 65.81)" fill="#fff"/>
      <circle id="Ellipse_581" data-name="Ellipse 581" cx="0.601" cy="0.601" r="0.601" transform="translate(135.988 65.81)" fill="#fff"/>
      <circle id="Ellipse_582" data-name="Ellipse 582" cx="0.601" cy="0.601" r="0.601" transform="translate(139.958 65.81)" fill="#fff"/>
      <circle id="Ellipse_583" data-name="Ellipse 583" cx="0.601" cy="0.601" r="0.601" transform="translate(120.107 69.33)" fill="#fff"/>
      <circle id="Ellipse_584" data-name="Ellipse 584" cx="0.601" cy="0.601" r="0.601" transform="translate(124.078 69.33)" fill="#fff"/>
      <circle id="Ellipse_585" data-name="Ellipse 585" cx="0.601" cy="0.601" r="0.601" transform="translate(128.047 69.33)" fill="#fff"/>
      <circle id="Ellipse_586" data-name="Ellipse 586" cx="0.601" cy="0.601" r="0.601" transform="translate(132.017 69.33)" fill="#fff"/>
      <circle id="Ellipse_587" data-name="Ellipse 587" cx="0.601" cy="0.601" r="0.601" transform="translate(135.988 69.33)" fill="#fff"/>
      <circle id="Ellipse_588" data-name="Ellipse 588" cx="0.601" cy="0.601" r="0.601" transform="translate(139.958 69.33)" fill="#fff"/>
      <path id="Path_2250" data-name="Path 2250" d="M1788.18,783.42H1819.6v.979H1788.18Z" transform="translate(-1673.411 -733.14)" fill="#cee4ed"/>
      <rect id="Rectangle_2146" data-name="Rectangle 2146" width="2.348" height="2.348" transform="translate(47.869 114.644)" fill="#fff"/>
      <rect id="Rectangle_2147" data-name="Rectangle 2147" width="2.348" height="2.348" transform="translate(51.337 114.644)" fill="#fff"/>
      <rect id="Rectangle_2148" data-name="Rectangle 2148" width="2.348" height="2.348" transform="translate(47.869 117.983)" fill="#fff"/>
      <rect id="Rectangle_2149" data-name="Rectangle 2149" width="2.348" height="2.348" transform="translate(51.337 117.983)" fill="#fff"/>
      <rect id="Rectangle_2150" data-name="Rectangle 2150" width="2.348" height="2.348" transform="translate(47.869 126.779)" fill="#fff"/>
      <rect id="Rectangle_2151" data-name="Rectangle 2151" width="2.348" height="2.348" transform="translate(51.337 126.779)" fill="#fff"/>
      <rect id="Rectangle_2152" data-name="Rectangle 2152" width="2.348" height="2.348" transform="translate(47.869 130.118)" fill="#fff"/>
      <rect id="Rectangle_2153" data-name="Rectangle 2153" width="2.348" height="2.348" transform="translate(51.337 130.118)" fill="#fff"/>
      <rect id="Rectangle_2154" data-name="Rectangle 2154" width="2.348" height="2.348" transform="translate(65.563 114.644)" fill="#1da1f3"/>
      <rect id="Rectangle_2155" data-name="Rectangle 2155" width="2.348" height="2.348" transform="translate(69.031 114.644)" fill="#1da1f3"/>
      <rect id="Rectangle_2156" data-name="Rectangle 2156" width="2.348" height="2.348" transform="translate(65.563 117.983)" fill="#1da1f3"/>
      <rect id="Rectangle_2157" data-name="Rectangle 2157" width="2.348" height="2.348" transform="translate(69.031 117.983)" fill="#1da1f3"/>
      <path id="Path_2251" data-name="Path 2251" d="M1398.573,1220.353v74.813a5.145,5.145,0,0,1-5.144,5.144h-60.955a5.145,5.145,0,0,1-5.144-5.144v-74.812a5.145,5.145,0,0,1,5.144-5.144h60.955a5.145,5.145,0,0,1,5.144,5.144h0Z" transform="translate(-1242.14 -1137.217)" fill="#a1d7fa"/>
      <path id="Path_2252" data-name="Path 2252" d="M1419.608,1389.3v35.737l-3.733,4.142a14.73,14.73,0,0,1-10.937,4.866h-38.809a14.731,14.731,0,0,1-10.936-4.866l-3.732-4.142V1389.3a3.465,3.465,0,0,1,3.464-3.464h61.22a3.465,3.465,0,0,1,3.464,3.464h0Z" transform="translate(-1264.721 -1296.895)" fill="#90bdd1"/>
      <path id="Path_2253" data-name="Path 2253" d="M1687.607,1258.24h22.532a1.317,1.317,0,0,1,1.317,1.317v1.2a1.317,1.317,0,0,1-1.317,1.317h-22.532a1.317,1.317,0,0,1-1.317-1.317v-1.2A1.317,1.317,0,0,1,1687.607,1258.24Z" transform="translate(-1578.061 -1177.485)" fill="#fff"/>
      <path id="Path_2254" data-name="Path 2254" d="M1423.61,2541.12h11v6.386a2.894,2.894,0,0,1-2.894,2.894h-5.208a2.894,2.894,0,0,1-2.894-2.894v-6.386Z" transform="translate(-1332.24 -2378.027)" fill="#0a324d"/>
      <path id="Path_2255" data-name="Path 2255" d="M1423.61,2542.414v-1.294H1434.6v3.228Z" transform="translate(-1332.24 -2378.027)" fill="#1a0c12"/>
      <path id="Path_2256" data-name="Path 2256" d="M2163.29,2541.12h11v6.386a2.894,2.894,0,0,1-2.894,2.894h-5.21a2.894,2.894,0,0,1-2.894-2.894v-6.386Z" transform="translate(-2024.446 -2378.027)" fill="#59221d"/>
      <path id="Path_2257" data-name="Path 2257" d="M2163.29,2542.414v-1.294h11v3.228Z" transform="translate(-2024.446 -2378.027)" fill="#1a0c12"/>
      <path id="Path_2258" data-name="Path 2258" d="M1719.87,1717.767v-1.525a1.256,1.256,0,0,1,1.252-1.252h.59a1.255,1.255,0,0,1,1.252,1.252v1.525a1.256,1.256,0,0,1-1.252,1.252h-.59a1.256,1.256,0,0,1-1.252-1.252Z" transform="translate(-1609.486 -1604.92)" fill="#0c3e5e"/>
      <path id="Path_2259" data-name="Path 2259" d="M1409.5,1634.245H1419.6v14.418l-3.732,4.141a14.726,14.726,0,0,1-9.435,4.789v.077h-40.311a14.73,14.73,0,0,1-10.937-4.866l-3.732-4.141v-14.1a5.933,5.933,0,0,1,5.223-.673c1.658.723,1.051-3.009,3.685-3.6,1.762-.4,2.273.866,3.548.258.869-.414,1.361-1.951,2.958-1.951a1.265,1.265,0,0,1,1.361.929l.253,1.927a.584.584,0,0,1,.008.1.633.633,0,0,1-.376.578,1.458,1.458,0,0,1-.6.129c-.036,0-.072,0-.109,0v2.175l-.028.01h2.726a5.337,5.337,0,0,1,5.329,5.056h2.712l1.419-2.68v-.746a1.632,1.632,0,0,1,1.756-1.473h.613a1.252,1.252,0,0,1,1.347,1.129v1.7a1,1,0,0,1-.862.922l.009,1.153h3.991v-3.311a4.77,4.77,0,0,1,4.769-4.769h2.879V1629.8h-.364a1.2,1.2,0,0,1-1.2-1.2v-.2h-.252a.17.17,0,0,1-.17-.17.173.173,0,0,1,.012-.062l.671-2h0a.906.906,0,0,1-.045-.183,1.108,1.108,0,0,1,1.028-1.167,1.146,1.146,0,0,1,1.258.668.8.8,0,0,1,.266-.089.964.964,0,0,1,1.029.887,1.065,1.065,0,0,1,.011.156,1.1,1.1,0,0,1-.114.488l.532,1.064,1.8,3.432h3.135a4.772,4.772,0,0,1,4.671,3.8,5.668,5.668,0,0,1,3.168-.97h.006Z" transform="translate(-1264.711 -1520.516)" fill="#0c3e5e"/>
      <path id="Path_2260" data-name="Path 2260" d="M1400.78,1652.57v-1.611a1.213,1.213,0,0,1,1.209-1.209h.678a1.213,1.213,0,0,1,1.209,1.209v1.611a1.212,1.212,0,0,1-1.209,1.21h-.678a1.213,1.213,0,0,1-1.209-1.21Z" transform="translate(-1310.875 -1543.867)" fill="#0c3e5e"/>
      <path id="Path_2261" data-name="Path 2261" d="M2193.837,1661.31h.662a1.217,1.217,0,0,1,1.217,1.217v1.6a1.217,1.217,0,0,1-1.217,1.217h-.662a1.217,1.217,0,0,1-1.217-1.217v-1.6A1.217,1.217,0,0,1,2193.837,1661.31Z" transform="translate(-2051.894 -1554.685)" fill="#0c3e5e"/>
      <path id="Path_2262" data-name="Path 2262" d="M1216.231,1514.64h3.385a.872.872,0,0,1,.871.871v7.644a.871.871,0,0,1-.871.871h-4.257v-8.515a.871.871,0,0,1,.871-.871Z" transform="translate(-1137.356 -1417.429)" fill="#90bdd1"/>
      <path id="Path_2263" data-name="Path 2263" d="M1219.571,1474.777h-4.687a1.889,1.889,0,0,0-1.888,1.888v9.289h-.816v-9.289a2.7,2.7,0,0,1,2.7-2.7h4.687v.817Z" transform="translate(-1134.38 -1379.36)" fill="#0c3e5e"/>
      <path id="Path_2264" data-name="Path 2264" d="M2474.548,1524.026h-4.257a.871.871,0,0,1-.871-.871v-7.644a.871.871,0,0,1,.871-.871h3.386a.871.871,0,0,1,.871.871Z" transform="translate(-2310.928 -1417.429)" fill="#90bdd1"/>
      <path id="Path_2265" data-name="Path 2265" d="M2437.35,1473.96h4.686a2.7,2.7,0,0,1,2.7,2.7v9.289h-.816v-9.289a1.889,1.889,0,0,0-1.888-1.888h-4.686Z" transform="translate(-2280.917 -1379.36)" fill="#0c3e5e"/>
      <path id="Path_2266" data-name="Path 2266" d="M1339.352,2313.728H1327.34v-3.948h9.21a2.5,2.5,0,0,1,1.965.957l1.419,1.8a.734.734,0,0,1-.578,1.187h0Z" transform="translate(-1242.149 -2161.536)" fill="#fff"/>
      <path id="Path_2267" data-name="Path 2267" d="M1351.149,2391.98h3.1a.8.8,0,0,1,.8.8v.917a.8.8,0,0,1-.8.8h-3.1a.8.8,0,0,1-.8-.8v-.917A.8.8,0,0,1,1351.149,2391.98Z" transform="translate(-1263.682 -2238.459)" fill="#0a324d"/>
      <path id="Path_2268" data-name="Path 2268" d="M1447.986,2391.271a.577.577,0,0,0-.983-.409h0a.574.574,0,0,0,0,.813v0a.577.577,0,0,0,.983-.409Zm.409-.984a1.391,1.391,0,1,1-1.967,1.967h0a1.392,1.392,0,0,1,0-1.968h0a1.39,1.39,0,0,1,1.967,0Z" transform="translate(-1353.212 -2236.494)" fill="#fff"/>
      <path id="Path_2269" data-name="Path 2269" d="M2239.474,2313.728h12.012v-3.948h-9.209a2.5,2.5,0,0,0-1.966.957l-1.414,1.8a.734.734,0,0,0,.577,1.187Z" transform="translate(-2095.054 -2161.536)" fill="#fff"/>
      <path id="Path_2270" data-name="Path 2270" d="M2344.974,2394.494h-3.105a.8.8,0,0,1-.8-.8v-.917a.8.8,0,0,1,.8-.8h3.105a.8.8,0,0,1,.8.8v.917A.8.8,0,0,1,2344.974,2394.494Z" transform="translate(-2190.816 -2238.459)" fill="#ffb600"/>
      <path id="Path_2271" data-name="Path 2271" d="M2277.276,2391.271a.577.577,0,0,0-.983-.409h0a.575.575,0,0,0,0,.813v0a.577.577,0,0,0,.983-.409Zm.409-.984a1.391,1.391,0,1,1-1.967,1.967h0a1.391,1.391,0,0,1,0-1.968h0a1.39,1.39,0,0,1,1.967,0Z" transform="translate(-2129.276 -2236.494)" fill="#fff"/>
      <path id="Path_2272" data-name="Path 2272" d="M2167.568,1518.974a.407.407,0,1,1-.565-.587l8.341-8.006a.407.407,0,1,1,.565.587Z" transform="translate(-2027.804 -1413.337)" fill="#fff"/>
      <path id="Path_2273" data-name="Path 2273" d="M2104.577,1668.214a.407.407,0,1,1-.565-.587l2-1.916a.407.407,0,1,1,.565.587Z" transform="translate(-1968.856 -1558.698)" fill="#fff"/>
      <path id="Path_2274" data-name="Path 2274" d="M1821.387,1776.433a.407.407,0,0,1-.565-.587l13.686-13.135a.407.407,0,1,1,.565.587Z" transform="translate(-1703.842 -1649.472)" fill="#fff"/>
      <path id="Path_2275" data-name="Path 2275" d="M1998.337,1621.243a.407.407,0,1,1-.565-.587l6.757-6.485a.407.407,0,0,1,.565.587Z" transform="translate(-1869.435 -1510.466)" fill="#fff"/>
      <path id="Path_2276" data-name="Path 2276" d="M1650.077,1773.287a.407.407,0,0,1-.565-.587l19.776-18.978a.407.407,0,0,1,.565.587Z" transform="translate(-1543.527 -1641.059)" fill="#fff"/>
      <path id="Path_2277" data-name="Path 2277" d="M1414.091,1383.363V1419.1a.406.406,0,0,1-.121.289l-3.718,4.125a15.15,15.15,0,0,1-11.24,5H1360.2a15.148,15.148,0,0,1-11.238-5l-3.732-4.142a.411.411,0,0,1-.1-.3v-35.71a3.87,3.87,0,0,1,3.871-3.872h61.22a3.857,3.857,0,0,1,2.737,1.134l.022.024A3.858,3.858,0,0,1,1414.091,1383.363Zm-.816,35.581v-35.581a3.048,3.048,0,0,0-.875-2.142l-.021-.019a3.048,3.048,0,0,0-2.16-.9H1349a3.059,3.059,0,0,0-3.058,3.056v35.579l3.629,4.027a14.31,14.31,0,0,0,10.633,4.731h38.809a14.313,14.313,0,0,0,10.634-4.731l3.628-4.026Z" transform="translate(-1258.796 -1290.953)" fill="#fff"/>
      <path id="Path_2278" data-name="Path 2278" d="M1327.34,2272.8h9.082a5.486,5.486,0,0,1,4.351,2.149l2.083,2.721a5.8,5.8,0,0,0,4.608,2.274h0c8.917,0,22.667.838,30.995,0a5.8,5.8,0,0,0,4.606-2.273l2.085-2.721a5.484,5.484,0,0,1,4.351-2.149h9.082v.816H1389.5a4.663,4.663,0,0,0-3.7,1.827l-2.085,2.721a6.619,6.619,0,0,1-5.253,2.6h-30.995a6.624,6.624,0,0,1-5.255-2.6l-2.083-2.721a4.661,4.661,0,0,0-3.7-1.828h-9.082Z" transform="translate(-1242.149 -2126.929)" fill="#fff"/>
      <path id="Path_2279" data-name="Path 2279" d="M3783.393,2653.7h11.054v8.087a2.306,2.306,0,0,1-2.306,2.306H3785.7a2.306,2.306,0,0,1-2.306-2.306V2653.7Z" transform="translate(-3540.565 -2483.382)" fill="#0a324d"/>
      <path id="Path_2280" data-name="Path 2280" d="M3783.429,2659.331v-1.111h11.054v3.528Z" transform="translate(-3540.602 -2487.612)" fill="#463a3f"/>
      <path id="Path_2281" data-name="Path 2281" d="M2862.923,2653.7h11.054v8.087a2.306,2.306,0,0,1-2.306,2.306h-6.445a2.306,2.306,0,0,1-2.306-2.306V2653.7Z" transform="translate(-2679.173 -2483.382)" fill="#794c48"/>
      <path id="Path_2282" data-name="Path 2282" d="M2862.96,2659.331v-1.111h11.054v3.528Z" transform="translate(-2679.21 -2487.612)" fill="#463a3f"/>
      <rect id="Rectangle_2158" data-name="Rectangle 2158" width="1.776" height="0.621" transform="translate(251.415 129.012)" fill="#794c48"/>
      <path id="Path_2283" data-name="Path 2283" d="M3948.811,1913.68H3953a.962.962,0,0,1,.962.961v2.533a3.317,3.317,0,0,1-3.317,3.316H3944.9v-2.9a3.911,3.911,0,0,1,3.91-3.911Z" transform="translate(-3691.71 -1790.858)" fill="#a1d7fa"/>
      <rect id="Rectangle_2159" data-name="Rectangle 2159" width="1.776" height="0.621" transform="translate(185.263 129.012)" fill="#794c48"/>
      <path id="Path_2284" data-name="Path 2284" d="M2754.431,1920.491h-5.745a3.317,3.317,0,0,1-3.316-3.316v-2.533a.962.962,0,0,1,.962-.961h4.189a3.911,3.911,0,0,1,3.911,3.911v2.9Z" transform="translate(-2569.167 -1790.858)" fill="#f7c8c8"/>
      <path id="Path_2285" data-name="Path 2285" d="M2893.752,2028.968a5.749,5.749,0,0,1,.8,2.852,5.658,5.658,0,0,0-5.655-5.512h-66.952a5.647,5.647,0,0,0-4.648,2.441l5.7-8.958h65.309l5.441,9.177Z" transform="translate(-2636.481 -1890.158)" fill="#a1d7fa"/>
      <path id="Path_2286" data-name="Path 2286" d="M3065.685,1550.5a4.146,4.146,0,0,0-3.975-2.968h-43.471a4.146,4.146,0,0,0-3.979,2.984l1.259-4.311a3.451,3.451,0,0,1,3.312-2.483h42.286a3.45,3.45,0,0,1,3.311,2.484l1.257,4.294Z" transform="translate(-2820.799 -1444.643)" fill="#a1d7fa"/>
      <path id="Path_2287" data-name="Path 2287" d="M3104.18,1509.738v-2.328H3105v2.328Z" transform="translate(-2904.948 -1410.663)" fill="#0c3e5e"/>
      <path id="Path_2288" data-name="Path 2288" d="M3711.3,1509.738v-2.328h.817v2.328Z" transform="translate(-3473.102 -1410.663)" fill="#0c3e5e"/>
      <path id="Path_2289" data-name="Path 2289" d="M3110.54,1520.7h38.966v.816H3110.54Z" transform="translate(-2910.9 -1423.1)" fill="#0c3e5e"/>
      <path id="Path_2290" data-name="Path 2290" d="M2807.328,2121.31h66.946a5.659,5.659,0,0,1,5.658,5.658v23.593H2801.67v-23.593a5.659,5.659,0,0,1,5.658-5.658h0Z" transform="translate(-2621.854 -1985.161)" fill="#a1d7fa"/>
      <path id="Path_2291" data-name="Path 2291" d="M3792.82,2202.173h14.646v-4.437a1.787,1.787,0,0,0-1.787-1.786h-6.418a6.182,6.182,0,0,0-5.941,4.477l-.5,1.747Z" transform="translate(-3549.39 -2055.011)" fill="#fff"/>
      <circle id="Ellipse_589" data-name="Ellipse 589" cx="2.32" cy="2.32" r="2.32" transform="translate(251.702 141.647)" fill="#fff"/>
      <path id="Path_2292" data-name="Path 2292" d="M3919.98,2203.358a1.912,1.912,0,1,0-.561,1.353,1.907,1.907,0,0,0,.561-1.353Zm.017-1.929a2.73,2.73,0,1,1-1.929-.8A2.722,2.722,0,0,1,3920,2201.429Z" transform="translate(-3664.046 -2059.391)" fill="#0a324d"/>
      <circle id="Ellipse_590" data-name="Ellipse 590" cx="1.064" cy="1.064" r="1.064" transform="translate(247.9 141.84)" fill="#0a324d"/>
      <path id="Path_2293" data-name="Path 2293" d="M2816.316,2202.164H2801.67v-4.982a1.242,1.242,0,0,1,1.242-1.242h6.961a6.184,6.184,0,0,1,5.943,4.476l.5,1.748Z" transform="translate(-2621.854 -2055.002)" fill="#fff"/>
      <circle id="Ellipse_591" data-name="Ellipse 591" cx="2.32" cy="2.32" r="2.32" transform="translate(181.19 141.647)" fill="#fff"/>
      <path id="Path_2294" data-name="Path 2294" d="M2821.36,2203.358a1.912,1.912,0,1,0-.56,1.353,1.906,1.906,0,0,0,.56-1.353Zm.017-1.929a2.729,2.729,0,1,1-1.929-.8A2.72,2.72,0,0,1,2821.377,2201.429Z" transform="translate(-2635.938 -2059.391)" fill="#59221d"/>
      <circle id="Ellipse_592" data-name="Ellipse 592" cx="1.064" cy="1.064" r="1.064" transform="translate(187.793 141.84)" fill="#f5c234"/>
      <path id="Path_2295" data-name="Path 2295" d="M3141.808,2177.91h30.1a2.319,2.319,0,0,1,2.318,2.318v6.559a2.319,2.319,0,0,1-2.318,2.318h-30.1a2.318,2.318,0,0,1-2.318-2.318v-6.559A2.319,2.319,0,0,1,3141.808,2177.91Z" transform="translate(-2937.992 -2038.129)" fill="#0a324d"/>
      <rect id="Rectangle_2160" data-name="Rectangle 2160" width="0.443" height="11.197" transform="translate(203.898 139.781)" fill="#f7c8c8"/>
      <rect id="Rectangle_2161" data-name="Rectangle 2161" width="0.443" height="11.197" transform="translate(206.356 139.781)" fill="#f7c8c8"/>
      <rect id="Rectangle_2162" data-name="Rectangle 2162" width="0.443" height="11.197" transform="translate(208.814 139.781)" fill="#f7c8c8"/>
      <rect id="Rectangle_2163" data-name="Rectangle 2163" width="0.443" height="11.197" transform="translate(211.27 139.781)" fill="#f7c8c8"/>
      <rect id="Rectangle_2164" data-name="Rectangle 2164" width="0.443" height="11.197" transform="translate(216.186 139.781)" fill="#f7c8c8"/>
      <rect id="Rectangle_2165" data-name="Rectangle 2165" width="0.443" height="11.197" transform="translate(213.729 139.781)" fill="#f7c8c8"/>
      <rect id="Rectangle_2166" data-name="Rectangle 2166" width="0.443" height="11.197" transform="translate(218.644 139.781)" fill="#f7c8c8"/>
      <rect id="Rectangle_2167" data-name="Rectangle 2167" width="0.443" height="11.197" transform="translate(221.101 139.781)" fill="#f7c8c8"/>
      <rect id="Rectangle_2168" data-name="Rectangle 2168" width="0.443" height="11.197" transform="translate(223.559 139.781)" fill="#f7c8c8"/>
      <rect id="Rectangle_2169" data-name="Rectangle 2169" width="0.443" height="11.197" transform="translate(226.016 139.781)" fill="#f7c8c8"/>
      <rect id="Rectangle_2170" data-name="Rectangle 2170" width="0.443" height="11.197" transform="translate(228.474 139.781)" fill="#f7c8c8"/>
      <rect id="Rectangle_2171" data-name="Rectangle 2171" width="0.443" height="11.197" transform="translate(230.931 139.781)" fill="#f7c8c8"/>
      <rect id="Rectangle_2172" data-name="Rectangle 2172" width="0.443" height="11.197" transform="translate(233.389 139.781)" fill="#f7c8c8"/>
      <path id="Path_2296" data-name="Path 2296" d="M2971.468,1610.427H2906.16l6.941-23.765a4.145,4.145,0,0,1,3.977-2.981h43.471a4.144,4.144,0,0,1,3.974,2.97l-1.254-4.3Z" transform="translate(-2719.637 -1480.793)" fill="#90bdd1"/>
      <path id="Path_2297" data-name="Path 2297" d="M3472.862,1762.259c4.888,0,10.123,5.389,11.531,10.068l-26.773-.024c1.284-4.825,6.357-10.005,11.343-10.043l.242-.845a2.028,2.028,0,0,1-2.072-2.04c-.056-1.242,1.577-2.49,2.775-3.391s1.862-.71,3.035-.19,1.037,1.319.887,1.529c-.443,1.694,1.233,1.584.8,2.9-.227.685-1.033.829-1.753.81l-.012,1.226Z" transform="translate(-3235.704 -1642.697)" fill="#4e728a"/>
      <path id="Path_2298" data-name="Path 2298" d="M3506.007,1801.214a.407.407,0,0,1-.565-.587l8.509-8.167a.407.407,0,0,1,.565.587Z" transform="translate(-3280.34 -1677.313)" fill="#fff"/>
      <path id="Path_2299" data-name="Path 2299" d="M3606.657,1695.36a.407.407,0,0,1-.565-.587l4.2-4.032a.407.407,0,1,1,.564.587Z" transform="translate(-3374.53 -1582.121)" fill="#fff"/>
      <path id="Path_2300" data-name="Path 2300" d="M3404.437,1789a.407.407,0,0,1-.565-.587l11.378-10.92a.407.407,0,1,1,.565.587Z" transform="translate(-3185.289 -1663.303)" fill="#fff"/>
      <path id="Path_2301" data-name="Path 2301" d="M2788.158,2577.11h77.552a1.258,1.258,0,0,1,1.258,1.258v2.4a1.259,1.259,0,0,1-1.258,1.258h-77.552a1.259,1.259,0,0,1-1.258-1.258v-2.4A1.258,1.258,0,0,1,2788.158,2577.11Z" transform="translate(-2608.032 -2411.708)" fill="#fff"/>
      <path id="Path_2302" data-name="Path 2302" d="M2782.206,2570.75h77.552a1.664,1.664,0,0,1,1.664,1.666h0v2.4a1.659,1.659,0,0,1-.49,1.177h0a1.66,1.66,0,0,1-1.177.488h-77.552a1.663,1.663,0,0,1-1.666-1.664v-2.4a1.665,1.665,0,0,1,1.666-1.666Zm77.552.816h-77.552a.85.85,0,0,0-.85.85v2.4a.852.852,0,0,0,.85.851h77.552a.848.848,0,0,0,.6-.249h0a.846.846,0,0,0,.247-.6v-2.4h0a.852.852,0,0,0-.851-.85Z" transform="translate(-2602.079 -2405.756)" fill="#59221d"/>
      <path id="Path_2303" data-name="Path 2303" d="M3924.651,28.244a14.8,14.8,0,0,1,1.233,5.907v.007c0,8.65-7.477,15.664-16.7,15.664-8.742,0-15.916-6.3-16.64-14.325a12.012,12.012,0,0,1-8.639-1.628c-4.631,6.34-12.932,10.566-22.4,10.566-10.211,0-19.062-4.912-23.421-12.089a13.259,13.259,0,0,1-7.3,5.229c0,.074,0,.149,0,.225a4.738,4.738,0,0,1-9.476,0q0-.208.019-.411c-4.973-1.711-8.484-5.907-8.484-10.807,0-6.427,6.045-11.637,13.5-11.637a14.69,14.69,0,0,1,9.295,3.193C3837.917,7.826,3848.63.02,3861.5.02c10.542,0,19.635,5.233,23.832,12.8a11.994,11.994,0,0,1,16.39,7.326,17.668,17.668,0,0,1,17.067,1.207,4.738,4.738,0,1,1,5.857,6.9h0Z" transform="translate(-3568.134 -0.02)" fill="#8acef8"/>
      <circle id="Ellipse_593" data-name="Ellipse 593" cx="1.041" cy="1.041" r="1.041" transform="translate(253.231 28.602)" fill="#0c3e5e"/>
      <circle id="Ellipse_594" data-name="Ellipse 594" cx="1.041" cy="1.041" r="1.041" transform="translate(261.21 21.165)" fill="#0c3e5e"/>
      <circle id="Ellipse_595" data-name="Ellipse 595" cx="1.041" cy="1.041" r="1.041" transform="translate(264.984 23.864)" fill="#0c3e5e"/>
      <circle id="Ellipse_596" data-name="Ellipse 596" cx="1.041" cy="1.041" r="1.041" transform="translate(275.655 21.165)" fill="#0c3e5e"/>
      <circle id="Ellipse_597" data-name="Ellipse 597" cx="1.041" cy="1.041" r="1.041" transform="translate(275.009 29.644)" fill="#0c3e5e"/>
      <circle id="Ellipse_598" data-name="Ellipse 598" cx="1.041" cy="1.041" r="1.041" transform="translate(286.634 26.519)" fill="#0c3e5e"/>
      <circle id="Ellipse_599" data-name="Ellipse 599" cx="1.041" cy="1.041" r="1.041" transform="translate(284.127 30.285)" fill="#0c3e5e"/>
      <circle id="Ellipse_600" data-name="Ellipse 600" cx="1.041" cy="1.041" r="1.041" transform="translate(284.722 12.617)" fill="#0c3e5e"/>
      <circle id="Ellipse_601" data-name="Ellipse 601" cx="1.041" cy="1.041" r="1.041" transform="translate(288.271 10.594)" fill="#0c3e5e"/>
      <circle id="Ellipse_602" data-name="Ellipse 602" cx="1.041" cy="1.041" r="1.041" transform="translate(282.136 7.606)" fill="#0c3e5e"/>
      <circle id="Ellipse_603" data-name="Ellipse 603" cx="1.041" cy="1.041" r="1.041" transform="translate(297.368 18.085)" fill="#0c3e5e"/>
      <circle id="Ellipse_604" data-name="Ellipse 604" cx="1.041" cy="1.041" r="1.041" transform="translate(293.991 34.649)" fill="#0c3e5e"/>
      <circle id="Ellipse_605" data-name="Ellipse 605" cx="1.041" cy="1.041" r="1.041" transform="translate(301.509 73.461)" fill="#0c3e5e"/>
      <circle id="Ellipse_606" data-name="Ellipse 606" cx="1.041" cy="1.041" r="1.041" transform="translate(334.965 14.699)" fill="#0c3e5e"/>
      <circle id="Ellipse_607" data-name="Ellipse 607" cx="1.041" cy="1.041" r="1.041" transform="translate(249.747 38.539)" fill="#0c3e5e"/>
      <circle id="Ellipse_608" data-name="Ellipse 608" cx="1.041" cy="1.041" r="1.041" transform="translate(304.634 7.274)" fill="#0c3e5e"/>
      <circle id="Ellipse_609" data-name="Ellipse 609" cx="1.041" cy="1.041" r="1.041" transform="translate(305.674 12.128)" fill="#0c3e5e"/>
      <circle id="Ellipse_610" data-name="Ellipse 610" cx="1.041" cy="1.041" r="1.041" transform="translate(303.592 26.519)" fill="#0c3e5e"/>
      <circle id="Ellipse_611" data-name="Ellipse 611" cx="1.041" cy="1.041" r="1.041" transform="translate(314.043 21.165)" fill="#0c3e5e"/>
      <circle id="Ellipse_612" data-name="Ellipse 612" cx="1.041" cy="1.041" r="1.041" transform="translate(316.124 23.864)" fill="#0c3e5e"/>
      <circle id="Ellipse_613" data-name="Ellipse 613" cx="1.041" cy="1.041" r="1.041" transform="translate(326.461 17.044)" fill="#0c3e5e"/>
      <circle id="Ellipse_614" data-name="Ellipse 614" cx="1.041" cy="1.041" r="1.041" transform="translate(330.031 36.285)" fill="#0c3e5e"/>
      <circle id="Ellipse_615" data-name="Ellipse 615" cx="1.041" cy="1.041" r="1.041" transform="translate(334.693 34.004)" fill="#0c3e5e"/>
      <circle id="Ellipse_616" data-name="Ellipse 616" cx="1.041" cy="1.041" r="1.041" transform="translate(338.482 41.413)" fill="#0c3e5e"/>
      <circle id="Ellipse_617" data-name="Ellipse 617" cx="1.041" cy="1.041" r="1.041" transform="translate(353.619 22.824)" fill="#0c3e5e"/>
      <circle id="Ellipse_618" data-name="Ellipse 618" cx="1.041" cy="1.041" r="1.041" transform="translate(345.708 31.326)" fill="#0c3e5e"/>
      <path id="Path_2304" data-name="Path 2304" d="M4777.779,1098.36h0v-4.245c0-1.709,1.734-3.095,3.872-3.095h0v1.173a7.31,7.31,0,0,1-3.872,6.166Z" transform="translate(-4471.132 -1020.998)" fill="#8acef8"/>
      <path id="Path_2305" data-name="Path 2305" d="M4722.691,1009.62h0a6.893,6.893,0,0,1-4.041-6.274v-2.986h0a4.041,4.041,0,0,1,4.041,4.041v5.219Z" transform="translate(-4415.798 -936.156)" fill="#8acef8"/>
      <path id="Path_2306" data-name="Path 2306" d="M4083.306,138.617c-.011.078-.024.156-.04.232-.125.012-.253.017-.38.017a4.29,4.29,0,0,1-4.238-4.927c.012-.078.024-.156.04-.232.127-.011.255-.017.383-.017a4.281,4.281,0,0,1,4.234,4.926Z" transform="translate(-3816.835 -125.111)" fill="#8acef8"/>
      <path id="Path_2307" data-name="Path 2307" d="M4849.33,603.919c.069.037.138.076.2.117a4.278,4.278,0,0,1-6.2,2.639c-.07-.037-.139-.076-.2-.116a4.281,4.281,0,0,1,6.2-2.64Z" transform="translate(-4532.29 -564.676)" fill="#8acef8"/>
      <path id="Path_2308" data-name="Path 2308" d="M5241.43,850.047c.07.037.139.075.206.116a4.229,4.229,0,0,1-.355.9,4.311,4.311,0,0,1-5.845,1.74c-.07-.037-.139-.076-.206-.117a4.281,4.281,0,0,1,6.2-2.639Z" transform="translate(-4899.224 -795.007)" fill="#8acef8"/>
      <path id="Path_2309" data-name="Path 2309" d="M4975.167,552.05V672.436h-.818V552.05Z" transform="translate(-4655.087 -516.62)" fill="#0a324d"/>
      <path id="Path_2310" data-name="Path 2310" d="M4992.919,768.889c-.009.038-3.065,13.216-13.246,17.987h0a7.734,7.734,0,0,0-4.487,6.992h-.814a8.547,8.547,0,0,1,4.96-7.732h0c9.817-4.6,12.785-17.4,12.794-17.437l.793.188Z" transform="translate(-4655.105 -719.365)" fill="#0a324d"/>
      <path id="Path_2311" data-name="Path 2311" d="M4671.329,677.811a27.058,27.058,0,0,0,14.682,12.961h0a7.5,7.5,0,0,1,4.891,7.032v.012h-.817v-.012a6.688,6.688,0,0,0-4.356-6.269h0a27.938,27.938,0,0,1-15.14-13.389l.74-.338Z" transform="translate(-4370.823 -634.308)" fill="#0a324d"/>
      <path id="Path_2312" data-name="Path 2312" d="M4364.546,645.271v2.155a4.835,4.835,0,0,0,4.833,4.834h14.372a8.638,8.638,0,0,1,5.955,2.388l-.561.59a7.8,7.8,0,0,0-5.394-2.161h-14.371a5.652,5.652,0,0,1-5.651-5.651V645.27h.817Z" transform="translate(-4083.658 -603.857)" fill="#0a324d"/>
      <path id="Path_2313" data-name="Path 2313" d="M4771.626,1137.791v6.175a11.307,11.307,0,0,0,4.049,8.67l4.5,3.771a12.659,12.659,0,0,1,4.521,9.69h-.817a11.843,11.843,0,0,0-4.226-9.066l-4.5-3.771a12.141,12.141,0,0,1-4.342-9.295v-6.175h.816Z" transform="translate(-4464.611 -1064.766)" fill="#0a324d"/>
      <path id="Path_2314" data-name="Path 2314" d="M970.806,926.17v102.862h-.816V926.17Z" transform="translate(-907.734 -866.728)" fill="#0a324d"/>
      <path id="Path_2315" data-name="Path 2315" d="M991.139,1000a.407.407,0,0,1,.763.284,25.225,25.225,0,0,1-6.506,9.58,26.351,26.351,0,0,1-10.181,5.766,6.182,6.182,0,0,0-4.348,5.9v0a.408.408,0,1,1-.816,0v0a7,7,0,0,1,4.926-6.683,25.551,25.551,0,0,0,9.869-5.588,24.39,24.39,0,0,0,6.3-9.264Z" transform="translate(-907.79 -935.568)" fill="#0a324d"/>
      <path id="Path_2316" data-name="Path 2316" d="M819.951,1026.99c0,.009.526,3.1,6.368,4.155a4.159,4.159,0,0,1,2.389,1.358,3.809,3.809,0,0,1,.954,2.5h-.816a3,3,0,0,0-.753-1.969,3.337,3.337,0,0,0-1.918-1.09c-6.4-1.159-7.023-4.792-7.025-4.8l.8-.153Z" transform="translate(-766.575 -961.077)" fill="#0a324d"/>
      <path id="Path_2317" data-name="Path 2317" d="M977.395,908.551v3.689a4.485,4.485,0,0,1-3.079,4.257l-.915.3a3.192,3.192,0,0,0-2.194,3.034h-.817a4.012,4.012,0,0,1,2.757-3.809l.913-.3a3.664,3.664,0,0,0,2.517-3.482V908.55h.816Z" transform="translate(-908.109 -850.239)" fill="#0a324d"/>
      <path id="Path_2318" data-name="Path 2318" d="M1269.275,1018.7v0a3.081,3.081,0,0,1-3.081,3.081h-3.69a2.68,2.68,0,0,0-2.241,1.214l-.682-.443a3.488,3.488,0,0,1,2.923-1.587h3.69a2.266,2.266,0,0,0,2.265-2.265v0h.817Z" transform="translate(-1178.738 -953.319)" fill="#0a324d"/>
      <path id="Path_2319" data-name="Path 2319" d="M430.705,1123.057c.074.021.149.044.222.07a4.218,4.218,0,0,1-.157.942,4.263,4.263,0,0,1-5.287,2.89c-.075-.021-.15-.044-.223-.07a4.234,4.234,0,0,1,5.445-3.832Z" transform="translate(-397.966 -1050.82)" fill="#8acef8"/>
      <path id="Path_2320" data-name="Path 2320" d="M1292.119,526.39c-.012-.131-.019-.264-.019-.4a4.23,4.23,0,0,1,4.85-4.185c.077.011.154.023.23.037.012.131.019.264.019.4a4.233,4.233,0,0,1-4.85,4.185c-.077-.011-.157-.023-.23-.037Z" transform="translate(-1209.171 -488.283)" fill="#8acef8"/>
      <path id="Path_2321" data-name="Path 2321" d="M410.792,400.452a13.122,13.122,0,0,1-26.109,1.881,19.242,19.242,0,0,1-13.282,5.22h-.022a19.811,19.811,0,0,1-5.554-.8,15.353,15.353,0,0,1-4.19,7.619A9.279,9.279,0,0,1,343.78,419.4c-7.956-1.693-13.87-8.043-13.87-15.618,0-8.87,8.109-16.062,18.112-16.062h.018a20.449,20.449,0,0,1,4.644.538c.793-9.147,8.87-16.336,18.715-16.336,10.354,0,18.751,7.947,18.783,17.762a13.121,13.121,0,0,1,20.612,10.77h0Z" transform="translate(-308.736 -348.051)" fill="#8acef8"/>
      <circle id="Ellipse_619" data-name="Ellipse 619" cx="0.977" cy="0.977" r="0.977" transform="translate(28.925 58.776)" fill="#0c3e5e"/>
      <circle id="Ellipse_620" data-name="Ellipse 620" cx="0.977" cy="0.977" r="0.977" transform="translate(30.714 48.285)" fill="#0c3e5e"/>
      <circle id="Ellipse_621" data-name="Ellipse 621" cx="0.977" cy="0.977" r="0.977" transform="translate(33.887 50.24)" fill="#0c3e5e"/>
      <circle id="Ellipse_622" data-name="Ellipse 622" cx="0.977" cy="0.977" r="0.977" transform="translate(43.902 47.706)" fill="#0c3e5e"/>
      <circle id="Ellipse_623" data-name="Ellipse 623" cx="0.977" cy="0.977" r="0.977" transform="translate(40.612 61.708)" fill="#0c3e5e"/>
      <circle id="Ellipse_624" data-name="Ellipse 624" cx="0.977" cy="0.977" r="0.977" transform="translate(54.203 51.775)" fill="#0c3e5e"/>
      <circle id="Ellipse_625" data-name="Ellipse 625" cx="0.977" cy="0.977" r="0.977" transform="translate(51.851 55.309)" fill="#0c3e5e"/>
      <circle id="Ellipse_626" data-name="Ellipse 626" cx="0.977" cy="0.977" r="0.977" transform="translate(54.31 38)" fill="#0c3e5e"/>
      <circle id="Ellipse_627" data-name="Ellipse 627" cx="0.977" cy="0.977" r="0.977" transform="translate(57.64 36.102)" fill="#0c3e5e"/>
      <circle id="Ellipse_628" data-name="Ellipse 628" cx="0.977" cy="0.977" r="0.977" transform="translate(51.885 33.298)" fill="#0c3e5e"/>
      <circle id="Ellipse_629" data-name="Ellipse 629" cx="0.977" cy="0.977" r="0.977" transform="translate(64.276 44.816)" fill="#0c3e5e"/>
      <circle id="Ellipse_630" data-name="Ellipse 630" cx="1.029" cy="1.029" r="1.029" transform="translate(64.51 60.529)" fill="#0c3e5e"/>
      <circle id="Ellipse_631" data-name="Ellipse 631" cx="1.029" cy="1.029" r="1.029" transform="translate(39.583 35.073)" fill="#0c3e5e"/>
      <circle id="Ellipse_632" data-name="Ellipse 632" cx="0.977" cy="0.977" r="0.977" transform="translate(71.094 34.671)" fill="#0c3e5e"/>
      <circle id="Ellipse_633" data-name="Ellipse 633" cx="0.977" cy="0.977" r="0.977" transform="translate(73.557 38.685)" fill="#0c3e5e"/>
      <circle id="Ellipse_634" data-name="Ellipse 634" cx="0.977" cy="0.977" r="0.977" transform="translate(70.116 52.731)" fill="#0c3e5e"/>
      <circle id="Ellipse_635" data-name="Ellipse 635" cx="0.977" cy="0.977" r="0.977" transform="translate(79.922 47.706)" fill="#0c3e5e"/>
      <circle id="Ellipse_636" data-name="Ellipse 636" cx="0.977" cy="0.977" r="0.977" transform="translate(81.876 50.24)" fill="#0c3e5e"/>
      <circle id="Ellipse_637" data-name="Ellipse 637" cx="0.977" cy="0.977" r="0.977" transform="translate(91.575 45.794)" fill="#0c3e5e"/>
      <circle id="Ellipse_638" data-name="Ellipse 638" cx="0.977" cy="0.977" r="0.977" transform="translate(88.079 60.731)" fill="#0c3e5e"/>
      <circle id="Ellipse_639" data-name="Ellipse 639" cx="0.977" cy="0.977" r="0.977" transform="translate(45.857 71.592)" fill="#0c3e5e"/>
      <circle id="Ellipse_640" data-name="Ellipse 640" cx="1.029" cy="1.029" r="1.029" transform="translate(26.798 70.01)" fill="#0c3e5e"/>
      <path id="Path_2322" data-name="Path 2322" d="M5373.984,2142.068v.009a15.209,15.209,0,0,1-.548,4.042h-31.258a15.215,15.215,0,0,1-.548-4.042v-.009a16.186,16.186,0,0,1,32.354,0Z" transform="translate(-4998.794 -1989.953)" fill="#1da1f3"/>
      <path id="Path_2323" data-name="Path 2323" d="M5335.692,2337.476a.406.406,0,0,1,.545-.6l6.553,5.931a.406.406,0,0,1-.545.6Z" transform="translate(-4993.112 -2186.792)" fill="#fff"/>
      <path id="Path_2324" data-name="Path 2324" d="M5504.112,2141.6l-6.584-2.268-9.364,2.518v4.289h-.443v-9.46l-7.031-8.578q.205-.1.414-.195l6.617,8.071v-9.532h.443v5.363l5.322-4.422q.243.088.479.177l-5.8,4.821v9l15.186-4.084c.047.14.089.282.133.424l-5.227,1.406,5.833,1.992c.009.16.017.318.021.476Z" transform="translate(-5128.93 -1989.972)" fill="#fff"/>
      <path id="Path_2325" data-name="Path 2325" d="M4261.273,2111.875l-100.034-.35s7.41-20.392,44.887-21.723c14.258-.506,7.062,11.481,10.7,9.763,7.825-3.7,13.413-5.661,16.969-3.746,5.776,3.11-.849,9.426,2.68,9.173s8.8-3.548,12.772-1.014-1.942,5.069,0,5.322,11.856-4.637,12.026,2.575Z" transform="translate(-3894.164 -1955.661)" fill="#98c8db"/>
      <path id="Path_2326" data-name="Path 2326" d="M185.179,2158.064H114.51c0-3.218,3.861-6.91,10.289-5.9a6.7,6.7,0,0,1-.191-1.587v0c0-4.14,3.766-7.5,8.411-7.5a9.283,9.283,0,0,1,1.807.177,15.006,15.006,0,0,1,1.16-2.961,15.825,15.825,0,0,1,20.977-6.714,15.065,15.065,0,0,1,8.274,16.558,14.206,14.206,0,0,1,12.916-.205,13.573,13.573,0,0,1,7.025,8.134Z" transform="translate(-107.161 -1995.114)" fill="#98c8db"/>
      <path id="Path_2327" data-name="Path 2327" d="M3272.16,799.76h54.179a15.782,15.782,0,0,1,15.78,15.78V904.3h-.817V815.54a14.965,14.965,0,0,0-14.963-14.963H3272.16v-.816Z" transform="translate(-3062.146 -748.431)" fill="#0c3e5e"/>
      <path id="Path_2328" data-name="Path 2328" d="M3266.212,824.7h14.073a1.433,1.433,0,0,1,1.433,1.433v.259a1.433,1.433,0,0,1-1.433,1.432h-14.073a1.433,1.433,0,0,1-1.432-1.432v-.259A1.433,1.433,0,0,1,3266.212,824.7Z" transform="translate(-3055.24 -771.77)" fill="#1da1f3"/>
      <rect id="Rectangle_2173" data-name="Rectangle 2173" width="8.172" height="27.834" transform="translate(266.297 74.852)" fill="#fff"/>
      <path id="Path_2329" data-name="Path 2329" d="M4276.45,1187.73h5.092v.816h-5.092Z" transform="translate(-4001.98 -1111.501)" fill="#0c3e5e"/>
      <path id="Path_2330" data-name="Path 2330" d="M4276.45,1565.78h5.092v.816h-5.092Z" transform="translate(-4001.98 -1465.287)" fill="#0c3e5e"/>
      <rect id="Rectangle_2174" data-name="Rectangle 2174" width="4.086" height="13.325" transform="translate(270.384 79.028)" fill="#8acef8"/>
      <path id="Path_2331" data-name="Path 2331" d="M4179.1,1265.11h4.619v.817H4179.1Z" transform="translate(-3910.878 -1183.914)" fill="#0c3e5e"/>
      <path id="Path_2332" data-name="Path 2332" d="M4179.1,1297.53h4.619v.816H4179.1Z" transform="translate(-3910.878 -1214.254)" fill="#0c3e5e"/>
      <path id="Path_2333" data-name="Path 2333" d="M4179.1,1329.95h4.619v.816H4179.1Z" transform="translate(-3910.878 -1244.593)" fill="#0c3e5e"/>
      <path id="Path_2334" data-name="Path 2334" d="M4179.1,1362.38h4.619v.817H4179.1Z" transform="translate(-3910.878 -1274.941)" fill="#0c3e5e"/>
      <circle id="Ellipse_641" data-name="Ellipse 641" cx="2.198" cy="2.198" r="2.198" transform="translate(268.308 94.479)" fill="#1da1f3"/>
      <path id="Path_2335" data-name="Path 2335" d="M1437.03,205.909H1416.9a2.05,2.05,0,0,1-2.05-2.05v-.369a2.05,2.05,0,0,1,2.05-2.05h20.13a2.05,2.05,0,0,1,2.05,2.05v.369A2.05,2.05,0,0,1,1437.03,205.909Z" transform="translate(-1324.042 -188.513)" fill="#1da1f3"/>
      <path id="Path_2336" data-name="Path 2336" d="M325.125,169.326H247.618a21.582,21.582,0,0,0-21.582,21.582V362.663h-.816V190.909a22.4,22.4,0,0,1,22.4-22.4h77.507v.816Z" transform="translate(-210.765 -157.696)" fill="#0a324d"/>
      <path id="Path_2337" data-name="Path 2337" d="M36.188,3029.477v0a13.7,13.7,0,0,1-.612,4.048H.613A13.7,13.7,0,0,1,0,3029.481v0c0-8.638,8.1-15.638,18.094-15.638s18.094,7,18.094,15.637Z" transform="translate(0 -2820.407)" fill="#1da1f3"/>
      <path id="Path_2338" data-name="Path 2338" d="M8.306,3234.065h-.7l-6.541-5.41c.017-.177.037-.355.062-.525l7.175,5.935Z" transform="translate(-1.001 -3020.944)" fill="#fff"/>
      <path id="Path_2339" data-name="Path 2339" d="M90.786,3025.176,73.6,3029.238v4.282h-.443v-7.513l-5.58-6.121a.2.2,0,0,1-.046.005H59.08q.2-.224.413-.443h7.689l-3.1-3.4q.2-.107.411-.207l8.663,9.506v-11.52H73.6v5.252l4.24-4.774c.165.036.328.074.492.114L73.6,3019.75v9.029l10.261-2.429a.1.1,0,0,1,.005-.01l3.814-6.458c.105.116.207.233.307.355l-3.529,5.974,6.177-1.458c.051.138.1.279.146.42Z" transform="translate(-55.288 -2820.398)" fill="#fff"/>
      <path id="Path_2340" data-name="Path 2340" d="M4801.152,2560.088a40.6,40.6,0,0,0-2.747-15.5c-1.653-3.853-3.9-6.236-6.34-6.236s-4.687,2.383-6.34,6.236a45.069,45.069,0,0,0,0,30.991c1.653,3.853,3.9,6.236,6.34,6.236s4.688-2.383,6.34-6.236A40.6,40.6,0,0,0,4801.152,2560.088Zm-2-15.814a45.816,45.816,0,0,1,0,31.629c-1.784,4.16-4.288,6.733-7.089,6.733s-5.305-2.573-7.09-6.733a45.838,45.838,0,0,1,0-31.629c1.785-4.16,4.289-6.733,7.09-6.733S4797.37,2540.113,4799.153,2544.273Z" transform="translate(-4475.232 -2374.677)" fill="#0c3e5e"/>
      <path id="Path_2341" data-name="Path 2341" d="M4919.251,2581.594a.408.408,0,0,1-.061-.813c.106-.008.221-.011.343-.009,2.143.034,4.05,1.891,5.494,4.913a33.363,33.363,0,0,1,2.722,11.5c.105,1.391.15,2.837.127,4.319a.407.407,0,0,1-.813-.01c.022-1.442-.022-2.865-.127-4.248a32.538,32.538,0,0,0-2.643-11.211c-1.308-2.74-2.97-4.423-4.771-4.45h0q-.122,0-.27.009Z" transform="translate(-4603.115 -2415.134)" fill="#0c3e5e"/>
      <path id="Path_2342" data-name="Path 2342" d="M4918.917,2856.327a3.15,3.15,0,0,0-.207-1.2c-.083-.193-.159-.313-.208-.313s-.125.12-.207.313a3.564,3.564,0,0,0,0,2.394c.083.193.158.313.207.313s.125-.12.208-.313A3.143,3.143,0,0,0,4918.917,2856.327Zm.542-1.516a4.318,4.318,0,0,1,0,3.032c-.215.5-.551.81-.957.81s-.742-.31-.957-.81a4.318,4.318,0,0,1,0-3.032c.215-.5.551-.811.957-.811S4919.244,2854.31,4919.459,2854.811Z" transform="translate(-4601.671 -2670.826)" fill="#0c3e5e"/>
      <path id="Path_2343" data-name="Path 2343" d="M4250.639,2438.061a33.262,33.262,0,0,0-1.6-10.811c-.945-2.635-2.2-4.264-3.548-4.264s-2.6,1.63-3.549,4.264a37.27,37.27,0,0,0,0,21.623c.946,2.635,2.2,4.264,3.549,4.264s2.6-1.63,3.548-4.264A33.26,33.26,0,0,0,4250.639,2438.061Zm-.837-11.086a38,38,0,0,1,0,22.173c-1.066,2.969-2.589,4.806-4.314,4.806s-3.248-1.837-4.313-4.806a37.971,37.971,0,0,1,0-22.171c1.065-2.969,2.588-4.806,4.313-4.806s3.248,1.837,4.314,4.806Z" transform="translate(-3967.42 -2266.712)" fill="#0c3e5e"/>
      <path id="Path_2344" data-name="Path 2344" d="M4270.836,2460.676a.407.407,0,0,1-.81-.073,14.411,14.411,0,0,1,1.128-4.461,7.18,7.18,0,0,1,2.221-3.023.406.406,0,1,1,.456.673,6.4,6.4,0,0,0-1.931,2.679,13.594,13.594,0,0,0-1.064,4.206Z" transform="translate(-3995.967 -2295.609)" fill="#0c3e5e"/>
      <path id="Path_2345" data-name="Path 2345" d="M4317.029,2641.04a2.493,2.493,0,0,0-.163-.945,1.178,1.178,0,0,0-.1-.208,1.324,1.324,0,0,0-.1.208,2.826,2.826,0,0,0,0,1.89,1.456,1.456,0,0,0,.1.208,1.189,1.189,0,0,0,.1-.208A2.485,2.485,0,0,0,4317.029,2641.04Zm.586-1.264a3.587,3.587,0,0,1,0,2.528.862.862,0,0,1-1.7,0,3.587,3.587,0,0,1,0-2.528.862.862,0,0,1,1.7,0Z" transform="translate(-4038.7 -2469.691)" fill="#0c3e5e"/>
      <path id="LEGS" d="M4370.569,2283.622l-8.037-7.362-22.48.2a20.213,20.213,0,0,0,.965,11.028l13.016,34.729h10.694l-3.8-14.087,10.76-13.873a8.064,8.064,0,0,0-1.117-10.634h0Zm-11.833,22.874-3.6-13.346a.29.29,0,0,1,.5-.266l7.45,8.167-4.346,5.446Z" transform="translate(-4061.165 -2130.167)" fill="#0c3e5e"/>
      <path id="Path_2346" data-name="Path 2346" d="M4614.009,2565.839a.408.408,0,0,1,.788-.211l3.509,13.008a.408.408,0,1,1-.788.211Z" transform="translate(-4317.86 -2400.679)" fill="#fff"/>
      <rect id="Rectangle_2175" data-name="Rectangle 2175" width="12.299" height="1.313" transform="translate(293.478 198.409)" fill="#fff"/>
      <path id="Path_2347" data-name="Path 2347" d="M4567.056,3086.333h11.482v-.5h-11.482Zm11.891.816H4566.24v-2.129h13.115v2.129Z" transform="translate(-4273.17 -2887.019)" fill="#0c3e5e"/>
      <path id="Path_2348" data-name="Path 2348" d="M4551.983,2993.23l-.912,4.854a1.277,1.277,0,0,0-.021.225,1.221,1.221,0,0,0,1.22,1.221h13.216v-.676a3.047,3.047,0,0,0-.525-1.709l-2.652-3.915Z" transform="translate(-4258.955 -2801.12)" fill="#fff"/>
      <path id="Path_2349" data-name="Path 2349" d="M4546.359,2987.687l-.85,4.521c0,.026-.009.051-.011.073s0,.039,0,.075a.814.814,0,0,0,.812.814h12.807v-.268a2.62,2.62,0,0,0-.454-1.481h0l-2.53-3.733h-9.774Zm-1.65,4.371.975-5.188h10.877l2.775,4.094h0a3.483,3.483,0,0,1,.594,1.937v1.084h-13.624a1.628,1.628,0,0,1-1.628-1.627c0-.038,0-.088.009-.149a1.489,1.489,0,0,1,.02-.149h0Z" transform="translate(-4252.994 -2795.169)" fill="#0c3e5e"/>
      <path id="Path_2350" data-name="Path 2350" d="M4554.03,3071.82H4568.2v.817H4554.03Z" transform="translate(-4261.744 -2874.666)" fill="#0c3e5e"/>
      <path id="Path_2351" data-name="Path 2351" d="M4577.583,2987.216a.408.408,0,0,1,.8.154l-1.062,5.452a.407.407,0,1,1-.8-.153Z" transform="translate(-4282.787 -2795.183)" fill="#0c3e5e"/>
      <path id="Path_2352" data-name="Path 2352" d="M4593.354,2987.216a.407.407,0,1,1,.8.154l-1.061,5.452a.407.407,0,1,1-.8-.153Z" transform="translate(-4297.545 -2795.183)" fill="#0c3e5e"/>
      <path id="Path_2353" data-name="Path 2353" d="M4672.641,3002.26a.409.409,0,0,1-.408-.408v0a.473.473,0,0,0-.473-.472h-3.589a.475.475,0,0,0-.335.138h0a.473.473,0,0,0-.138.335.408.408,0,1,1-.816,0,1.285,1.285,0,0,1,.378-.911h0a1.287,1.287,0,0,1,.913-.378h3.589a1.289,1.289,0,0,1,1.289,1.288v.409h-.408Z" transform="translate(-4367.351 -2807.98)" fill="#0c3e5e"/>
      <path id="Path_2354" data-name="Path 2354" d="M4686.65,3019.579a.408.408,0,1,1-.816,0,.474.474,0,0,0-.474-.473h-3.494a.47.47,0,0,0-.333.139h0a.472.472,0,0,0-.141.334.406.406,0,1,1-.812,0,1.285,1.285,0,0,1,.375-.911h0a1.289,1.289,0,0,1,.911-.377h3.494a1.289,1.289,0,0,1,1.29,1.289Z" transform="translate(-4380.172 -2824.572)" fill="#0c3e5e"/>
      <path id="Path_2355" data-name="Path 2355" d="M4377.241,1945.95c-.4-.452-2.046-.544-3.932-.186-1.963.371-3.5,1.18-3.605,1.774l-2.326-7.946a.54.54,0,0,0-1-.1l-4.884,9.657c-19.478.56-22.833,4.948-22.833,4.948a17.23,17.23,0,0,1,1.181-7.813l4.8-12.3a11.435,11.435,0,0,1,10.648-7.273h11.687a7.119,7.119,0,0,1,6.924,5.468Z" transform="translate(-4060.127 -1803.052)" fill="#1da1f3"/>
      <path id="Path_2356" data-name="Path 2356" d="M4513.807,2138.035a.407.407,0,1,1-.72.379l-4.86-9.2a.407.407,0,0,1,.721-.379Z" transform="translate(-4218.837 -1992.003)" fill="#fff"/>
      <path id="Path_2357" data-name="Path 2357" d="M4601.891,1948.691a.406.406,0,0,1,.382-.717,5.07,5.07,0,0,1,2.507,3.139l4.181,14.99a.407.407,0,0,1-.785.217l-4.18-14.992a4.279,4.279,0,0,0-2.1-2.636Z" transform="translate(-4306.332 -1822.906)" fill="#fff"/>
      <path id="Path_2358" data-name="Path 2358" d="M4568.616,2192.531a6.009,6.009,0,0,1,3.415-2.2,7.526,7.526,0,0,1,3.62-.445l-.33-1.059c-.253-.19-1.287-.761-3.824.055-2.742.882-3.351,2.1-3.476,2.472Zm3.663-1.429c-3.042.979-3.2,2.264-3.211,2.412a.407.407,0,0,1-.771.192l-1.067-2.117a.4.4,0,0,1-.043-.26c0-.006.314-2.022,4.062-3.227,3.464-1.114,4.711.194,4.715.2h0a.392.392,0,0,1,.1.167l.61,1.96a.408.408,0,0,1-.664.422s-.736-.713-3.732.25Z" transform="translate(-4274.05 -2047.248)" fill="#fff"/>
      <path id="Path_2359" data-name="Path 2359" d="M4807.715,2179.121a4.441,4.441,0,0,1,.78-.478,10.316,10.316,0,0,1,2.556-.818l.017,0a11.613,11.613,0,0,1,2.6-.213,4.929,4.929,0,0,1,.793.1l-.338-1.3a2.579,2.579,0,0,0-1.149-.266,9.349,9.349,0,0,0-2.347.161,8.58,8.58,0,0,0-2.293.763,2.48,2.48,0,0,0-.963.709l.349,1.344Zm1.14.252c-.545.269-.891.519-.93.689a.407.407,0,0,1-.8.038l-.579-2.225a.411.411,0,0,1-.008-.183c.079-.431.606-.933,1.414-1.35a9.4,9.4,0,0,1,2.516-.84,10.186,10.186,0,0,1,2.555-.174,2.723,2.723,0,0,1,1.764.594h0a.389.389,0,0,1,.086.165l.573,2.193a.409.409,0,0,1-.694.4,1.948,1.948,0,0,0-1.129-.261,10.818,10.818,0,0,0-2.409.2l-.013,0a9.562,9.562,0,0,0-2.349.748Z" transform="translate(-4498.044 -2035.695)" fill="#fff"/>
      <path id="Path_2360" data-name="Path 2360" d="M4607.007,2243.833l-3.945.109h-.023a.844.844,0,0,1-.782-.524l-.484-1.189-.655-.009c-2.12-.061-3.46-.258-4.623-1.374a37,37,0,0,1-5.066-6.239s.1-1.685,3.607-2.809c3.223-1.036,4.3,0,4.3,0,1.009,2.314,2.56,5.424,3.119,6.422l2.457.032a2.029,2.029,0,0,1,1.881,1.331l1.081,2.953a.964.964,0,0,1-.87,1.3h0Z" transform="translate(-4296.743 -2088.127)" fill="#ad764f"/>
      <path id="Path_2361" data-name="Path 2361" d="M4812.24,2383.681a.244.244,0,0,1-.016-.488.717.717,0,0,0,.691-.716.722.722,0,0,0-.011-.126.816.816,0,0,0-.032-.121l-.6-1.633a.244.244,0,0,1,.459-.166l.6,1.634a1.161,1.161,0,0,1,.055.2,1.205,1.205,0,0,1-1.147,1.414Z" transform="translate(-4503.146 -2227.5)" fill="#5c3b24"/>
      <path id="Path_2362" data-name="Path 2362" d="M4790.5,2384.069a.244.244,0,0,1-.015-.488.715.715,0,0,0,.691-.717.755.755,0,0,0-.011-.125.583.583,0,0,0-.033-.12l-.6-1.633a.245.245,0,0,1,.459-.168l.6,1.634a1.3,1.3,0,0,1,.055.2,1.211,1.211,0,0,1,.019.209,1.208,1.208,0,0,1-1.165,1.205Z" transform="translate(-4482.801 -2227.864)" fill="#5c3b24"/>
      <path id="Path_2363" data-name="Path 2363" d="M4767.879,2384.691a.244.244,0,0,1-.015-.488.719.719,0,0,0,.68-.843.594.594,0,0,0-.032-.121l-.6-1.633a.245.245,0,1,1,.459-.168l.6,1.633a1.292,1.292,0,0,1,.055.2,1.263,1.263,0,0,1,.018.21,1.207,1.207,0,0,1-1.166,1.205Z" transform="translate(-4461.633 -2228.445)" fill="#5c3b24"/>
      <path id="Path_2364" data-name="Path 2364" d="M4739.455,2335.4a.245.245,0,1,1,0-.49h1.292a.245.245,0,1,1,0,.49Z" transform="translate(-4435.038 -2185.053)" fill="#5c3b24"/>
      <path id="Path_2365" data-name="Path 2365" d="M4833.976,2227.769l1.852.021a1.868,1.868,0,0,1,1.733,1.226l1,2.72a.9.9,0,0,1,.052.3.887.887,0,0,1-.851.886l-3.632.1h-.021a.778.778,0,0,1-.72-.483l-.249-.606-2.377-.037c-2.928-1.3-5.773-6.042-7.121-9.443-.045-.114-.089-.224-.128-.334.106-.59,1.642-1.4,3.6-1.774,1.893-.355,3.539-.267,3.936.19l2.927,7.231Z" transform="translate(-4513.929 -2077.64)" fill="#ad764f"/>
      <path id="Path_2366" data-name="Path 2366" d="M5025.09,2374.354a.244.244,0,0,1-.019-.488.645.645,0,0,0,.607-.753.636.636,0,0,0-.029-.108l-.55-1.507a.244.244,0,0,1,.459-.166l.55,1.508a1.068,1.068,0,0,1,.051.19,1.1,1.1,0,0,1,.017.2,1.134,1.134,0,0,1-1.086,1.13Z" transform="translate(-4702.334 -2218.985)" fill="#5c3b24"/>
      <path id="Path_2367" data-name="Path 2367" d="M5006.39,2374.713a.244.244,0,1,1-.019-.488.642.642,0,0,0,.616-.641.653.653,0,0,0-.01-.112.6.6,0,0,0-.028-.108l-.55-1.507a.244.244,0,0,1,.459-.166l.55,1.507a1.117,1.117,0,0,1,.051.19,1.1,1.1,0,0,1,.017.2,1.134,1.134,0,0,1-1.086,1.13Z" transform="translate(-4684.833 -2219.322)" fill="#5c3b24"/>
      <path id="Path_2368" data-name="Path 2368" d="M4988.4,2375.293a.244.244,0,0,1-.019-.488.641.641,0,0,0,.616-.642.654.654,0,0,0-.01-.112.523.523,0,0,0-.028-.108l-.55-1.508a.244.244,0,0,1,.459-.166l.549,1.508a1.118,1.118,0,0,1,.051.19,1.061,1.061,0,0,1,.018.2,1.133,1.133,0,0,1-1.087,1.13Z" transform="translate(-4668 -2219.864)" fill="#5c3b24"/>
      <path id="Path_2369" data-name="Path 2369" d="M4938.211,2368.153a.245.245,0,1,1-.49,0v-.362a.88.88,0,0,0-.259-.624h0a.878.878,0,0,0-.624-.258h-.218l-.141-.043-.843-.586a.245.245,0,1,1,.28-.4l.78.543h.142a1.371,1.371,0,0,1,.969.4h0a1.371,1.371,0,0,1,.4.971v.362Z" transform="translate(-4618.761 -2213.99)" fill="#5c3b24"/>
      <path id="Path_2370" data-name="Path 2370" d="M4638.792,1862.853v2.225a6.825,6.825,0,0,1-7.052,0l3.526-4.219,3.526,1.993Z" transform="translate(-4334.467 -1741.428)" fill="#ad764f"/>
      <path id="Path_2371" data-name="Path 2371" d="M4679.484,1860.851h0l3.526,1.993v2.225a6.668,6.668,0,0,1-2.332.877l-1.444-2.749a2.119,2.119,0,0,1,.251-2.346h0Z" transform="translate(-4378.685 -1741.419)" fill="#5c3b24"/>
      <path id="Path_2372" data-name="Path 2372" d="M4631.307,1923.31a.407.407,0,1,1,.43.692,7.644,7.644,0,0,1-7.668,0,.407.407,0,1,1,.414-.7,6.793,6.793,0,0,0,6.823,0Z" transform="translate(-4327.099 -1799.812)" fill="#fff"/>
      <path id="HEAD" d="M4674.532,1843.208a.227.227,0,0,1,0,.026.274.274,0,0,1-.25.274l-.469.042-.031.873a.793.793,0,0,1-.972.742l-1.839-.427a1.353,1.353,0,0,1-1-.976l-.214-.806h-.4a.962.962,0,0,1-.962-.963v-.042a.962.962,0,0,1,.962-.962h4.979Z" transform="translate(-4368.764 -1722.833)" fill="#ad764f"/>
      <path id="Path_2373" data-name="Path 2373" d="M4677.032,1846.256a.244.244,0,1,1-.488.006.415.415,0,0,0-.125-.292.423.423,0,0,0-.294-.122.244.244,0,1,1,0-.488.906.906,0,0,1,.906.9Z" transform="translate(-4375.774 -1726.922)" fill="#5c3b24"/>
      <path id="HAIR" d="M4689.161,1841.021a.74.74,0,0,0-.741.813c0,.342-.463.225-.463.225l-.08-.431a.738.738,0,0,0-.6-.594v-.014h1.88Z" transform="translate(-4386.442 -1722.861)" fill="#5c3b24"/>
      <path id="CAP" d="M4694.666,1810.384a.241.241,0,0,1-.242.241h-7.153l.028-.347a1.892,1.892,0,0,1,1.885-1.739h1.608a1.123,1.123,0,0,1,1.119,1.031l.046.571h2.467a.241.241,0,0,1,.241.242h0Z" transform="translate(-4386.433 -1692.466)" fill="#fff"/>
      <path id="Path_2374" data-name="Path 2374" d="M4730.485,1842.55a.245.245,0,0,1,0-.49h1.167a.245.245,0,0,1,0,.49Z" transform="translate(-4426.645 -1723.835)" fill="#5c3b24"/>
      <ellipse id="Ellipse_642" data-name="Ellipse 642" cx="0.192" cy="0.316" rx="0.192" ry="0.316" transform="translate(304.237 118.941)" fill="#5c3b24"/>
      <path id="Path_2375" data-name="Path 2375" d="M4758.232,2531.038a.408.408,0,0,1-.813-.067,34.642,34.642,0,0,1,3.951-14.046c2.045-3.536,4.707-5.666,7.638-5.666a6.355,6.355,0,0,1,2.894.718,9.524,9.524,0,0,1,2.66,2.075.406.406,0,0,1-.6.552,8.736,8.736,0,0,0-2.43-1.9,5.552,5.552,0,0,0-2.527-.628c-2.617,0-5.035,1.976-6.933,5.257a33.81,33.81,0,0,0-3.842,13.7Z" transform="translate(-4452.078 -2350.083)" fill="#1da1f3"/>
      <path id="Path_2376" data-name="Path 2376" d="M4843.268,2394.406a.408.408,0,0,1,0-.816h5.509a.408.408,0,0,1,0,.816Z" transform="translate(-4532.037 -2239.966)" fill="#1da1f3"/>
      <path id="Path_2377" data-name="Path 2377" d="M4878.316,2495.96l3.224,23.063-.807.112-3.224-23.063Z" transform="translate(-4564.462 -2335.766)" fill="#1da1f3"/>
      <path id="Path_2378" data-name="Path 2378" d="M4697.94,2393.59a.408.408,0,1,1,0,.816H4694.8a.408.408,0,1,1,0-.816Z" transform="translate(-4393.096 -2239.967)" fill="#1da1f3"/>
      <path id="Path_2379" data-name="Path 2379" d="M4614.508,2394.072a.407.407,0,0,1,.807-.115l.55,3.849c.008.06.015.119.019.174s.007.122.007.174a2.481,2.481,0,0,1-.729,1.758h0a2.48,2.48,0,0,1-1.756.728h-18.138a.406.406,0,1,1,0-.812H4613.4a1.666,1.666,0,0,0,1.18-.489h0a1.664,1.664,0,0,0,.489-1.181c0-.044,0-.084,0-.117s-.007-.082-.012-.118l-.55-3.846Z" transform="translate(-4299.954 -2239.982)" fill="#1da1f3"/>
      <path id="Path_2380" data-name="Path 2380" d="M2066.669,1718.99h-55.784a7.9,7.9,0,0,0-7.349,5.009l-14.1,35.9h98.674l-14.1-35.9a7.894,7.894,0,0,0-7.348-5.009Z" transform="translate(-1861.754 -1608.663)" fill="#1da1f3"/>
      <path id="Path_2381" data-name="Path 2381" d="M2125.5,1801.606H2032.33l12.657-34.137a7.2,7.2,0,0,1,6.1-3.59l55.576-.32a6.915,6.915,0,0,1,6.153,3.845Z" transform="translate(-1901.891 -1650.371)" fill="#90bdd1"/>
      <path id="Path_2382" data-name="Path 2382" d="M1918.442,2370.7H1794.78l12.495-14.351h98.674Z" transform="translate(-1679.588 -2205.117)" fill="#1da1f3"/>
      <path id="Path_2383" data-name="Path 2383" d="M1783.912,2521.82h109.856a8.123,8.123,0,0,1,8.122,8.122v9.335a8.123,8.123,0,0,1-8.122,8.122H1783.912a8.123,8.123,0,0,1-8.122-8.122v-9.335A8.123,8.123,0,0,1,1783.912,2521.82Z" transform="translate(-1661.816 -2359.966)" fill="#1da1f3"/>
      <path id="Path_2384" data-name="Path 2384" d="M1793.487,2905.06h120.634a1.707,1.707,0,0,1,1.707,1.707v1.206a1.707,1.707,0,0,1-1.707,1.707H1793.487a1.707,1.707,0,0,1-1.707-1.707v-1.206a1.707,1.707,0,0,1,1.707-1.707Z" transform="translate(-1676.78 -2718.609)" fill="#fff"/>
      <path id="Path_2385" data-name="Path 2385" d="M1846.192,2572.99h101.871a8.123,8.123,0,0,1,8.122,8.122v2.41a8.123,8.123,0,0,1-8.122,8.122H1846.192a8.123,8.123,0,0,1-8.122-8.122v-2.41A8.123,8.123,0,0,1,1846.192,2572.99Z" transform="translate(-1720.099 -2407.852)" fill="#0c3e5e"/>
      <circle id="Ellipse_643" data-name="Ellipse 643" cx="6.455" cy="6.455" r="6.455" transform="translate(121.897 167.473)" fill="#fff"/>
      <circle id="Ellipse_644" data-name="Ellipse 644" cx="1.785" cy="1.785" r="1.785" transform="translate(136.013 176.814)" fill="#1da1f3"/>
      <circle id="Ellipse_645" data-name="Ellipse 645" cx="1.785" cy="1.785" r="1.785" transform="translate(214.586 176.814)" fill="#1da1f3"/>
      <circle id="Ellipse_646" data-name="Ellipse 646" cx="6.455" cy="6.455" r="6.455" transform="translate(219.047 167.296)" fill="#fff"/>
      <path id="Path_2386" data-name="Path 2386" d="M2393.12,2572.99h46.9v10.519a3.929,3.929,0,0,1-3.928,3.928h-39.044a3.929,3.929,0,0,1-3.928-3.928V2572.99h0Z" transform="translate(-2239.525 -2407.852)" fill="#6bc2f7"/>
      <circle id="Ellipse_647" data-name="Ellipse 647" cx="0.47" cy="0.47" r="0.47" transform="translate(179.673 167.044)" fill="#fff"/>
      <circle id="Ellipse_648" data-name="Ellipse 648" cx="0.47" cy="0.47" r="0.47" transform="translate(182.636 167.044)" fill="#fff"/>
      <circle id="Ellipse_649" data-name="Ellipse 649" cx="0.47" cy="0.47" r="0.47" transform="translate(185.599 167.044)" fill="#fff"/>
      <circle id="Ellipse_650" data-name="Ellipse 650" cx="0.47" cy="0.47" r="0.47" transform="translate(188.562 167.044)" fill="#fff"/>
      <circle id="Ellipse_651" data-name="Ellipse 651" cx="0.47" cy="0.47" r="0.47" transform="translate(191.524 167.044)" fill="#fff"/>
      <circle id="Ellipse_652" data-name="Ellipse 652" cx="0.47" cy="0.47" r="0.47" transform="translate(194.487 167.044)" fill="#fff"/>
      <circle id="Ellipse_653" data-name="Ellipse 653" cx="0.47" cy="0.47" r="0.47" transform="translate(158.934 167.044)" fill="#fff"/>
      <circle id="Ellipse_654" data-name="Ellipse 654" cx="0.47" cy="0.47" r="0.47" transform="translate(161.897 167.044)" fill="#fff"/>
      <circle id="Ellipse_655" data-name="Ellipse 655" cx="0.47" cy="0.47" r="0.47" transform="translate(164.86 167.044)" fill="#fff"/>
      <circle id="Ellipse_656" data-name="Ellipse 656" cx="0.47" cy="0.47" r="0.47" transform="translate(167.823 167.044)" fill="#fff"/>
      <circle id="Ellipse_657" data-name="Ellipse 657" cx="0.47" cy="0.47" r="0.47" transform="translate(170.785 167.044)" fill="#fff"/>
      <circle id="Ellipse_658" data-name="Ellipse 658" cx="0.47" cy="0.47" r="0.47" transform="translate(173.748 167.044)" fill="#fff"/>
      <circle id="Ellipse_659" data-name="Ellipse 659" cx="0.47" cy="0.47" r="0.47" transform="translate(176.711 167.044)" fill="#fff"/>
      <circle id="Ellipse_660" data-name="Ellipse 660" cx="0.47" cy="0.47" r="0.47" transform="translate(181.154 168.588)" fill="#fff"/>
      <circle id="Ellipse_661" data-name="Ellipse 661" cx="0.47" cy="0.47" r="0.47" transform="translate(184.117 168.588)" fill="#fff"/>
      <circle id="Ellipse_662" data-name="Ellipse 662" cx="0.47" cy="0.47" r="0.47" transform="translate(187.08 168.588)" fill="#fff"/>
      <circle id="Ellipse_663" data-name="Ellipse 663" cx="0.47" cy="0.47" r="0.47" transform="translate(190.043 168.588)" fill="#fff"/>
      <circle id="Ellipse_664" data-name="Ellipse 664" cx="0.47" cy="0.47" r="0.47" transform="translate(193.006 168.588)" fill="#fff"/>
      <circle id="Ellipse_665" data-name="Ellipse 665" cx="0.47" cy="0.47" r="0.47" transform="translate(195.969 168.588)" fill="#fff"/>
      <circle id="Ellipse_666" data-name="Ellipse 666" cx="0.47" cy="0.47" r="0.47" transform="translate(160.415 168.588)" fill="#fff"/>
      <circle id="Ellipse_667" data-name="Ellipse 667" cx="0.47" cy="0.47" r="0.47" transform="translate(157.453 168.588)" fill="#fff"/>
      <circle id="Ellipse_668" data-name="Ellipse 668" cx="0.47" cy="0.47" r="0.47" transform="translate(163.379 168.588)" fill="#fff"/>
      <circle id="Ellipse_669" data-name="Ellipse 669" cx="0.47" cy="0.47" r="0.47" transform="translate(166.341 168.588)" fill="#fff"/>
      <circle id="Ellipse_670" data-name="Ellipse 670" cx="0.47" cy="0.47" r="0.47" transform="translate(169.304 168.588)" fill="#fff"/>
      <circle id="Ellipse_671" data-name="Ellipse 671" cx="0.47" cy="0.47" r="0.47" transform="translate(172.267 168.588)" fill="#fff"/>
      <circle id="Ellipse_672" data-name="Ellipse 672" cx="0.47" cy="0.47" r="0.47" transform="translate(175.23 168.588)" fill="#fff"/>
      <circle id="Ellipse_673" data-name="Ellipse 673" cx="0.47" cy="0.47" r="0.47" transform="translate(178.192 168.588)" fill="#fff"/>
      <circle id="Ellipse_674" data-name="Ellipse 674" cx="0.47" cy="0.47" r="0.47" transform="translate(179.673 170.132)" fill="#fff"/>
      <circle id="Ellipse_675" data-name="Ellipse 675" cx="0.47" cy="0.47" r="0.47" transform="translate(182.636 170.132)" fill="#fff"/>
      <circle id="Ellipse_676" data-name="Ellipse 676" cx="0.47" cy="0.47" r="0.47" transform="translate(185.599 170.132)" fill="#fff"/>
      <circle id="Ellipse_677" data-name="Ellipse 677" cx="0.47" cy="0.47" r="0.47" transform="translate(188.562 170.132)" fill="#fff"/>
      <circle id="Ellipse_678" data-name="Ellipse 678" cx="0.47" cy="0.47" r="0.47" transform="translate(191.524 170.132)" fill="#fff"/>
      <circle id="Ellipse_679" data-name="Ellipse 679" cx="0.47" cy="0.47" r="0.47" transform="translate(194.487 170.132)" fill="#fff"/>
      <circle id="Ellipse_680" data-name="Ellipse 680" cx="0.47" cy="0.47" r="0.47" transform="translate(197.45 170.132)" fill="#fff"/>
      <circle id="Ellipse_681" data-name="Ellipse 681" cx="0.47" cy="0.47" r="0.47" transform="translate(158.934 170.132)" fill="#fff"/>
      <circle id="Ellipse_682" data-name="Ellipse 682" cx="0.47" cy="0.47" r="0.47" transform="translate(155.971 170.132)" fill="#fff"/>
      <circle id="Ellipse_683" data-name="Ellipse 683" cx="0.47" cy="0.47" r="0.47" transform="translate(161.897 170.132)" fill="#fff"/>
      <circle id="Ellipse_684" data-name="Ellipse 684" cx="0.47" cy="0.47" r="0.47" transform="translate(164.86 170.132)" fill="#fff"/>
      <circle id="Ellipse_685" data-name="Ellipse 685" cx="0.47" cy="0.47" r="0.47" transform="translate(167.823 170.132)" fill="#fff"/>
      <circle id="Ellipse_686" data-name="Ellipse 686" cx="0.47" cy="0.47" r="0.47" transform="translate(170.785 170.132)" fill="#fff"/>
      <circle id="Ellipse_687" data-name="Ellipse 687" cx="0.47" cy="0.47" r="0.47" transform="translate(173.748 170.132)" fill="#fff"/>
      <circle id="Ellipse_688" data-name="Ellipse 688" cx="0.47" cy="0.47" r="0.47" transform="translate(176.711 170.132)" fill="#fff"/>
      <circle id="Ellipse_689" data-name="Ellipse 689" cx="0.47" cy="0.47" r="0.47" transform="translate(181.154 171.675)" fill="#fff"/>
      <circle id="Ellipse_690" data-name="Ellipse 690" cx="0.47" cy="0.47" r="0.47" transform="translate(184.117 171.675)" fill="#fff"/>
      <circle id="Ellipse_691" data-name="Ellipse 691" cx="0.47" cy="0.47" r="0.47" transform="translate(187.08 171.675)" fill="#fff"/>
      <circle id="Ellipse_692" data-name="Ellipse 692" cx="0.47" cy="0.47" r="0.47" transform="translate(190.043 171.675)" fill="#fff"/>
      <circle id="Ellipse_693" data-name="Ellipse 693" cx="0.47" cy="0.47" r="0.47" transform="translate(193.006 171.675)" fill="#fff"/>
      <circle id="Ellipse_694" data-name="Ellipse 694" cx="0.47" cy="0.47" r="0.47" transform="translate(195.969 171.675)" fill="#fff"/>
      <circle id="Ellipse_695" data-name="Ellipse 695" cx="0.47" cy="0.47" r="0.47" transform="translate(160.415 171.675)" fill="#fff"/>
      <circle id="Ellipse_696" data-name="Ellipse 696" cx="0.47" cy="0.47" r="0.47" transform="translate(157.453 171.675)" fill="#fff"/>
      <circle id="Ellipse_697" data-name="Ellipse 697" cx="0.47" cy="0.47" r="0.47" transform="translate(163.379 171.675)" fill="#fff"/>
      <circle id="Ellipse_698" data-name="Ellipse 698" cx="0.47" cy="0.47" r="0.47" transform="translate(166.341 171.675)" fill="#fff"/>
      <circle id="Ellipse_699" data-name="Ellipse 699" cx="0.47" cy="0.47" r="0.47" transform="translate(169.304 171.675)" fill="#fff"/>
      <circle id="Ellipse_700" data-name="Ellipse 700" cx="0.47" cy="0.47" r="0.47" transform="translate(172.267 171.675)" fill="#fff"/>
      <circle id="Ellipse_701" data-name="Ellipse 701" cx="0.47" cy="0.47" r="0.47" transform="translate(175.23 171.675)" fill="#fff"/>
      <circle id="Ellipse_702" data-name="Ellipse 702" cx="0.47" cy="0.47" r="0.47" transform="translate(178.192 171.675)" fill="#fff"/>
      <circle id="Ellipse_703" data-name="Ellipse 703" cx="0.47" cy="0.47" r="0.47" transform="translate(179.673 173.22)" fill="#fff"/>
      <circle id="Ellipse_704" data-name="Ellipse 704" cx="0.47" cy="0.47" r="0.47" transform="translate(182.636 173.22)" fill="#fff"/>
      <circle id="Ellipse_705" data-name="Ellipse 705" cx="0.47" cy="0.47" r="0.47" transform="translate(185.599 173.22)" fill="#fff"/>
      <circle id="Ellipse_706" data-name="Ellipse 706" cx="0.47" cy="0.47" r="0.47" transform="translate(188.562 173.22)" fill="#fff"/>
      <circle id="Ellipse_707" data-name="Ellipse 707" cx="0.47" cy="0.47" r="0.47" transform="translate(191.524 173.22)" fill="#fff"/>
      <circle id="Ellipse_708" data-name="Ellipse 708" cx="0.47" cy="0.47" r="0.47" transform="translate(194.487 173.22)" fill="#fff"/>
      <circle id="Ellipse_709" data-name="Ellipse 709" cx="0.47" cy="0.47" r="0.47" transform="translate(197.45 173.22)" fill="#fff"/>
      <circle id="Ellipse_710" data-name="Ellipse 710" cx="0.47" cy="0.47" r="0.47" transform="translate(158.934 173.22)" fill="#fff"/>
      <circle id="Ellipse_711" data-name="Ellipse 711" cx="0.47" cy="0.47" r="0.47" transform="translate(155.971 173.22)" fill="#fff"/>
      <circle id="Ellipse_712" data-name="Ellipse 712" cx="0.47" cy="0.47" r="0.47" transform="translate(161.897 173.22)" fill="#fff"/>
      <circle id="Ellipse_713" data-name="Ellipse 713" cx="0.47" cy="0.47" r="0.47" transform="translate(164.86 173.22)" fill="#fff"/>
      <circle id="Ellipse_714" data-name="Ellipse 714" cx="0.47" cy="0.47" r="0.47" transform="translate(167.823 173.22)" fill="#fff"/>
      <circle id="Ellipse_715" data-name="Ellipse 715" cx="0.47" cy="0.47" r="0.47" transform="translate(170.785 173.22)" fill="#fff"/>
      <circle id="Ellipse_716" data-name="Ellipse 716" cx="0.47" cy="0.47" r="0.47" transform="translate(173.748 173.22)" fill="#fff"/>
      <circle id="Ellipse_717" data-name="Ellipse 717" cx="0.47" cy="0.47" r="0.47" transform="translate(176.711 173.22)" fill="#fff"/>
      <circle id="Ellipse_718" data-name="Ellipse 718" cx="0.47" cy="0.47" r="0.47" transform="translate(181.154 174.763)" fill="#fff"/>
      <circle id="Ellipse_719" data-name="Ellipse 719" cx="0.47" cy="0.47" r="0.47" transform="translate(184.117 174.763)" fill="#fff"/>
      <circle id="Ellipse_720" data-name="Ellipse 720" cx="0.47" cy="0.47" r="0.47" transform="translate(187.08 174.763)" fill="#fff"/>
      <circle id="Ellipse_721" data-name="Ellipse 721" cx="0.47" cy="0.47" r="0.47" transform="translate(190.043 174.763)" fill="#fff"/>
      <circle id="Ellipse_722" data-name="Ellipse 722" cx="0.47" cy="0.47" r="0.47" transform="translate(193.006 174.763)" fill="#fff"/>
      <circle id="Ellipse_723" data-name="Ellipse 723" cx="0.47" cy="0.47" r="0.47" transform="translate(195.969 174.763)" fill="#fff"/>
      <circle id="Ellipse_724" data-name="Ellipse 724" cx="0.47" cy="0.47" r="0.47" transform="translate(160.415 174.763)" fill="#fff"/>
      <circle id="Ellipse_725" data-name="Ellipse 725" cx="0.47" cy="0.47" r="0.47" transform="translate(157.453 174.763)" fill="#fff"/>
      <circle id="Ellipse_726" data-name="Ellipse 726" cx="0.47" cy="0.47" r="0.47" transform="translate(163.379 174.763)" fill="#fff"/>
      <circle id="Ellipse_727" data-name="Ellipse 727" cx="0.47" cy="0.47" r="0.47" transform="translate(166.341 174.763)" fill="#fff"/>
      <circle id="Ellipse_728" data-name="Ellipse 728" cx="0.47" cy="0.47" r="0.47" transform="translate(169.304 174.763)" fill="#fff"/>
      <circle id="Ellipse_729" data-name="Ellipse 729" cx="0.47" cy="0.47" r="0.47" transform="translate(172.267 174.763)" fill="#fff"/>
      <circle id="Ellipse_730" data-name="Ellipse 730" cx="0.47" cy="0.47" r="0.47" transform="translate(175.23 174.763)" fill="#fff"/>
      <circle id="Ellipse_731" data-name="Ellipse 731" cx="0.47" cy="0.47" r="0.47" transform="translate(178.192 174.763)" fill="#fff"/>
      <circle id="Ellipse_732" data-name="Ellipse 732" cx="0.47" cy="0.47" r="0.47" transform="translate(179.673 176.306)" fill="#fff"/>
      <circle id="Ellipse_733" data-name="Ellipse 733" cx="0.47" cy="0.47" r="0.47" transform="translate(182.636 176.306)" fill="#fff"/>
      <circle id="Ellipse_734" data-name="Ellipse 734" cx="0.47" cy="0.47" r="0.47" transform="translate(185.599 176.306)" fill="#fff"/>
      <circle id="Ellipse_735" data-name="Ellipse 735" cx="0.47" cy="0.47" r="0.47" transform="translate(188.562 176.306)" fill="#fff"/>
      <circle id="Ellipse_736" data-name="Ellipse 736" cx="0.47" cy="0.47" r="0.47" transform="translate(191.524 176.306)" fill="#fff"/>
      <circle id="Ellipse_737" data-name="Ellipse 737" cx="0.47" cy="0.47" r="0.47" transform="translate(194.487 176.306)" fill="#fff"/>
      <circle id="Ellipse_738" data-name="Ellipse 738" cx="0.47" cy="0.47" r="0.47" transform="translate(158.934 176.306)" fill="#fff"/>
      <circle id="Ellipse_739" data-name="Ellipse 739" cx="0.47" cy="0.47" r="0.47" transform="translate(161.897 176.306)" fill="#fff"/>
      <circle id="Ellipse_740" data-name="Ellipse 740" cx="0.47" cy="0.47" r="0.47" transform="translate(164.86 176.306)" fill="#fff"/>
      <circle id="Ellipse_741" data-name="Ellipse 741" cx="0.47" cy="0.47" r="0.47" transform="translate(167.823 176.306)" fill="#fff"/>
      <circle id="Ellipse_742" data-name="Ellipse 742" cx="0.47" cy="0.47" r="0.47" transform="translate(170.785 176.306)" fill="#fff"/>
      <circle id="Ellipse_743" data-name="Ellipse 743" cx="0.47" cy="0.47" r="0.47" transform="translate(173.748 176.306)" fill="#fff"/>
      <circle id="Ellipse_744" data-name="Ellipse 744" cx="0.47" cy="0.47" r="0.47" transform="translate(176.711 176.306)" fill="#fff"/>
      <path id="Path_2387" data-name="Path 2387" d="M1889.98,2977.37h16.685v9.692a5.375,5.375,0,0,1-5.374,5.374h-5.936a5.375,5.375,0,0,1-5.374-5.374v-9.692h0Z" transform="translate(-1768.678 -2786.278)" fill="#0a324d"/>
      <path id="Path_2388" data-name="Path 2388" d="M1889.99,2977.37h16.684v5.043l-16.684-2.721Z" transform="translate(-1768.687 -2786.278)" fill="#1a0c12"/>
      <path id="Path_2389" data-name="Path 2389" d="M3353.14,2977.37h16.685v9.692a5.375,5.375,0,0,1-5.374,5.374h-5.937a5.375,5.375,0,0,1-5.374-5.374Z" transform="translate(-3137.929 -2786.278)" fill="#0a324d"/>
      <path id="Path_2390" data-name="Path 2390" d="M3353.14,2977.37h16.686v5.043l-16.686-2.721Z" transform="translate(-3137.929 -2786.278)" fill="#1a0c12"/>
      <path id="Path_2391" data-name="Path 2391" d="M2803.625,2071.1h-41.057a5.87,5.87,0,0,1-5.43-8.1l.906-2.2a14.948,14.948,0,0,1,13.825-9.269h13.707a14.945,14.945,0,0,1,13.822,9.269l4.227,10.3Z" transform="translate(-2579.763 -1919.861)" fill="#fff"/>
      <path id="Path_2393" data-name="Path 2393" d="M3026.262,1988.619l-2.921-4.319h-5.131v4.319A7.826,7.826,0,0,0,3026.262,1988.619Z" transform="translate(-2824.496 -1856.945)" fill="#ad764f"/>
      <path id="Path_2394" data-name="Path 2394" d="M3023.352,1984.3h-5.131v4.319a6.681,6.681,0,0,0,1.973.845l3.072-3.6a1.29,1.29,0,0,0,.086-1.56Z" transform="translate(-2824.505 -1856.945)" fill="#5c3b24"/>
      <path id="HEAD-2" data-name="HEAD" d="M2995.563,1925.937l-.783.3-.014-.037a1.542,1.542,0,0,1-.88,1.994l-1.872.727a1.543,1.543,0,0,1-2-.879h0l-.78.355a1.016,1.016,0,0,1-1.314-.578l-.065-.17a1,1,0,0,1-.069-.367,1.015,1.015,0,0,1,.647-.945l.78-.355-.12-.307a1.544,1.544,0,0,1,.879-2l1.872-.727a1.542,1.542,0,0,1,2,.878l.136.349.783-.3a1.015,1.015,0,0,1,1.313.578l.066.17a1.025,1.025,0,0,1,.069.366,1.013,1.013,0,0,1-.647.945h0Z" transform="translate(-2796.028 -1799.439)" fill="#ad764f"/>
      <path id="Path_2395" data-name="Path 2395" d="M3091.031,1943.049a.326.326,0,1,1-.61.23.927.927,0,0,1-.045-.164.968.968,0,0,1-.017-.17.949.949,0,0,1,.6-.882.326.326,0,0,1,.237.607.29.29,0,0,0-.136.108.3.3,0,0,0-.051.166.279.279,0,0,0,0,.053h0a.242.242,0,0,0,.015.051Z" transform="translate(-2892.015 -1817.398)" fill="#5c3b24"/>
      <path id="Path_2396" data-name="Path 2396" d="M2995.55,1980.028a.326.326,0,0,1-.6.261.295.295,0,0,0-.27-.176.3.3,0,0,0-.061.005.255.255,0,0,0-.059.018.325.325,0,1,1-.26-.6.891.891,0,0,1,.185-.059.983.983,0,0,1,.193-.021.949.949,0,0,1,.868.569Z" transform="translate(-2801.94 -1852.416)" fill="#59221d"/>
      <path id="Path_2397" data-name="Path 2397" d="M3019.189,1959.305a.326.326,0,1,1-.645.1,1.593,1.593,0,0,0-.778-1.144c-.05-.029-.056-.023-.064-.016a.813.813,0,0,1-.782.255.325.325,0,1,1,.084-.645.261.261,0,0,0,.25-.082c.2-.2.366-.349.84-.076a2.247,2.247,0,0,1,1.1,1.61Z" transform="translate(-2823.023 -1831.91)" fill="#5c3b24"/>
      <path id="Path_2398" data-name="Path 2398" d="M3048.162,1944.86a.326.326,0,1,1-.135-.637,1.671,1.671,0,0,0,.852-.458.325.325,0,0,1,.512.4,2.364,2.364,0,0,1-1.229.7Z" transform="translate(-2852.157 -1818.895)" fill="#5c3b24"/>
      <ellipse id="Ellipse_745" data-name="Ellipse 745" cx="0.179" cy="0.305" rx="0.179" ry="0.305" transform="translate(196.342 125.858) rotate(-23.141)" fill="#5c3b24"/>
      <ellipse id="Ellipse_746" data-name="Ellipse 746" cx="0.179" cy="0.305" rx="0.179" ry="0.305" transform="translate(194.437 126.635) rotate(-23.141)" fill="#5c3b24"/>
      <path id="Path_2399" data-name="Path 2399" d="M3051.725,1985.414a.326.326,0,0,1-.559-.334s.515-.869,1.146-.677a.325.325,0,1,1-.189.623C3051.983,1984.983,3051.726,1985.413,3051.725,1985.414Z" transform="translate(-2855.294 -1857.015)" fill="#5c3b24"/>
      <path id="SEAT_BELT" data-name="SEAT BELT" d="M3156.86,1969.634h3.19l9.388-18.877-1.364-3.677Z" transform="translate(-2954.247 -1822.114)" fill="#0a324d"/>
      <path id="Path_2400" data-name="Path 2400" d="M2982.56,2221.869a8.032,8.032,0,0,1,2.564-5.855,9.065,9.065,0,0,1,12.32,0,8.034,8.034,0,0,1,2.566,5.855h-.817a7.224,7.224,0,0,0-2.307-5.262,8.258,8.258,0,0,0-11.2,0,7.22,7.22,0,0,0-2.305,5.262h-.816Z" transform="translate(-2791.134 -2071.528)" fill="#0a324d"/>
      <path id="Path_2401" data-name="Path 2401" d="M3127.127,2189.753h-22.416s-2.61-3.9,1.711-5.594c5.315-2.088,13.15-2.419,17.8-1.93Z" transform="translate(-2904.714 -2041.986)" fill="#ad764f"/>
      <path id="Path_2402" data-name="Path 2402" d="M3107.17,2238.223a.326.326,0,1,1,.237.607,3.365,3.365,0,0,0-1.48.987,2.648,2.648,0,0,0-.486,1.175.326.326,0,1,1-.64-.125,3.251,3.251,0,0,1,.613-1.45A3.982,3.982,0,0,1,3107.17,2238.223Z" transform="translate(-2905.523 -2094.55)" fill="#5c3b24"/>
      <path id="Path_2403" data-name="Path 2403" d="M3117.619,2260.8a.326.326,0,0,1,.238.607,4.062,4.062,0,0,0-1.5.876,1.923,1.923,0,0,0-.467,1.017.326.326,0,0,1-.64-.125,2.522,2.522,0,0,1,.632-1.339,4.638,4.638,0,0,1,1.738-1.037Z" transform="translate(-2915.302 -2115.681)" fill="#5c3b24"/>
      <path id="Path_2407" data-name="Path 2407" d="M3003.867,1927.365a.325.325,0,0,1,.253.6l-.71.3a.977.977,0,0,0-.6.9.962.962,0,0,0,.01.142,1.042,1.042,0,0,0,.03.138l.938,3.193a.326.326,0,1,1-.625.183l-.938-3.193a1.638,1.638,0,0,1-.051-.23,1.605,1.605,0,0,1-.017-.234,1.629,1.629,0,0,1,1-1.5l.71-.3Z" transform="translate(-2809.476 -1803.64)" fill="#5c3b24"/>
      <path id="BLOUSE" d="M2091.331,2089.853h-38.772l2.443-6.583a12.277,12.277,0,0,1,11.509-8.006h9.59c6.5-.16,10.624,3.376,12.748,8.546Z" transform="translate(-1920.822 -1942.066)" fill="#50b0eb"/>
      <path id="Path_2408" data-name="Path 2408" d="M2302.3,2014.138l-4.972,7.963-3.96-7.963h.564a1.3,1.3,0,0,0,1.3-1.3v-2.9h3.94l1.075,3.3a1.294,1.294,0,0,0,1.231.894h.828Z" transform="translate(-2146.177 -1880.94)" fill="#fff"/>
      <path id="Path_2409" data-name="Path 2409" d="M2326.309,2010.181a5.552,5.552,0,0,1-2.661,2.566c-.471.218-1.124.223-1.348-.042v-2.765h3.958l.051.24Z" transform="translate(-2173.25 -1880.94)" fill="#0c3e5e"/>
      <circle id="Ellipse_747" data-name="Ellipse 747" cx="0.839" cy="0.839" r="0.839" transform="translate(163.121 132.772)" fill="#0c3e5e"/>
      <path id="Path_2410" data-name="Path 2410" d="M2337.715,1927.965a4.269,4.269,0,0,1-1.128,2.742,13.478,13.478,0,0,0-4.765-.949h-.845a1.3,1.3,0,0,1-1.214-.894l-1.01-3.1c-1.216-.7-4.207-4.331-3.8-4.985.33-.532,1.289-1.138,3-.976a3.48,3.48,0,0,1,3.054,3.9,5.088,5.088,0,0,1,1.874-.358c.062,0,.126,0,.187,0A4.636,4.636,0,0,1,2337.715,1927.965Z" transform="translate(-2175.697 -1796.559)" fill="#0c3e5e"/>
      <path id="Path_2411" data-name="Path 2411" d="M2302.4,1948.593a4.846,4.846,0,0,1-2.749,1.3,2.644,2.644,0,0,1-1.446-.213,1.161,1.161,0,0,1-.69-1.061,1.21,1.21,0,0,1,.014-.181l.15-.961-.266-.078a.459.459,0,0,1-.3-.615l1.863-2.39a14.605,14.605,0,0,0,3.42,4.193Z" transform="translate(-2149.649 -1819.606)" fill="#fff"/>
      <path id="Path_2412" data-name="Path 2412" d="M2321.8,1958.544a.326.326,0,0,1-.62.2.82.82,0,0,0-.55-.538.325.325,0,0,1,.15-.633,1.486,1.486,0,0,1,1.019.972Z" transform="translate(-2171.458 -1831.925)" fill="#1da1f3"/>
      <ellipse id="Ellipse_748" data-name="Ellipse 748" cx="0.373" cy="0.211" rx="0.373" ry="0.211" transform="translate(148.938 127.212) rotate(-69.41)" fill="#0a324d"/>
      <circle id="Ellipse_749" data-name="Ellipse 749" cx="0.741" cy="0.741" r="0.741" transform="translate(150.184 127.836)" fill="#a3d9fa"/>
      <path id="SEAT_BELT-2" data-name="SEAT BELT" d="M2170.29,1984.452H2167.2l-9.083-18.265,1.319-3.558Z" transform="translate(-2019.608 -1836.666)" fill="#0a324d"/>
      <path id="Path_2413" data-name="Path 2413" d="M2635.858,1823.73h12.615a1.648,1.648,0,0,1,1.648,1.648v1.244a1.648,1.648,0,0,1-1.648,1.648h-12.615a1.648,1.648,0,0,1-1.648-1.648v-1.244A1.648,1.648,0,0,1,2635.858,1823.73Z" transform="translate(-2465.142 -1706.681)" fill="#1da1f3"/>
      <path id="Path_2414" data-name="Path 2414" d="M2635.858,1814.34h12.615a1.648,1.648,0,0,1,1.648,1.648v1.245a1.648,1.648,0,0,1-1.648,1.648h-12.615a1.648,1.648,0,0,1-1.648-1.648v-1.245A1.648,1.648,0,0,1,2635.858,1814.34Z" transform="translate(-2465.142 -1697.894)" fill="#1da1f3"/>
      <path id="Path_2415" data-name="Path 2415" d="M2629.916,1807.99h12.614a2.053,2.053,0,0,1,2.054,2.056h0v1.245h0a2.053,2.053,0,0,1-2.056,2.054h-12.614a2.054,2.054,0,0,1-2.056-2.054v-1.245a2.056,2.056,0,0,1,2.056-2.056Zm12.614.816h-12.615a1.24,1.24,0,0,0-1.24,1.24v1.245a1.242,1.242,0,0,0,1.24,1.241h12.614a1.242,1.242,0,0,0,1.24-1.241h0v-1.245h0a1.243,1.243,0,0,0-1.241-1.24Z" transform="translate(-2459.199 -1691.951)" fill="#0a324d"/>
      <path id="Path_2416" data-name="Path 2416" d="M2752.616,1766.13v3.094h-.816v-3.094Z" transform="translate(-2575.185 -1652.778)" fill="#0a324d"/>
      <path id="Path_2417" data-name="Path 2417" d="M1912.7,2194.779v3.465a4.659,4.659,0,0,1-4.658,4.658H1792.828a4.659,4.659,0,0,1-4.658-4.658v-3.465a2.4,2.4,0,0,1,2.379-2.4c9.177-.088,12.006,7.077,12.006,7.077h95.758s2.829-7.165,12.006-7.077a2.4,2.4,0,0,1,2.379,2.4h0Z" transform="translate(-1673.402 -2051.668)" fill="#1da1f3"/>
      <path id="Path_2418" data-name="Path 2418" d="M3499.117,2189.457a.488.488,0,1,1-.9-.368c.009-.021,2.952-7.472,12.461-7.382a.488.488,0,1,1-.008.976c-8.843-.085-11.542,6.753-11.551,6.773Z" transform="translate(-3273.658 -2041.682)" fill="#fff"/>
      <path id="Path_2419" data-name="Path 2419" d="M1830.594,2187.245a.489.489,0,0,1-.9.375c-.008-.019-2.705-6.683-11.55-6.6a.488.488,0,0,1-.008-.976C1827.642,2179.955,1830.586,2187.224,1830.594,2187.245Z" transform="translate(-1700.99 -2040.128)" fill="#fff"/>
      <path id="Path_2420" data-name="Path 2420" d="M1776.772,2514.18h109.856a8.615,8.615,0,0,1,8.612,8.612v9.335a8.615,8.615,0,0,1-8.612,8.612H1776.772a8.614,8.614,0,0,1-8.612-8.612h0v-9.335a8.61,8.61,0,0,1,8.61-8.612Zm109.856.979H1776.772a7.636,7.636,0,0,0-7.634,7.632v9.335h0a7.633,7.633,0,0,0,7.632,7.632h109.856a7.633,7.633,0,0,0,7.632-7.632v-9.335a7.633,7.633,0,0,0-7.632-7.632Z" transform="translate(-1654.676 -2352.816)" fill="#fff"/>
      <path id="Path_2421" data-name="Path 2421" d="M2176.853,2358.1h-79.3a2.886,2.886,0,0,1-1.918-.708,3.005,3.005,0,0,1-1.019-2.239h0a2.884,2.884,0,0,1,.723-1.911l3.931-4.515h75.854l3.93,4.515h0a2.884,2.884,0,0,1,.73,1.913,2.985,2.985,0,0,1-1.016,2.232,2.886,2.886,0,0,1-1.92.712Zm-79.3-.979h79.3a1.916,1.916,0,0,0,1.277-.467,2,2,0,0,0,.679-1.5,1.912,1.912,0,0,0-.485-1.271h0l-3.637-4.177h-74.963l-3.639,4.177a1.916,1.916,0,0,0-.487,1.269h0a1.988,1.988,0,0,0,.683,1.5,1.918,1.918,0,0,0,1.275.467Z" transform="translate(-1960.184 -2197.985)" fill="#fff"/>
      <path id="Path_2422" data-name="Path 2422" d="M2136.882,1792.663h-90.613a.409.409,0,0,1-.408-.408.4.4,0,0,1,.03-.152l11.376-30.679a.372.372,0,0,1,.045-.089,7.681,7.681,0,0,1,2.73-2.73,7.41,7.41,0,0,1,3.707-1.037l55.576-.32a7.067,7.067,0,0,1,3.793,1.083,7.611,7.611,0,0,1,2.724,2.982.379.379,0,0,1,.02.045h0l11.4,30.755a.409.409,0,0,1-.384.55Zm-90.027-.816H2136.3l-11.195-30.188a6.791,6.791,0,0,0-2.415-2.635,6.259,6.259,0,0,0-3.36-.962l-55.575.32a6.6,6.6,0,0,0-3.3.925,6.847,6.847,0,0,0-2.432,2.429l-11.165,30.111Z" transform="translate(-1914.553 -1644.466)" fill="#fff"/>
      <path id="Path_2423" data-name="Path 2423" d="M1978.06,2349.7a.49.49,0,0,1,0-.979h98.948a.49.49,0,0,1,0,.979Z" transform="translate(-1850.646 -2197.976)" fill="#fff"/>
      <path id="Path_2424" data-name="Path 2424" d="M2828.267,1883.533a.407.407,0,1,1-.565-.586l6.111-5.866a.407.407,0,0,1,.565.587Z" transform="translate(-2646.098 -1756.501)" fill="#fff"/>
      <path id="Path_2425" data-name="Path 2425" d="M2782.107,1992.872a.407.407,0,0,1-.565-.587l1.463-1.4a.407.407,0,0,1,.565.587Z" transform="translate(-2602.901 -1862.998)" fill="#fff"/>
      <path id="Path_2426" data-name="Path 2426" d="M2574.617,2072.17a.407.407,0,1,1-.565-.586l10.027-9.623a.407.407,0,0,1,.565.587Z" transform="translate(-2408.728 -1929.516)" fill="#fff"/>
      <path id="Path_2427" data-name="Path 2427" d="M2693.227,1947.409a.407.407,0,1,1-.565-.587l4.951-4.751a.407.407,0,1,1,.564.587Z" transform="translate(-2519.725 -1817.32)" fill="#fff"/>
      <path id="Path_2428" data-name="Path 2428" d="M2438.077,2058.813a.407.407,0,0,1-.565-.587L2452,2044.321a.407.407,0,0,1,.565.587Z" transform="translate(-2280.951 -1913.008)" fill="#fff"/>
    </g>
  </g>
</svg>
