<svg id="Layer_x0020_1" xmlns="http://www.w3.org/2000/svg" width="39.995" height="40.055" viewBox="0 0 39.995 40.055">
  <g id="_2072685492368" transform="translate(0)">
    <path id="Path_2445" data-name="Path 2445" d="M17.594.31A17.051,17.051,0,0,1,29.781,5.418,17.295,17.295,0,0,1,17.594,34.9,17.051,17.051,0,0,1,5.408,29.791,17.295,17.295,0,0,1,17.594.31ZM28.526,6.672A15.577,15.577,0,1,0,33.007,17.6,15.363,15.363,0,0,0,28.526,6.672Z" transform="translate(2.388 2.468)" fill="#fffffd"/>
    <rect id="Rectangle_2197" data-name="Rectangle 2197" width="1.613" height="7.348" rx="0.09" transform="translate(19.176)" fill="#fffffd"/>
    <rect id="Rectangle_2198" data-name="Rectangle 2198" width="1.613" height="7.348" rx="0.09" transform="translate(19.176 32.707)" fill="#fffffd"/>
    <rect id="Rectangle_2199" data-name="Rectangle 2199" width="1.599" height="7.356" rx="0.095" transform="translate(32.639 20.867) rotate(-90)" fill="#fffffd"/>
    <rect id="Rectangle_2200" data-name="Rectangle 2200" width="1.599" height="7.356" rx="0.095" transform="translate(0 20.867) rotate(-90)" fill="#fffffd"/>
    <path id="Path_2446" data-name="Path 2446" d="M6.34,15.521h0a2.963,2.963,0,0,1-3.405.09h0a3.475,3.475,0,0,1-1.075-4.57L5.8,4.051c1.255-2.151,2.957-4.66,5.556,0L15.3,11.041a3.429,3.429,0,0,1-1.075,4.57h0a2.848,2.848,0,0,1-3.136,0h0c-.179-.09-.358-.269-.538-.358a3.48,3.48,0,0,0-4.3.269Z" transform="translate(11.313 11.272)" fill="#fffffd" fill-rule="evenodd"/>
  </g>
</svg>
