<svg xmlns="http://www.w3.org/2000/svg" width="30.594" height="30.594" viewBox="0 0 30.594 30.594">
  <path id="Path_1815" data-name="Path 1815" d="M17.3,11.734A5.563,5.563,0,1,0,22.86,17.3,5.561,5.561,0,0,0,17.3,11.734Zm12.432,4.172A12.508,12.508,0,0,0,18.688,4.865V2H15.906V4.865A12.508,12.508,0,0,0,4.865,15.906H2v2.781H4.865A12.508,12.508,0,0,0,15.906,29.729v2.865h2.781V29.729A12.508,12.508,0,0,0,29.729,18.688h2.865V15.906ZM17.3,27.031A9.734,9.734,0,1,1,27.031,17.3,9.736,9.736,0,0,1,17.3,27.031Z" transform="translate(-2 -2)" fill="#1da1f3"/>
</svg>
