<svg xmlns="http://www.w3.org/2000/svg" width="587.06" height="422.04" viewBox="0 0 587.06 422.04">
  <g id="Layer_x0020_1" transform="translate(0 -0.01)">
    <g id="_105553370641952">
      <path id="Path_1" data-name="Path 1" d="M18.34,36.69H568.7a18.34,18.34,0,1,0,0-36.68H18.34a18.34,18.34,0,0,0,0,36.68Z"/>
      <path id="Path_2" data-name="Path 2" d="M570.89,128.42H85.91c-8.92,0-16.17,8.22-16.17,18.34s7.24,18.34,16.17,18.34H570.89c8.92,0,16.17-8.22,16.17-18.34S579.82,128.42,570.89,128.42Z"/>
      <path id="Path_3" data-name="Path 3" d="M572.45,256.84H280.36c-8.06,0-14.6,8.22-14.6,18.34s6.54,18.34,14.6,18.34H572.45c8.06,0,14.6-8.22,14.6-18.34S580.51,256.84,572.45,256.84Z"/>
      <path id="Path_4" data-name="Path 4" d="M560.37,385.37H26.68C11.95,385.37,0,393.59,0,403.71s11.96,18.34,26.68,18.34H560.37c14.73,0,26.68-8.22,26.68-18.34S575.1,385.37,560.37,385.37Z"/>
    </g>
  </g>
</svg>
