<svg id="Group_1740" data-name="Group 1740" xmlns="http://www.w3.org/2000/svg" width="22.244" height="12.147" viewBox="0 0 22.244 12.147">
  <g id="Layer_x0020_1">
    <circle id="Ellipse_491" data-name="Ellipse 491" cx="0.967" cy="0.967" r="0.967" transform="translate(3.048 4.142)" fill="#2f4667"/>
    <circle id="Ellipse_492" data-name="Ellipse 492" cx="0.967" cy="0.967" r="0.967" transform="translate(15.552 4.142)" fill="#2f4667"/>
    <path id="Path_1971" data-name="Path 1971" d="M47.678,171.29h-6a1.541,1.541,0,0,1-.638,1.25H57.322a1.542,1.542,0,0,1-.638-1.25h-6a2.842,2.842,0,0,1-3.006,0Z" transform="translate(-38.884 -162.263)" fill="#2f4667" fill-rule="evenodd"/>
    <path id="Path_1972" data-name="Path 1972" d="M1.44,45.676V40.948A1.541,1.541,0,0,1,.19,40.31v6.005a1.542,1.542,0,0,1,1.25-.638Z" transform="translate(-0.189 -38.193)" fill="#2f4667" fill-rule="evenodd"/>
    <path id="Path_1973" data-name="Path 1973" d="M42.617,1.4h6a2.842,2.842,0,0,1,3.006,0h6A1.541,1.541,0,0,1,58.209.19H42.03A1.54,1.54,0,0,1,42.617,1.4Z" transform="translate(-39.822 -0.189)" fill="#2f4667" fill-rule="evenodd"/>
    <path id="Path_1974" data-name="Path 1974" d="M339.114,1.4V2.945a1.54,1.54,0,0,0,1.133-.5V.354A1.529,1.529,0,0,0,340.07.19h-1.913A1.54,1.54,0,0,0,337.57,1.4Z" transform="translate(-319.771 -0.189)" fill="#2f4667" fill-rule="evenodd"/>
    <path id="Path_1975" data-name="Path 1975" d="M339.113,24.684V23.14H337.57A1.544,1.544,0,0,0,339.113,24.684Z" transform="translate(-319.771 -21.929)" fill="#2f4667" fill-rule="evenodd"/>
    <path id="Path_1976" data-name="Path 1976" d="M2.984,143.574H1.44V142.03a1.541,1.541,0,0,0-1.25.638v1.81a1.557,1.557,0,0,0,.346.346h1.81A1.542,1.542,0,0,0,2.984,143.574Z" transform="translate(-0.189 -134.547)" fill="#2f4667" fill-rule="evenodd"/>
    <path id="Path_1977" data-name="Path 1977" d="M23.89,142.03v1.544h1.544A1.544,1.544,0,0,0,23.89,142.03Z" transform="translate(-22.639 -134.547)" fill="#2f4667" fill-rule="evenodd"/>
    <path id="Path_1978" data-name="Path 1978" d="M.526,188.786a1.557,1.557,0,0,1-.346-.346v.346Z" transform="translate(-0.18 -178.509)" fill="#2f4667" fill-rule="evenodd"/>
    <path id="Path_1979" data-name="Path 1979" d="M337.56,143.574a1.541,1.541,0,0,0,.638,1.25h1.81a1.544,1.544,0,0,0,.228-.2v-2.1a1.538,1.538,0,0,0-1.133-.5v1.544H337.56Z" transform="translate(-319.762 -134.547)" fill="#2f4667" fill-rule="evenodd"/>
    <path id="Path_1980" data-name="Path 1980" d="M337.57,143.574h1.544V142.03A1.544,1.544,0,0,0,337.57,143.574Z" transform="translate(-319.771 -134.547)" fill="#2f4667" fill-rule="evenodd"/>
    <path id="Path_1981" data-name="Path 1981" d="M337.57,23.15a1.544,1.544,0,0,0,1.544,1.544V23.15Z" transform="translate(-319.771 -21.938)" fill="#2f4667" fill-rule="evenodd"/>
    <path id="Path_1982" data-name="Path 1982" d="M384.97.19a1.563,1.563,0,0,1,.177.164V.19Z" transform="translate(-364.671 -0.189)" fill="#2f4667" fill-rule="evenodd"/>
    <path id="Path_1983" data-name="Path 1983" d="M.19.487A1.556,1.556,0,0,1,.484.18H.19Z" transform="translate(-0.189 -0.18)" fill="#2f4667" fill-rule="evenodd"/>
    <path id="Path_1984" data-name="Path 1984" d="M.474.19A1.542,1.542,0,0,0,.18.5v1.81a1.542,1.542,0,0,0,1.25.638V1.4H2.974A1.541,1.541,0,0,0,2.387.19H.474Z" transform="translate(-0.18 -0.189)" fill="#2f4667" fill-rule="evenodd"/>
    <path id="Path_1985" data-name="Path 1985" d="M25.434,23.15H23.89v1.544A1.544,1.544,0,0,0,25.434,23.15Z" transform="translate(-22.639 -21.938)" fill="#2f4667" fill-rule="evenodd"/>
    <path id="Path_1986" data-name="Path 1986" d="M384.218,191.15a1.564,1.564,0,0,1-.228.2h.228Z" transform="translate(-363.742 -181.075)" fill="#2f4667" fill-rule="evenodd"/>
    <path id="Path_1987" data-name="Path 1987" d="M366.83,48.234a1.54,1.54,0,0,1,1.133.5V43.01a1.538,1.538,0,0,1-1.133.5v4.728Z" transform="translate(-347.488 -40.751)" fill="#2f4667" fill-rule="evenodd"/>
    <path id="Path_1988" data-name="Path 1988" d="M55.246,46.948H34.83V45.776H54.113V36.73h1.133V46.948Z" transform="translate(-33.002 -34.802)" fill="#2f4667" fill-rule="evenodd"/>
  </g>
</svg>
