<svg xmlns="http://www.w3.org/2000/svg" width="12" height="14.268" viewBox="0 0 12 14.268">
  <g id="moon" transform="translate(-30.274 0)">
    <g id="Group_1826" data-name="Group 1826" transform="translate(30.274 0)">
      <g id="Group_1825" data-name="Group 1825" transform="translate(0 0)">
        <path id="Path_2544" data-name="Path 2544" d="M41.662,12.608a.213.213,0,0,0-.154-.093H41.48A6.7,6.7,0,0,1,37.527.39a.213.213,0,0,0-.12-.39h0a7.133,7.133,0,1,0,4.2,12.9A.213.213,0,0,0,41.662,12.608Z" transform="translate(-30.274 0)" fill="#97c1d5"/>
      </g>
    </g>
    <g id="Group_1828" data-name="Group 1828" transform="translate(36.984 7.579)">
      <g id="Group_1827" data-name="Group 1827" transform="translate(0)">
        <path id="Path_2545" data-name="Path 2545" d="M211.75,203.088a.213.213,0,0,0-.088-.045v0l-.575-.138-.309-.5a.213.213,0,0,0-.364,0l-.312.5-.566.138a.213.213,0,0,0-.121.348l.384.45-.045.59a.213.213,0,0,0,.3.213l.549-.225.536.22a.213.213,0,0,0,.3-.208l-.045-.59.384-.45A.213.213,0,0,0,211.75,203.088Z" transform="translate(-209.362 -202.299)" fill="#97c1d5"/>
      </g>
    </g>
    <g id="Group_1830" data-name="Group 1830" transform="translate(36.661 1.699)">
      <g id="Group_1829" data-name="Group 1829" transform="translate(0)">
        <path id="Path_2546" data-name="Path 2546" d="M204.389,46.577a.213.213,0,0,0-.088-.045l0,.007-.983-.24-.531-.859a.213.213,0,0,0-.364,0l-.532.862-.974.238a.213.213,0,0,0-.124.336l.655.772-.076,1.01a.213.213,0,0,0,.3.213l.937-.384.925.379a.213.213,0,0,0,.3-.208l-.076-1.01.655-.772A.213.213,0,0,0,204.389,46.577Z" transform="translate(-200.753 -45.339)" fill="#97c1d5"/>
      </g>
    </g>
    <g id="Group_1832" data-name="Group 1832" transform="translate(40.212 5.737)">
      <g id="Group_1831" data-name="Group 1831">
        <path id="Path_2547" data-name="Path 2547" d="M297.52,153.784a.213.213,0,0,0-.088-.045l-.006,0-.45-.108-.238-.387a.213.213,0,0,0-.364,0l-.235.394-.435.106a.213.213,0,0,0-.123.343l.3.349-.034.45a.213.213,0,0,0,.3.213l.423-.174.411.168a.213.213,0,0,0,.3-.208l-.034-.45.3-.349A.213.213,0,0,0,297.52,153.784Z" transform="translate(-295.533 -153.139)" fill="#97c1d5"/>
      </g>
    </g>
  </g>
</svg>
