<svg xmlns="http://www.w3.org/2000/svg" width="148.25" height="147.532" viewBox="0 0 148.25 147.532">
  <g id="Layer_x0020_1" transform="translate(0 0.019)">
    <path id="Path_2507" data-name="Path 2507" d="M103.875,73.1a5.636,5.636,0,0,1,4.469,1.733c2.852,3.135,2.322,9.9-4.469,9.9-8.012,0-8.012-11.628,0-11.628Zm-59.69,0c8.012,0,8.012,11.628,0,11.628H42.635c-5.057,0-7.18-11.628,1.551-11.628Zm57.364-27.132h1.55c.309,3.715,4.3,9.886,5.426,14.729H91.471c2.639-3.94,9.3-11.805,10.077-14.729ZM77.519,60.693H40.31c.24-2.883,3.67-9.685,4.982-12.847,2.433-5.861,2.228-8.174,10.488-8.116,12.154.084,24.312.033,36.467.033a87.06,87.06,0,0,1-7.31,10.52C82.248,53.84,79.867,57.186,77.519,60.693Zm30.232-22.481c1.16-1.732,2.665-3.5,4-5.306,1.411-1.912,2.5-3.671,3.755-5.547,9.1,6.094,20.93,25.7,20.93,41.084,0,14.468.511,20.011-6.449,33.861-6.308,12.553-17.862,23.159-30.76,28.929-16.345,7.312-33.274,6.711-49.736.125-2.757-1.1-4.673-2.643-6.852-3.225l9.182-13.3c1.622-2.208,3.014-4,4.662-6.19,1.334-1.773,3.474-6.092,5.535-6.092H99.224c0,6-.391,4.3.775,9.3,16.2,3.773,13.178-3.695,13.178-9.3,11.136-5.893,14.455-20.665,7.752-33.333,7.906,0,6.977-3,6.977-7.752,0-1.863-1.256-2.278-2.326-3.876-3.867,0-5.37.775-10.077.775l-7.752-20.155ZM31.783,58.367c-4.3,0-4.6-.775-8.527-.775-2.087,3.118-2.326.942-2.326,6.2,0,4.888,3.39,5.426,6.977,5.426-1.206,5.176-4.86,9.69-3.156,18.624,1.062,5.568,4.925,12.721,10.132,13.935,0,5.774-.883,9.582,3.876,10.853-1.436,2.146-3.955,5.145-4.651,7.752-3.02-.7-3.35-1.087-5.121-3.406-1.645-2.153-2.278-2.655-3.862-4.664a51.371,51.371,0,0,1-6.524-10.53,56.888,56.888,0,0,1-4.824-12.231c-2.395-9.954-2.9-19.13-.414-29.448,1.671-6.922,5.277-15.853,9.437-21.571l5.211-6.416c4.32-5.415,1.65-1.955,6.3-6.108C49.284,12.619,71.88,8.015,91.822,13.832c7.324,2.136,11.26,5.051,14.378,5.777-.307,3.688-2.049,3.8-5.267,8.687-2.95,4.485-2.3,4.6-9.438,4.515-9.549-.117-19.151-.024-28.706-.024-10.57,0-18.231-1.657-21.944,5.962-1.339,2.746-7.289,19.619-9.063,19.619ZM0,73.871c0,16.144,6.575,33.85,16.148,45.867,1.534,1.926,2.757,2.711,4.44,4.862C29.5,136.006,53,147.514,68.992,147.514c14.9,0,23.451-.052,37.213-6.973,15.506-7.8,27.191-19.177,34.892-34.875,17.336-35.339,1.986-80.117-33.339-97.692a75.154,75.154,0,0,0-54.009-5.16C42.485,6.1,33.833,10.8,25.386,18.635c-6.9,6.4-7.133,6.15-12.672,14.459A57.6,57.6,0,0,0,6.3,44.511C3.2,52.115,0,63.425,0,73.869Z" transform="translate(0 0)" fill="#a7a7a7" fill-rule="evenodd"/>
  </g>
</svg>
