<svg xmlns="http://www.w3.org/2000/svg" width="14.913" height="14.238" viewBox="0 0 14.913 14.238">
  <path id="Path_402" data-name="Path 402" d="M918.66-1406.046h-.677l-.235-.223a5.129,5.129,0,0,0,1.337-3.44,5.421,5.421,0,0,0-5.542-5.291,5.421,5.421,0,0,0-5.542,5.291,5.421,5.421,0,0,0,5.542,5.291,5.673,5.673,0,0,0,3.6-1.275l.235.223v.645l4.262,4.063,1.271-1.214-4.253-4.07Zm-5.118,0a3.752,3.752,0,0,1-3.837-3.663,3.753,3.753,0,0,1,3.837-3.663,3.754,3.754,0,0,1,3.837,3.663,3.753,3.753,0,0,1-3.837,3.663Z" transform="translate(-908 1415)" fill="#1da1f3" fill-rule="evenodd"/>
</svg>
