<svg xmlns="http://www.w3.org/2000/svg" width="19.318" height="19.318" viewBox="0 0 19.318 19.318">
  <path id="Path_1815" data-name="Path 1815" d="M11.659,8.147a3.512,3.512,0,1,0,3.512,3.512A3.511,3.511,0,0,0,11.659,8.147Zm7.85,2.634a7.9,7.9,0,0,0-6.972-6.972V2H10.781V3.809a7.9,7.9,0,0,0-6.972,6.972H2v1.756H3.809a7.9,7.9,0,0,0,6.972,6.972v1.809h1.756V19.509a7.9,7.9,0,0,0,6.972-6.972h1.809V10.781Zm-7.85,7.025a6.147,6.147,0,1,1,6.147-6.147A6.148,6.148,0,0,1,11.659,17.806Z" transform="translate(-2 -2)" fill="#1da1f3"/>
</svg>
