<svg id="payments-24px" xmlns="http://www.w3.org/2000/svg" width="22.828" height="22.828" viewBox="0 0 22.828 22.828">
  <path id="Path_2442" data-name="Path 2442" d="M0,0H22.828V22.828H0Z" fill="none"/>
  <path id="Path_2443" data-name="Path 2443" d="M18.121,13.512V5.9a1.908,1.908,0,0,0-1.9-1.9H2.9A1.908,1.908,0,0,0,1,5.9v7.609a1.908,1.908,0,0,0,1.9,1.9H16.219A1.908,1.908,0,0,0,18.121,13.512ZM9.56,12.56a2.853,2.853,0,1,1,2.853-2.853A2.85,2.85,0,0,1,9.56,12.56ZM21.926,6.853V17.316a1.908,1.908,0,0,1-1.9,1.9H3.853v-1.9h16.17V6.853Z" transform="translate(-0.049 -0.195)" fill="#2f4667"/>
</svg>
