<svg xmlns="http://www.w3.org/2000/svg" width="16.158" height="16.194" viewBox="0 0 16.158 16.194">
  <path id="phone-1572-475097" d="M11.825,9.871l-1.3.731a.824.824,0,0,1-.986-.138L5.171,6.1a.825.825,0,0,1-.138-.986l.731-1.3a1.237,1.237,0,0,0-.207-1.479L3.6.371a1.234,1.234,0,0,0-1.745,0l-.885.885A3.286,3.286,0,0,0,.484,5.27l.448.744A26.5,26.5,0,0,0,4.066,10.2a25.7,25.7,0,0,0,6.215,4.965l.088.051a3.29,3.29,0,0,0,3.979-.507l.924-.924a1.234,1.234,0,0,0-.005-1.745L13.3,10.079a1.236,1.236,0,0,0-1.479-.207Z" transform="matrix(0.999, 0.035, -0.035, 0.999, 0.537, -0.007)" fill="#fff"/>
</svg>
