<svg xmlns="http://www.w3.org/2000/svg" width="27" height="27" viewBox="0 0 27 27">
  <path id="Subtraction_37" data-name="Subtraction 37" d="M-91.5-1831a13.412,13.412,0,0,1-9.546-3.954A13.412,13.412,0,0,1-105-1844.5a13.412,13.412,0,0,1,3.954-9.546A13.412,13.412,0,0,1-91.5-1858a13.412,13.412,0,0,1,9.546,3.954A13.412,13.412,0,0,1-78-1844.5a13.412,13.412,0,0,1-3.954,9.546A13.412,13.412,0,0,1-91.5-1831Zm.348-22A5.78,5.78,0,0,0-97-1847.3c0,4.22,5.79,10.516,5.848,10.579.057-.062,5.848-6.348,5.848-10.579A5.78,5.78,0,0,0-91.152-1853Zm0,7.73a2.064,2.064,0,0,1-2.089-2.034,2.064,2.064,0,0,1,2.089-2.034,2.064,2.064,0,0,1,2.088,2.034A2.064,2.064,0,0,1-91.152-1845.27Z" transform="translate(105 1858)" fill="#dbdbdb"/>
</svg>
