<svg xmlns="http://www.w3.org/2000/svg" width="46.2" height="46.198" viewBox="0 0 46.2 46.198">
  <g id="_2077264444704" transform="translate(0 0.002)">
    <path id="Path_2016" data-name="Path 2016" d="M23.1,0A23.1,23.1,0,1,1,0,23.1,23.094,23.094,0,0,1,23.1,0ZM37.428,8.7A20.2,20.2,0,0,0,23.1,2.728,19.992,19.992,0,0,0,8.764,8.7,20.2,20.2,0,0,0,2.791,23.033,19.992,19.992,0,0,0,8.764,37.365,20.2,20.2,0,0,0,23.1,43.338a19.992,19.992,0,0,0,14.332-5.973A20.2,20.2,0,0,0,43.4,23.033,19.992,19.992,0,0,0,37.428,8.7Z" fill="#e1e1e1"/>
    <path id="Path_2017" data-name="Path 2017" d="M21.31,25.19q-6.494,8.509-6.5,8.5L6.285,27.037C3.823,24.938,3.25,22.2,4.74,19.545c1.5-2.686,4.889-3.224,8.323-.616,2.5-3.336,6.183-3.525,8.449-1.28,2.567,2.546,1.909,5.078-.2,7.547Z" transform="translate(-1.18 -4.857)" fill="#dbdbdb" fill-rule="evenodd"/>
    <path id="Path_2018" data-name="Path 2018" d="M36.636,25.37q6.494,8.509,6.5,8.5l8.526-6.659c2.462-2.1,3.036-4.833,1.546-7.491-1.5-2.686-4.889-3.224-8.323-.616-2.5-3.336-6.183-3.525-8.449-1.28-2.567,2.546-1.909,5.078.2,7.547Z" transform="translate(-10.449 -4.911)" fill="#dbdbdb" fill-rule="evenodd"/>
    <path id="Path_2019" data-name="Path 2019" d="M37.72,48.056q1.71-2.99-1.329-1.448c-.161.091-.329.182-.5.266a15.884,15.884,0,0,1-7.043,1.679,13.132,13.132,0,0,1-7.512-2.28q-2.675-1.385-1.021,1.623C22.28,51,24.98,53,28.855,53a10.143,10.143,0,0,0,8.869-4.945Z" transform="translate(-5.916 -13.776)" fill="#dbdbdb" fill-rule="evenodd"/>
  </g>
</svg>
