<svg id="Layer_x0020_1" xmlns="http://www.w3.org/2000/svg" width="45.596" height="49.7" viewBox="0 0 45.596 49.7">
  <g id="_2077464917360" transform="translate(0)">
    <path id="Path_2026" data-name="Path 2026" d="M10.223,9.583A20.269,20.269,0,1,0,24.562,3.64,20.278,20.278,0,0,0,10.223,9.583Z" transform="translate(-1.562 -1.334)" fill="#fdca47" fill-rule="evenodd"/>
    <path id="Path_2027" data-name="Path 2027" d="M23.225,0A22.564,22.564,0,1,1,7.239,6.609,22.537,22.537,0,0,1,23.225,0Zm14.1,8.554a19.932,19.932,0,1,0,5.842,14.1A19.932,19.932,0,0,0,37.323,8.554Z" transform="translate(-0.224)" fill="#fdca47"/>
    <path id="Path_2028" data-name="Path 2028" d="M15.95,57.911a.653.653,0,0,0-.31-.285s2.636-.3,4.473-.6a1.094,1.094,0,0,0,1.1-1.432c-.07-.583-.482-.887-1.248-.912,0,0-4.632.45-10.461,1.039t.209-4.188a1.385,1.385,0,0,0-.83-1.616,1.193,1.193,0,0,0-1.324.653S7,51.9,5.888,54.553a2.63,2.63,0,0,1-1.014,1.59A5.016,5.016,0,0,0,3.417,57.7q-1.4,5.541,2.756,8.2,6.206.57,8.9-1.1c.615-.887.577-1.5-.133-1.825a1.415,1.415,0,0,0,.31-2.37,1.832,1.832,0,0,0,.7-2.706Z" transform="translate(-1.116 -18.278)" fill="#fff" fill-rule="evenodd"/>
    <path id="Path_2029" data-name="Path 2029" d="M14.823,56.8a.653.653,0,0,0-.31-.285s2.636-.3,4.473-.6a1.094,1.094,0,0,0,1.1-1.432c-.07-.583-.482-.887-1.248-.912,0,0-4.632.45-10.461,1.039l.209-4.188a1.385,1.385,0,0,0-.83-1.616,1.193,1.193,0,0,0-1.324.653L4.761,53.442a2.63,2.63,0,0,1-1.014,1.59A5.016,5.016,0,0,0,2.29,56.591q-1.4,5.541,2.756,8.2,6.206.57,8.9-1.1c.615-.887.577-1.5-.133-1.825a1.415,1.415,0,0,0,.31-2.37,1.832,1.832,0,0,0,.7-2.706Zm4.391,1.026c-.691.108-1.445.215-2.142.31a3.279,3.279,0,0,1-.108.646,3.451,3.451,0,0,1-.507,1.109A3.066,3.066,0,0,1,16.224,62a3.25,3.25,0,0,1,.063.444,3.647,3.647,0,0,1-.773,2.357h-.006a1.937,1.937,0,0,1-.57.539,10.75,10.75,0,0,1-4.347,1.381,27.444,27.444,0,0,1-5.734-.013h0a1.914,1.914,0,0,1-.862-.291A8.309,8.309,0,0,1,.433,62.028a10.327,10.327,0,0,1-.032-5.9h0a1.975,1.975,0,0,1,.2-.482,6.242,6.242,0,0,1,.874-1.179A7.778,7.778,0,0,1,2.6,53.48l.006.006.07-.051c.013-.006.025-.025.044-.063A1.416,1.416,0,0,0,2.867,53a2.7,2.7,0,0,1,.1-.3l1.666-3.979h0A1.578,1.578,0,0,1,4.8,48.4a3.5,3.5,0,0,1,1.369-1.242,2.9,2.9,0,0,1,1.914-.241,2.3,2.3,0,0,1,.393.114,3.182,3.182,0,0,1,1.666,1.5,3.582,3.582,0,0,1,.342,2.091l-.1,1.85c4.461-.45,7.927-.786,8.225-.817.089-.006.171-.013.26-.013a3.44,3.44,0,0,1,1.958.615,2.767,2.767,0,0,1,1.134,1.888,3.065,3.065,0,0,1-.532,2.5A3.161,3.161,0,0,1,19.2,57.833h0Z" transform="translate(0.01 -17.167)" fill="#99a8ae" fill-rule="evenodd"/>
    <circle id="Ellipse_498" data-name="Ellipse 498" cx="3.365" cy="3.365" r="3.365" transform="translate(11.241 15.91)"/>
    <path id="Path_2030" data-name="Path 2030" d="M23.848,17.257A.962.962,0,1,1,22.233,18.3a2.327,2.327,0,0,0-.64-.653,2.653,2.653,0,0,0-1.5-.444,2.92,2.92,0,0,0-1.559.456,2.681,2.681,0,0,0-.754.735.962.962,0,0,1-1.59-1.084,4.574,4.574,0,0,1,1.3-1.267,4.819,4.819,0,0,1,2.6-.767,4.585,4.585,0,0,1,2.585.773,4.126,4.126,0,0,1,1.166,1.2Z" transform="translate(-5.866 -5.598)"/>
    <circle id="Ellipse_499" data-name="Ellipse 499" cx="3.365" cy="3.365" r="3.365" transform="translate(28.203 15.91)"/>
    <path id="Path_2031" data-name="Path 2031" d="M53.728,21.94a.962.962,0,1,1-1.882.4,2.267,2.267,0,0,0-.361-.836,2.622,2.622,0,0,0-1.236-.944,2.882,2.882,0,0,0-1.622-.127,2.669,2.669,0,0,0-.969.418.961.961,0,0,1-1.09-1.584,4.516,4.516,0,0,1,1.66-.716,4.822,4.822,0,0,1,2.7.209,4.521,4.521,0,0,1,2.142,1.654,4.341,4.341,0,0,1,.665,1.533Z" transform="translate(-16.902 -6.758)"/>
    <rect id="Rectangle_2074" data-name="Rectangle 2074" width="13.484" height="3.365" rx="1.682" transform="translate(16.259 28.279)"/>
  </g>
</svg>
