<svg id="Layer_x0020_1" xmlns="http://www.w3.org/2000/svg" width="49.334" height="49.241" viewBox="0 0 49.334 49.241">
  <g id="_2077028972816">
    <path id="Path_2020" data-name="Path 2020" d="M9.8,9.712a20.751,20.751,0,0,0,14.65,35.4,20.461,20.461,0,0,0,14.65-6.1,20.751,20.751,0,0,0-14.65-35.4A20.461,20.461,0,0,0,9.8,9.712Z" transform="translate(-1.356 -1.323)" fill="#fdca47" fill-rule="evenodd"/>
    <path id="Path_2021" data-name="Path 2021" d="M23.1,0a23.1,23.1,0,0,1,0,46.192A23.1,23.1,0,0,1,23.1,0ZM37.435,8.706A20.314,20.314,0,0,0,2.782,23.045,20.016,20.016,0,0,0,8.757,37.384,20.314,20.314,0,0,0,43.41,23.045,20.016,20.016,0,0,0,37.435,8.706Z" fill="#fdca47"/>
    <circle id="Ellipse_496" data-name="Ellipse 496" cx="3.415" cy="3.415" r="3.415" transform="translate(10.068 18.09)"/>
    <circle id="Ellipse_497" data-name="Ellipse 497" cx="3.415" cy="3.415" r="3.415" transform="translate(29.236 18.09)"/>
    <path id="Path_2022" data-name="Path 2022" d="M24.233,49.276c1.115,4.207,3.58,6.653,7.255,7.337,4.233-.171,6.742-2.788,7.585-7.794.184-1.084-.418-1.533-1.812-1.419H25.722c-.127.057-2.205-.361-1.489,1.876Z" transform="translate(-8.824 -17.36)" fill-rule="evenodd"/>
    <path id="Path_2023" data-name="Path 2023" d="M59.476,63.785a7.8,7.8,0,0,1,4.511-.032q2.262-3.365.3-8.244a5.9,5.9,0,0,1-1.888-.076,34.99,34.99,0,0,0-4.055-4.575c-1.388-1.02-1.6-2.332-1.983-3.6a2.284,2.284,0,0,0-1.9,1.6c-.253,1.248.374,3.4,1.54,5.348q-6.919.124-6.919.12a.77.77,0,0,0-.577.824c-.127,1.236.063,1.876.577,1.92a1.685,1.685,0,0,0-.241,1.4c.006.849.368,1.331,1.064,1.432a1.542,1.542,0,0,0-.425,1.4,1.119,1.119,0,0,0,1.191.912,1.5,1.5,0,0,0-.12,1.432,1.56,1.56,0,0,0,1.4.824,22.609,22.609,0,0,0,5.183.063,6.762,6.762,0,0,0,2.344-.76Z" transform="translate(-17.758 -17.315)" fill="#fff" fill-rule="evenodd"/>
    <path id="Path_2024" data-name="Path 2024" d="M62.7,62.473q2.205-3.279.3-8.034a5.627,5.627,0,0,1-1.844-.076,34.541,34.541,0,0,0-3.948-4.454c-1.35-.995-1.559-2.268-1.933-3.5a2.24,2.24,0,0,0-1.857,1.559c-.247,1.217.361,3.308,1.5,5.215l-6.742.12c-.355.082-.539.348-.564.8-.127,1.2.063,1.831.564,1.869a1.658,1.658,0,0,0-.234,1.369c.006.83.355,1.293,1.039,1.394a1.507,1.507,0,0,0-.418,1.369,1.106,1.106,0,0,0,1.16.893,1.458,1.458,0,0,0-.12,1.394,1.525,1.525,0,0,0,1.369.8,21.8,21.8,0,0,0,5.05.057,6.524,6.524,0,0,0,2.287-.741,7.579,7.579,0,0,1,4.4-.032Zm-2.478,1.8a3.1,3.1,0,0,0-1.039.152,8.773,8.773,0,0,1-2.87.912l-.063.006a22.1,22.1,0,0,1-2.718.127,25.364,25.364,0,0,1-2.807-.184,4.051,4.051,0,0,1-1.666-.52,3.356,3.356,0,0,1-1.267-1.293,2.5,2.5,0,0,1-.146-.291,3.827,3.827,0,0,1-.26-1A3.11,3.11,0,0,1,46.5,60.54h0l-.013-.057a3.66,3.66,0,0,1-.051-1.014,3.633,3.633,0,0,1-.6-1.863,3.736,3.736,0,0,1-.057-.988,5.4,5.4,0,0,1-.272-2.68,3.071,3.071,0,0,1,.532-1.584,2.719,2.719,0,0,1,1.514-1.064,1.967,1.967,0,0,1,.583-.089l3.555-.063c-.025-.082-.051-.171-.076-.253a7.247,7.247,0,0,1-.26-3.327,4,4,0,0,1,1.375-2.224,4.435,4.435,0,0,1,2.389-1.026,2.1,2.1,0,0,1,2.173,1.5c.025.089.089.3.146.5a3.32,3.32,0,0,0,1.014,1.907h0a1.946,1.946,0,0,1,.215.184c.8.767,1.559,1.552,2.268,2.351.488.551.944,1.1,1.362,1.628a3.448,3.448,0,0,0,.425-.025,2.105,2.105,0,0,1,2.237,1.305,12.962,12.962,0,0,1,1.026,5.246,8.929,8.929,0,0,1-1.489,4.689,2.109,2.109,0,0,1-2.249.938,9.088,9.088,0,0,0-2.015-.253Z" transform="translate(-16.654 -16.231)" fill="#99a8ae" fill-rule="evenodd"/>
    <path id="Path_2025" data-name="Path 2025" d="M38.806,54.329q-5.874-4.885-12.166.082a8.408,8.408,0,0,0,5.785,3.859A6.991,6.991,0,0,0,38.8,54.335Z" transform="translate(-9.76 -19.017)" fill="#f46c60" fill-rule="evenodd"/>
  </g>
</svg>
