<svg xmlns="http://www.w3.org/2000/svg" width="46.2" height="47.166" viewBox="0 0 46.2 47.166">
  <g id="Group_1827" data-name="Group 1827" transform="translate(-3761 -2934)">
    <path id="Subtraction_38" data-name="Subtraction 38" d="M23.1,46.2h0a23.281,23.281,0,0,1-4.649-.468,3.508,3.508,0,0,0,1.507-1.3,8.41,8.41,0,0,0,.614-1.163,19.409,19.409,0,0,0,5.06,0,8.466,8.466,0,0,0,.615,1.165,3.511,3.511,0,0,0,1.511,1.3A23.39,23.39,0,0,1,23.1,46.2ZM42.862,35.076v0a3.917,3.917,0,0,0-.177-.561A3.689,3.689,0,0,0,41.027,32.6a20.318,20.318,0,1,0-35.875.009,3.692,3.692,0,0,0-1.641,1.9,3.836,3.836,0,0,0-.175.553A23.1,23.1,0,0,1,23.1,0l.007,0A23.111,23.111,0,0,1,42.864,35.074Z" transform="translate(3761 2934)" fill="#dbdbdb"/>
    <path id="Subtraction_41" data-name="Subtraction 41" d="M5.194,4.2l0,0A2.5,2.5,0,0,0,5.5,3,2.477,2.477,0,0,0,5.27,1.95,16.7,16.7,0,0,1,11.012.988c.111,0,.22,0,.33,0a23.127,23.127,0,0,1,4.676.679A3.044,3.044,0,0,0,16,2a2.99,2.99,0,0,0,.8,2.041,10.248,10.248,0,0,0-5.171-1.4l-.165,0c-.214-.012-.423-.018-.62-.018A10.984,10.984,0,0,0,5.2,4.2Z" transform="translate(3773 2965)" fill="#dbdbdb"/>
    <path id="Path_2039" data-name="Path 2039" d="M19.749,44.787c-4.768,3.872-7.1,6.028-7.107,6.034a.983.983,0,0,1-1.363-.03,5.7,5.7,0,0,0-1.824-1.212,3.072,3.072,0,0,0-1.733-.194,2.392,2.392,0,0,0-1.254.709,2.859,2.859,0,0,0-.576.921,2.717,2.717,0,0,0-.1,1.866,3.5,3.5,0,0,0,1.272,1.684.974.974,0,0,1,.3,1.175h0a4.09,4.09,0,0,0-.218,2.575,3.483,3.483,0,0,0,1.26,2.018,5.317,5.317,0,0,0,3.163,1,3.5,3.5,0,0,0,2.575-.9.986.986,0,0,1,1.387-.091l.024.024a4.1,4.1,0,0,0,.424.3,3.855,3.855,0,0,0,2.557.588,2.932,2.932,0,0,0,1.884-.982,1.891,1.891,0,0,0,.164-.23,4.23,4.23,0,0,0,.848-2.823,2.877,2.877,0,0,0-1.466-1.866h0a5.081,5.081,0,0,0-1.012-.448,6.724,6.724,0,0,0-1.194-.267.982.982,0,0,1-.842-1.1c.006-.061.024-.115.036-.176h0l2.793-8.573Zm-7.785,4c1.242-1.1,4.265-3.732,9.118-7.592a.985.985,0,0,1,1.563,1.066L19.174,52.923c.133.036.267.073.394.115a7.791,7.791,0,0,1,1.393.618h0l.03.018A4.747,4.747,0,0,1,23.385,56.9a6.047,6.047,0,0,1-1.115,4.187,3.932,3.932,0,0,1-.315.436,4.931,4.931,0,0,1-3.138,1.684,5.8,5.8,0,0,1-3.859-.86h-.006a6.055,6.055,0,0,1-3.363.963,7.282,7.282,0,0,1-4.332-1.381A5.45,5.45,0,0,1,5.239,58.77a6.107,6.107,0,0,1,.079-3.114,5.131,5.131,0,0,1-1.394-2.181A4.666,4.666,0,0,1,4.075,50.3a4.772,4.772,0,0,1,.988-1.557,4.347,4.347,0,0,1,2.278-1.278,4.922,4.922,0,0,1,2.848.285,7.227,7.227,0,0,1,1.787,1.042Z" transform="translate(3759.536 2917.855)" fill="#dbdbdb"/>
    <path id="Path_2041" data-name="Path 2041" d="M42.342,41.19c4.853,3.859,7.876,6.489,9.118,7.592a7.227,7.227,0,0,1,1.787-1.042,4.922,4.922,0,0,1,2.848-.285,4.365,4.365,0,0,1,2.278,1.278,4.941,4.941,0,0,1,.988,1.557,4.666,4.666,0,0,1,.151,3.175,5.265,5.265,0,0,1-1.394,2.181A6.174,6.174,0,0,1,58.2,58.76a5.45,5.45,0,0,1-2.018,3.157A7.3,7.3,0,0,1,51.848,63.3a6.025,6.025,0,0,1-3.363-.963h-.006a5.766,5.766,0,0,1-3.859.86,4.862,4.862,0,0,1-3.138-1.684,3.933,3.933,0,0,1-.315-.436,6.016,6.016,0,0,1-1.115-4.187,4.747,4.747,0,0,1,2.393-3.223l.03-.018h0a7.216,7.216,0,0,1,1.393-.618c.127-.042.261-.079.394-.115L40.791,42.25a.985.985,0,0,1,1.563-1.066Zm8.434,9.627c-.006-.006-2.339-2.157-7.107-6.034l2.793,8.573h0a.822.822,0,0,1,.036.176.978.978,0,0,1-.842,1.1,6.723,6.723,0,0,0-1.194.267,5.282,5.282,0,0,0-1.012.448h0a2.877,2.877,0,0,0-1.466,1.866,4.23,4.23,0,0,0,.848,2.823,2.523,2.523,0,0,0,.164.23,2.932,2.932,0,0,0,1.884.982,3.82,3.82,0,0,0,2.557-.588,4.393,4.393,0,0,0,.424-.3l.024-.024a.98.98,0,0,1,1.387.091,3.547,3.547,0,0,0,2.575.9,5.3,5.3,0,0,0,3.163-1,3.464,3.464,0,0,0,1.26-2.018,4.094,4.094,0,0,0-.218-2.575h0a.974.974,0,0,1,.3-1.175,3.552,3.552,0,0,0,1.272-1.684,2.752,2.752,0,0,0-.1-1.866,2.859,2.859,0,0,0-.576-.921,2.415,2.415,0,0,0-1.254-.709,2.97,2.97,0,0,0-1.733.194,5.911,5.911,0,0,0-1.824,1.212.989.989,0,0,1-1.363.03Z" transform="translate(3745.238 2917.859)" fill="#dbdbdb"/>
    <path id="Path_2042" data-name="Path 2042" d="M11.007,28.636a1.474,1.474,0,1,1,1.927-2.23A7.041,7.041,0,0,0,17.345,28.4a6.766,6.766,0,0,0,4.387-1.878,1.475,1.475,0,0,1,1.9,2.254,9.573,9.573,0,0,1-6.313,2.575A9.827,9.827,0,0,1,11,28.642Z" transform="translate(3756.863 2923.736)" fill="#dbdbdb"/>
    <path id="Path_2043" data-name="Path 2043" d="M53.016,26.406a1.474,1.474,0,0,1,1.927,2.23,9.827,9.827,0,0,1-6.319,2.708,9.543,9.543,0,0,1-6.313-2.575,1.475,1.475,0,0,1,1.9-2.254A6.766,6.766,0,0,0,48.6,28.393,6.982,6.982,0,0,0,53.01,26.4Z" transform="translate(3744.53 2923.736)" fill="#dbdbdb"/>
    <path id="Path_2044" data-name="Path 2044" d="M44.107,19.236a.983.983,0,0,1-1.054-1.66l5.913-3.756a.983.983,0,0,1,1.054,1.66Z" transform="translate(3744.212 2928.616)" fill="#dbdbdb"/>
    <path id="Path_2045" data-name="Path 2045" d="M26.66,17.576a.983.983,0,1,1-1.054,1.66L19.693,15.48a.983.983,0,1,1,1.054-1.66Z" transform="translate(3753.418 2928.616)" fill="#dbdbdb"/>
  </g>
</svg>
