<svg id="Layer_x0020_1" xmlns="http://www.w3.org/2000/svg" xmlns:xlink="http://www.w3.org/1999/xlink" width="46.192" height="47.161" viewBox="0 0 46.192 47.161">
  <defs>
    <linearGradient id="linear-gradient" x1="0.503" y1="0.611" x2="0.5" gradientUnits="objectBoundingBox">
      <stop offset="0" stop-color="#fdca47"/>
      <stop offset="1" stop-color="#f23533"/>
    </linearGradient>
    <linearGradient id="linear-gradient-2" x1="0.493" y1="0.6" x2="0.489" y2="0.049" xlink:href="#linear-gradient"/>
  </defs>
  <g id="_2077264518832" transform="translate(0)">
    <path id="Path_2035" data-name="Path 2035" d="M39.282,9.592A20.957,20.957,0,0,0,3.53,24.387,21.038,21.038,0,0,0,24.487,45.344,21.038,21.038,0,0,0,45.444,24.387a20.719,20.719,0,0,0-6.162-14.8Z" transform="translate(-1.391 -1.352)" fill-rule="evenodd" fill="url(#linear-gradient)"/>
    <path id="Path_2036" data-name="Path 2036" d="M23.1,0a23.1,23.1,0,0,1,0,46.192A23.1,23.1,0,0,1,23.1,0ZM37.449,8.749A20.327,20.327,0,0,0,2.769,23.1,20.4,20.4,0,0,0,23.1,43.429,20.4,20.4,0,0,0,43.423,23.1,20.1,20.1,0,0,0,37.449,8.749Z" transform="translate(0)" fill-rule="evenodd" fill="url(#linear-gradient-2)"/>
    <path id="Path_2037" data-name="Path 2037" d="M23.371,56.93a3.068,3.068,0,0,0,1.66-.2,10.957,10.957,0,0,1,7.331-2.278,10.261,10.261,0,0,1,6.531,2.211,2.283,2.283,0,0,0,1.787.164c.551-.23.739-.563.551-1.024-1.66-1.781-4.683-2.775-8.991-3.005-3.7-.067-7.513.988-9.609,3.138-.182.394.061.727.739.957v.03Z" transform="translate(-8.897 -20.808)" fill-rule="evenodd"/>
    <path id="Path_2038" data-name="Path 2038" d="M22.339,42.59c-6.525,5.186-9.73,8.143-9.73,8.143-3.06-2.9-6.053-1.836-7,.563a3.89,3.89,0,0,0,1.484,4.7,4.911,4.911,0,0,0,1.363,5.78c2.387,1.757,5.774,1.418,7.058-.042,2.357,1.939,5.4,1.3,6.537-.521,1.666-2.666,1.266-4.659-.963-6.059a6.907,6.907,0,0,0-2.569-.842Q22.33,42.593,22.333,42.6Z" transform="translate(-2.097 -16.786)" fill="#fff" fill-rule="evenodd"/>
    <path id="Path_2039" data-name="Path 2039" d="M19.749,44.787c-4.768,3.872-7.1,6.028-7.107,6.034a.983.983,0,0,1-1.363-.03,5.7,5.7,0,0,0-1.824-1.212,3.072,3.072,0,0,0-1.733-.194,2.392,2.392,0,0,0-1.254.709,2.859,2.859,0,0,0-.576.921,2.717,2.717,0,0,0-.1,1.866,3.5,3.5,0,0,0,1.272,1.684.974.974,0,0,1,.3,1.175h0a4.09,4.09,0,0,0-.218,2.575,3.483,3.483,0,0,0,1.26,2.018,5.317,5.317,0,0,0,3.163,1,3.5,3.5,0,0,0,2.575-.9.986.986,0,0,1,1.387-.091l.024.024a4.1,4.1,0,0,0,.424.3,3.855,3.855,0,0,0,2.557.588,2.932,2.932,0,0,0,1.884-.982,1.892,1.892,0,0,0,.164-.23,4.23,4.23,0,0,0,.848-2.823,2.877,2.877,0,0,0-1.466-1.866h0a5.081,5.081,0,0,0-1.012-.448,6.723,6.723,0,0,0-1.194-.267.982.982,0,0,1-.842-1.1c.006-.061.024-.115.036-.176h0l2.793-8.573Zm-7.785,4c1.242-1.1,4.265-3.732,9.118-7.592a.985.985,0,0,1,1.563,1.066L19.174,52.923c.133.036.267.073.394.115a7.791,7.791,0,0,1,1.393.618h0l.03.018A4.747,4.747,0,0,1,23.385,56.9a6.047,6.047,0,0,1-1.115,4.187,3.932,3.932,0,0,1-.315.436,4.931,4.931,0,0,1-3.138,1.684,5.8,5.8,0,0,1-3.859-.86h-.006a6.055,6.055,0,0,1-3.363.963,7.282,7.282,0,0,1-4.332-1.381A5.45,5.45,0,0,1,5.239,58.77a6.107,6.107,0,0,1,.079-3.114,5.131,5.131,0,0,1-1.394-2.181A4.666,4.666,0,0,1,4.075,50.3a4.772,4.772,0,0,1,.988-1.557,4.347,4.347,0,0,1,2.278-1.278,4.922,4.922,0,0,1,2.848.285,7.227,7.227,0,0,1,1.787,1.042Z" transform="translate(-1.464 -16.147)" fill="#99a8ae"/>
    <path id="Path_2040" data-name="Path 2040" d="M42.359,42.59c6.525,5.186,9.73,8.143,9.73,8.143,3.06-2.9,6.053-1.836,7,.563a3.89,3.89,0,0,1-1.484,4.7,4.911,4.911,0,0,1-1.363,5.78c-2.387,1.757-5.774,1.418-7.058-.042-2.357,1.939-5.4,1.3-6.537-.521-1.666-2.666-1.266-4.659.963-6.059a6.907,6.907,0,0,1,2.569-.842Q42.368,42.593,42.365,42.6Z" transform="translate(-16.404 -16.786)" fill="#fff" fill-rule="evenodd"/>
    <path id="Path_2041" data-name="Path 2041" d="M42.342,41.19c4.853,3.859,7.876,6.489,9.118,7.592a7.227,7.227,0,0,1,1.787-1.042,4.922,4.922,0,0,1,2.848-.285,4.365,4.365,0,0,1,2.278,1.278,4.941,4.941,0,0,1,.988,1.557,4.666,4.666,0,0,1,.151,3.175,5.265,5.265,0,0,1-1.394,2.181A6.174,6.174,0,0,1,58.2,58.76a5.45,5.45,0,0,1-2.018,3.157A7.3,7.3,0,0,1,51.848,63.3a6.025,6.025,0,0,1-3.363-.963h-.006a5.766,5.766,0,0,1-3.859.86,4.862,4.862,0,0,1-3.138-1.684,3.932,3.932,0,0,1-.315-.436,6.016,6.016,0,0,1-1.115-4.187,4.747,4.747,0,0,1,2.393-3.223l.03-.018h0a7.216,7.216,0,0,1,1.393-.618c.127-.042.261-.079.394-.115L40.791,42.25a.985.985,0,0,1,1.563-1.066Zm8.434,9.627c-.006-.006-2.339-2.157-7.107-6.034l2.793,8.573h0a.822.822,0,0,1,.036.176.978.978,0,0,1-.842,1.1,6.723,6.723,0,0,0-1.194.267,5.282,5.282,0,0,0-1.012.448h0a2.877,2.877,0,0,0-1.466,1.866,4.23,4.23,0,0,0,.848,2.823,2.523,2.523,0,0,0,.164.23,2.932,2.932,0,0,0,1.884.982,3.82,3.82,0,0,0,2.557-.588,4.393,4.393,0,0,0,.424-.3l.024-.024a.98.98,0,0,1,1.387.091,3.547,3.547,0,0,0,2.575.9,5.3,5.3,0,0,0,3.163-1,3.464,3.464,0,0,0,1.26-2.018,4.094,4.094,0,0,0-.218-2.575h0a.974.974,0,0,1,.3-1.175,3.552,3.552,0,0,0,1.272-1.684,2.752,2.752,0,0,0-.1-1.866,2.859,2.859,0,0,0-.576-.921,2.415,2.415,0,0,0-1.254-.709,2.97,2.97,0,0,0-1.733.194,5.911,5.911,0,0,0-1.824,1.212.989.989,0,0,1-1.363.03Z" transform="translate(-15.762 -16.143)" fill="#99a8ae"/>
    <path id="Path_2042" data-name="Path 2042" d="M11.007,28.636a1.473,1.473,0,0,1,1.927-2.23A7.041,7.041,0,0,0,17.345,28.4a6.766,6.766,0,0,0,4.387-1.878,1.475,1.475,0,0,1,1.9,2.254,9.573,9.573,0,0,1-6.313,2.575A9.827,9.827,0,0,1,11,28.642Z" transform="translate(-4.137 -10.266)"/>
    <path id="Path_2043" data-name="Path 2043" d="M53.016,26.406a1.473,1.473,0,1,1,1.927,2.23,9.827,9.827,0,0,1-6.319,2.708,9.543,9.543,0,0,1-6.313-2.575,1.475,1.475,0,0,1,1.9-2.254A6.766,6.766,0,0,0,48.6,28.393,6.982,6.982,0,0,0,53.01,26.4Z" transform="translate(-16.47 -10.266)"/>
    <path id="Path_2044" data-name="Path 2044" d="M44.107,19.236a.983.983,0,1,1-1.054-1.66l5.913-3.756a.983.983,0,1,1,1.054,1.66Z" transform="translate(-16.788 -5.386)"/>
    <path id="Path_2045" data-name="Path 2045" d="M26.66,17.576a.983.983,0,0,1-1.054,1.66L19.693,15.48a.983.983,0,1,1,1.054-1.66Z" transform="translate(-7.582 -5.386)"/>
  </g>
</svg>
