<svg xmlns="http://www.w3.org/2000/svg" width="49.332" height="49.243" viewBox="0 0 49.332 49.243">
  <g id="Group_1825" data-name="Group 1825" transform="translate(-3588 -2934)">
    <path id="Subtraction_35" data-name="Subtraction 35" d="M23.1,46.2h0A23.1,23.1,0,0,1,6.766,6.766,22.949,22.949,0,0,1,23.1,0l.007,0A23.1,23.1,0,0,1,42.552,35.563c-.623-.693-1.284-1.372-1.966-2.018l-.088-.067a20.319,20.319,0,1,0-9.634,8.289l.273-.115a1.126,1.126,0,0,0,1.011.937,1.535,1.535,0,0,0-.425,1.4,1.109,1.109,0,0,0,.2.463A22.967,22.967,0,0,1,23.1,46.2Z" transform="translate(3588 2934)" fill="#dbdbdb"/>
    <circle id="Ellipse_496" data-name="Ellipse 496" cx="3.415" cy="3.415" r="3.415" transform="translate(3598.068 2952.092)" fill="#dbdbdb"/>
    <circle id="Ellipse_497" data-name="Ellipse 497" cx="3.415" cy="3.415" r="3.415" transform="translate(3617.236 2952.092)" fill="#dbdbdb"/>
    <path id="Path_2022" data-name="Path 2022" d="M24.233,49.276c1.115,4.207,3.58,6.653,7.255,7.337,4.233-.171,6.742-2.788,7.585-7.794.184-1.084-.418-1.533-1.812-1.419H25.722C25.595,47.457,23.517,47.039,24.233,49.276Z" transform="translate(3579.176 2916.642)" fill="#dbdbdb" fill-rule="evenodd"/>
    <path id="Path_2024" data-name="Path 2024" d="M62.7,62.473q2.2-3.279.3-8.034a5.627,5.627,0,0,1-1.844-.076,34.541,34.541,0,0,0-3.948-4.454c-1.35-1-1.559-2.268-1.933-3.5a2.24,2.24,0,0,0-1.857,1.559c-.247,1.217.361,3.308,1.5,5.215l-6.742.12c-.355.082-.539.348-.564.8-.127,1.2.063,1.831.564,1.869a1.658,1.658,0,0,0-.234,1.369c.006.83.355,1.293,1.039,1.394a1.507,1.507,0,0,0-.418,1.369,1.106,1.106,0,0,0,1.16.893,1.458,1.458,0,0,0-.12,1.394,1.525,1.525,0,0,0,1.369.8,21.8,21.8,0,0,0,5.05.057,6.524,6.524,0,0,0,2.287-.741,7.579,7.579,0,0,1,4.4-.032Zm-2.478,1.8a3.1,3.1,0,0,0-1.039.152,8.773,8.773,0,0,1-2.87.912l-.063.006a22.1,22.1,0,0,1-2.718.127,25.362,25.362,0,0,1-2.807-.184,4.051,4.051,0,0,1-1.666-.52,3.356,3.356,0,0,1-1.267-1.293,2.5,2.5,0,0,1-.146-.291,3.827,3.827,0,0,1-.26-1A3.11,3.11,0,0,1,46.5,60.54h0l-.013-.057a3.66,3.66,0,0,1-.051-1.014,3.633,3.633,0,0,1-.6-1.863,3.736,3.736,0,0,1-.057-.988,5.4,5.4,0,0,1-.272-2.68,3.071,3.071,0,0,1,.532-1.584,2.719,2.719,0,0,1,1.514-1.064,1.967,1.967,0,0,1,.583-.089l3.555-.063c-.025-.082-.051-.171-.076-.253a7.247,7.247,0,0,1-.26-3.327,4,4,0,0,1,1.375-2.224,4.435,4.435,0,0,1,2.389-1.026,2.1,2.1,0,0,1,2.173,1.5c.025.089.089.3.146.5a3.32,3.32,0,0,0,1.014,1.907h0a1.946,1.946,0,0,1,.215.184c.8.767,1.559,1.552,2.268,2.351.488.551.944,1.1,1.362,1.628a3.448,3.448,0,0,0,.425-.025,2.1,2.1,0,0,1,2.237,1.305A12.962,12.962,0,0,1,65.985,58.9,8.929,8.929,0,0,1,64.5,63.593a2.109,2.109,0,0,1-2.249.938,9.088,9.088,0,0,0-2.015-.253Z" transform="translate(3571.346 2917.771)" fill="#dbdbdb" fill-rule="evenodd"/>
    <path id="Path_2025" data-name="Path 2025" d="M38.806,54.329q-5.874-4.885-12.166.082a8.408,8.408,0,0,0,5.785,3.859A6.991,6.991,0,0,0,38.8,54.335Z" transform="translate(3578.24 2914.985)" fill="#dbdbdb" fill-rule="evenodd"/>
  </g>
</svg>
