<svg id="Layer_x0020_1" xmlns="http://www.w3.org/2000/svg" width="46.192" height="46.192" viewBox="0 0 46.192 46.192">
  <g id="_2077264444704" transform="translate(0 0)">
    <path id="Path_2015" data-name="Path 2015" d="M9.558,9.468A20.559,20.559,0,0,0,3.48,24.052,20.351,20.351,0,0,0,9.558,38.635a20.559,20.559,0,0,0,14.584,6.078,20.351,20.351,0,0,0,14.584-6.078A20.559,20.559,0,0,0,44.8,24.052,20.351,20.351,0,0,0,38.725,9.468,20.559,20.559,0,0,0,24.142,3.39,20.351,20.351,0,0,0,9.558,9.468Z" transform="translate(-1.046 -1.019)" fill="#fdca47" fill-rule="evenodd"/>
    <path id="Path_2016" data-name="Path 2016" d="M23.1,0a23.1,23.1,0,0,1,0,46.192A23.1,23.1,0,0,1,23.1,0ZM37.428,8.7A20.2,20.2,0,0,0,23.1,2.728,19.992,19.992,0,0,0,8.764,8.7,20.2,20.2,0,0,0,2.791,23.033,19.992,19.992,0,0,0,8.764,37.365,20.2,20.2,0,0,0,23.1,43.338a19.992,19.992,0,0,0,14.332-5.973A20.2,20.2,0,0,0,43.4,23.033,19.992,19.992,0,0,0,37.428,8.7Z" transform="translate(0 0)" fill="#fdca47"/>
    <path id="Path_2017" data-name="Path 2017" d="M21.31,25.19q-6.494,8.509-6.5,8.505L6.285,27.037C3.823,24.938,3.25,22.2,4.74,19.545c1.5-2.686,4.889-3.224,8.323-.616,2.5-3.336,6.183-3.525,8.449-1.28,2.567,2.546,1.909,5.078-.2,7.547Z" transform="translate(-1.18 -4.857)" fill="#e81b27" fill-rule="evenodd"/>
    <path id="Path_2018" data-name="Path 2018" d="M36.636,25.37q6.494,8.509,6.5,8.505l8.526-6.659c2.462-2.1,3.036-4.833,1.546-7.491-1.5-2.686-4.889-3.224-8.323-.616-2.5-3.336-6.183-3.525-8.449-1.28-2.567,2.546-1.909,5.078.2,7.547Z" transform="translate(-10.449 -4.911)" fill="#e81b27" fill-rule="evenodd"/>
    <path id="Path_2019" data-name="Path 2019" d="M37.72,48.056q1.71-2.99-1.329-1.448c-.161.091-.329.182-.5.266a15.884,15.884,0,0,1-7.043,1.679,13.132,13.132,0,0,1-7.512-2.28q-2.675-1.385-1.021,1.623c1.965,3.106,4.665,5.106,8.54,5.1a10.143,10.143,0,0,0,8.869-4.945Z" transform="translate(-5.916 -13.776)" fill-rule="evenodd"/>
  </g>
</svg>
