<svg xmlns="http://www.w3.org/2000/svg" width="46.2" height="46.198" viewBox="0 0 46.2 46.198">
  <g id="_2077496081392" transform="translate(0 0.002)">
    <path id="Path_2033" data-name="Path 2033" d="M23.1,0A23.1,23.1,0,1,1,0,23.1,23.094,23.094,0,0,1,23.1,0ZM37.444,8.747A20.292,20.292,0,1,0,43.416,23.1,20.088,20.088,0,0,0,37.444,8.747Z" fill="#dbdbdb" fill-rule="evenodd"/>
    <circle id="Ellipse_500" data-name="Ellipse 500" cx="3.447" cy="3.447" r="3.447" transform="translate(9.978 18.047)" fill="#dbdbdb"/>
    <circle id="Ellipse_501" data-name="Ellipse 501" cx="3.447" cy="3.447" r="3.447" transform="translate(29.193 18.047)" fill="#dbdbdb"/>
    <path id="Path_2034" data-name="Path 2034" d="M22.576,54.672a1.8,1.8,0,0,0,1.664-.37c2.4-2.958,4.006-4.37,7.328-4.251A8.042,8.042,0,0,1,38.1,54.175a1.375,1.375,0,0,0,1.783.308,1.733,1.733,0,0,0,.553-1.909c-1.664-3.328-4.678-5.174-8.992-5.608a10.461,10.461,0,0,0-9.608,5.852,1.53,1.53,0,0,0,.741,1.783v.063Z" transform="translate(-8.102 -17.472)" fill="#dbdbdb" fill-rule="evenodd"/>
  </g>
</svg>
