<svg xmlns="http://www.w3.org/2000/svg" width="27" height="27" viewBox="0 0 27 27">
  <path id="Subtraction_38" data-name="Subtraction 38" d="M-91.5-1831a13.412,13.412,0,0,1-9.546-3.954A13.412,13.412,0,0,1-105-1844.5a13.412,13.412,0,0,1,3.954-9.546A13.412,13.412,0,0,1-91.5-1858a13.412,13.412,0,0,1,9.546,3.954A13.412,13.412,0,0,1-78-1844.5a13.412,13.412,0,0,1-3.954,9.546A13.412,13.412,0,0,1-91.5-1831Zm-3.711-9.366-1.15,1.142a7.269,7.269,0,0,0,5.165,2.131,7.3,7.3,0,0,0,7.319-7.266,7.3,7.3,0,0,0-7.319-7.265,7.3,7.3,0,0,0-7.311,7.265h-2.439l3.166,3.145.057.117,3.28-3.262h-2.438a5.676,5.676,0,0,1,5.689-5.65,5.677,5.677,0,0,1,5.69,5.65,5.677,5.677,0,0,1-5.69,5.651,5.666,5.666,0,0,1-4.018-1.659h0Zm3.206-7.221v4.036l3.479,2.051.586-.981-2.845-1.675v-3.431Z" transform="translate(105 1858)" fill="#1da1f3"/>
</svg>
