<svg id="alert" xmlns="http://www.w3.org/2000/svg" width="519.287" height="519.287" viewBox="0 0 519.287 519.287">
  <path id="Path_2643" data-name="Path 2643" d="M481.422,147.822H37.865A37.906,37.906,0,0,1,0,109.957V55.865A37.906,37.906,0,0,1,37.865,18H481.422a37.906,37.906,0,0,1,37.865,37.865v54.092A37.906,37.906,0,0,1,481.422,147.822ZM37.865,50.455a5.411,5.411,0,0,0-5.409,5.409v54.092a5.411,5.411,0,0,0,5.409,5.409H481.422a5.411,5.411,0,0,0,5.409-5.409V55.865a5.411,5.411,0,0,0-5.409-5.409Z" transform="translate(0 371.465)"/>
  <path id="Path_2644" data-name="Path 2644" d="M291.69,272.053a16.234,16.234,0,0,1-16.228-16.228V158.459a119,119,0,0,0-238.007,0v97.366a16.228,16.228,0,1,1-32.455,0V158.459C5,74.94,72.962,7,156.459,7S307.917,74.94,307.917,158.459v97.366A16.234,16.234,0,0,1,291.69,272.053Z" transform="translate(103.185 144.459)"/>
  <path id="Path_2645" data-name="Path 2645" d="M24.228,112.776A16.234,16.234,0,0,1,8,96.548,86.635,86.635,0,0,1,94.548,10a16.228,16.228,0,1,1,0,32.455A54.154,54.154,0,0,0,40.455,96.548,16.234,16.234,0,0,1,24.228,112.776Z" transform="translate(165.096 206.37)"/>
  <path id="Path_2646" data-name="Path 2646" d="M27.478,108.185A16.234,16.234,0,0,1,11.25,91.957V16.228a16.228,16.228,0,0,1,32.455,0V91.957A16.234,16.234,0,0,1,27.478,108.185Z" transform="translate(232.166)"/>
  <path id="Path_2647" data-name="Path 2647" d="M33.223,89.047A16.239,16.239,0,0,1,21.755,61.33L75.306,7.779A16.233,16.233,0,0,1,98.263,30.736L44.69,84.287A16.1,16.1,0,0,1,33.223,89.047Z" transform="translate(350.834 62.411)"/>
  <path id="Path_2648" data-name="Path 2648" d="M72.8,89.047a16.1,16.1,0,0,1-11.468-4.76L7.78,30.736A16.233,16.233,0,0,1,30.737,7.779l53.53,53.573A16.217,16.217,0,0,1,72.8,89.047Z" transform="translate(62.432 62.411)"/>
  <path id="Path_2649" data-name="Path 2649" d="M48.683,43.705H16.228a16.228,16.228,0,0,1,0-32.455H48.683a16.228,16.228,0,0,1,0,32.455Z" transform="translate(0 232.166)"/>
  <path id="Path_2650" data-name="Path 2650" d="M69.683,43.705H37.228a16.228,16.228,0,0,1,0-32.455H69.683a16.228,16.228,0,0,1,0,32.455Z" transform="translate(433.376 232.166)"/>
</svg>
