<svg xmlns="http://www.w3.org/2000/svg" width="262.061" height="308" viewBox="0 0 262.061 308">
  <g id="Layer_x0020_1" transform="translate(0.007)">
    <g id="surface1" transform="translate(-0.007)">
      <path id="Path_2641" data-name="Path 2641" d="M248.467,205.714a155.175,155.175,0,0,1-37.234,57.919c-18.688,18.26-43.083,32.811-72.756,43.083l-3,.856a19.365,19.365,0,0,1-4.137.428h-.285a21.772,21.772,0,0,1-4.28-.428,11.844,11.844,0,0,1-3-.856c-29.673-10.271-54.068-24.823-72.756-43.083a155.175,155.175,0,0,1-37.234-57.919C-1.186,164.913-.33,119.976.241,83.883v-.571c.143-3,.285-6.134.285-9.558A32.635,32.635,0,0,1,31.2,41.8c35.379-2,62.77-13.553,86.166-36.378l.143-.143A20.161,20.161,0,0,1,131.2,0a19.454,19.454,0,0,1,13.125,5.278l.143.143c23.4,22.825,50.786,34.381,86.166,36.378a32.529,32.529,0,0,1,30.672,31.956c0,3.424.143,6.562.285,9.558V83.6c.713,36.235,1.569,81.173-13.553,122.116ZM248.467,205.714Z" transform="translate(0.007 0)" fill="#89e219"/>
      <path id="Path_2642" data-name="Path 2642" d="M126.323,205.714a155.175,155.175,0,0,1-37.234,57.919c-18.688,18.26-43.083,32.811-72.756,43.083l-3,.856A19.365,19.365,0,0,1,9.2,308V0A19.454,19.454,0,0,1,22.325,5.278l.143.143C45.863,28.246,73.254,39.8,108.633,41.8A32.529,32.529,0,0,1,139.3,73.755c0,3.424.143,6.562.285,9.558V83.6c.713,36.235,1.569,81.173-13.553,122.116ZM126.323,205.714Z" transform="translate(122.151)" fill="#7bcb17"/>
    </g>
  </g>
</svg>
