<svg xmlns="http://www.w3.org/2000/svg" width="44" height="44.03" viewBox="0 0 44 44.03">
  <g id="Layer_x0020_1" transform="translate(-0.012 -0.02)">
    <path id="Path_2464" data-name="Path 2464" d="M7.249,7.2,5.744,9C-.23,17.056,5.3,29.948,16.621,29.949a13.012,13.012,0,0,0,8.549-3.083c.391-.294.525-.555.91-.836A13.314,13.314,0,0,0,16.727,3.376,13.623,13.623,0,0,0,7.249,7.2ZM18.646.179A16.6,16.6,0,0,1,31.091,24.794l-1.063,1.759a38.135,38.135,0,0,0,3.336,3.232L31.5,31.593l-3.131-3.171c-.375.245-.54.545-.916.837a4.276,4.276,0,0,0-.924.8c-1.383.568-3.1,2.46-7.511,3.027A17,17,0,0,1,10,31.9,16.7,16.7,0,0,1,1.864,24.25,26.786,26.786,0,0,1,.44,20.5c-.062-.385.018-.238-.155-.4a11.1,11.1,0,0,0-.2-1.883A16.62,16.62,0,0,1,13.248.4l2.7-.344L17.962.02l.321.113c.078.017.265.031.365.048Z" transform="translate(0)" fill="#788f9b" fill-rule="evenodd"/>
    <path id="Path_2465" data-name="Path 2465" d="M87.426,68.923c.365-.533.879-1.025,1.311-1.67a11.661,11.661,0,0,0,2.045-6.748A11.808,11.808,0,0,0,74.131,49.848c-2.615,1.275-2.225,1.535-3.476,2.305.226.447,7.355,7.452,8.34,8.437.962.962,8,8.117,8.43,8.333Zm1.011,1.057c-.563-.218-.656-.691-1.161-.951a11.733,11.733,0,0,1-8.3,3.429A11.872,11.872,0,0,1,67.128,60.713c-.018-3.047,1.322-6.592,3.428-8.4-.255-.507-.717-.591-.951-1.165a13.624,13.624,0,0,1,9.478-3.822,13.314,13.314,0,0,1,9.354,22.654Z" transform="translate(-62.356 -43.951)" fill="#b1e2fb" fill-rule="evenodd"/>
    <path id="Path_2466" data-name="Path 2466" d="M133.65,87.773c-.433-.216-7.469-7.372-8.43-8.333-.985-.985-8.114-7.99-8.34-8.437,1.25-.77.861-1.03,3.476-2.305a11.808,11.808,0,0,1,16.651,10.657,11.66,11.66,0,0,1-2.045,6.748c-.433.645-.946,1.137-1.311,1.67Z" transform="translate(-108.58 -62.801)" fill="#def2fc" fill-rule="evenodd"/>
    <path id="Path_2467" data-name="Path 2467" d="M420.792,456.753a24.938,24.938,0,0,1-2.31,2.332c-.89.6-2.011-.937-2.717-1.73-.381-.428-.8-.69-1.189-1.095l-6.023-6.151c-.365-.772.411-1.14.669-1.563l1.756-1.667c.369.021.357.113.623.391l8.419,8.427c.7.7.808.6.774,1.055Z" transform="translate(-379.48 -415.171)" fill="#2aa2da" fill-rule="evenodd"/>
    <path id="Path_2468" data-name="Path 2468" d="M453.805,421.111c.034-.455-.077-.359-.774-1.055l-8.419-8.427c-.266-.277-.254-.37-.623-.391l.006-.116,1.86-1.808c1.089-.583.587-1.675,2.758.494l7.331,7.334c1.215,1.194.335,1.5-1.5,3.331Z" transform="translate(-412.493 -379.529)" fill="#1cb0f6" fill-rule="evenodd"/>
    <path id="Path_2469" data-name="Path 2469" d="M69.243,120.072c-.385.282-.519.542-.91.836a13.014,13.014,0,0,1-8.549,3.083c-11.321,0-16.851-12.892-10.877-20.951l1.5-1.8c.234.574.7.658.951,1.165-2.105,1.806-3.446,5.351-3.428,8.4a11.822,11.822,0,0,0,20.148,8.317c.5.26.6.733,1.161.951Z" transform="translate(-43.163 -94.042)" fill="#7fd3f9" fill-rule="evenodd"/>
    <path id="Path_2470" data-name="Path 2470" d="M378.951,403.691l-.006.116-1.756,1.667a2.81,2.81,0,0,0-.74-.857c-.306-.3-.533-.524-.835-.826-.566-.564-1.084-1.1-1.633-1.632a4.258,4.258,0,0,1,.924-.8c.375-.291.54-.592.916-.837Z" transform="translate(-347.448 -372.099)" fill="#546e7a" fill-rule="evenodd"/>
  </g>
</svg>
