<svg xmlns="http://www.w3.org/2000/svg" width="137.349" height="137.349" viewBox="0 0 137.349 137.349">
  <g id="Group_1790" data-name="Group 1790" transform="translate(-925 -1576)">
    <g id="Group_1777" data-name="Group 1777" transform="translate(925 1576)">
      <g id="Group_1776" data-name="Group 1776">
        <path id="Path_2498" data-name="Path 2498" d="M117.235,20.114a68.675,68.675,0,0,0-97.121,97.121,68.675,68.675,0,0,0,97.121-97.121Zm-5.691,91.43a60.627,60.627,0,0,1-85.739-85.74,60.627,60.627,0,1,1,85.739,85.74Z" transform="translate(0)" fill="#727272"/>
      </g>
    </g>
    <g id="Group_1784" data-name="Group 1784" transform="translate(925 1576)">
      <g id="Group_1776-2" data-name="Group 1776">
        <path id="Path_2498-2" data-name="Path 2498" d="M117.235,20.114a68.675,68.675,0,0,0-97.121,97.121,68.675,68.675,0,0,0,97.121-97.121Zm-5.691,91.43a60.627,60.627,0,0,1-85.739-85.74,60.627,60.627,0,1,1,85.739,85.74Z" transform="translate(0)" fill="#a7a7a7"/>
      </g>
    </g>
    <g id="pin" transform="translate(919.92 1610)">
      <g id="Group_1789" data-name="Group 1789" transform="translate(48.08)">
        <g id="Group_1788" data-name="Group 1788" transform="translate(0)">
          <path id="Path_2502" data-name="Path 2502" d="M73.543,0A25.492,25.492,0,0,0,48.08,25.463a29.378,29.378,0,0,0,2.16,9.8,41.063,41.063,0,0,0,2.943,5.5L70.642,67.224a3.321,3.321,0,0,0,5.8,0L93.9,40.771a40.891,40.891,0,0,0,2.943-5.5,29.37,29.37,0,0,0,2.158-9.8A25.492,25.492,0,0,0,73.543,0ZM94.086,34.1A37.623,37.623,0,0,1,91.4,39.122L73.943,65.577c-.345.523-.454.523-.8,0L55.684,39.122A37.641,37.641,0,0,1,53,34.1a26.667,26.667,0,0,1-1.926-8.639,22.467,22.467,0,1,1,44.935,0A26.689,26.689,0,0,1,94.086,34.1Z" transform="translate(-48.08)" stroke="#a7a7a7" stroke-width="5"/>
          <path id="Path_2503" data-name="Path 2503" d="M125.56,64.008a13.48,13.48,0,1,0,13.48,13.48A13.5,13.5,0,0,0,125.56,64.008Zm0,23.965a10.485,10.485,0,1,1,10.485-10.485A10.5,10.5,0,0,1,125.56,87.973Z" transform="translate(-100.097 -52.024)" stroke="#a7a7a7" stroke-width="5"/>
        </g>
      </g>
    </g>
  </g>
</svg>
