<svg xmlns="http://www.w3.org/2000/svg" width="26.109" height="26.835" viewBox="0 0 26.109 26.835">
  <g id="setting-gear-preference-app-configuration-30562" transform="translate(-3.05 -2.683)">
    <g id="Path_1799" data-name="Path 1799" transform="translate(-1.496 -1.317)" fill="none">
      <path d="M27.566,18.725a10.532,10.532,0,0,0,.094-1.308,10.533,10.533,0,0,0-.094-1.308L30.4,13.889a.669.669,0,0,0,.161-.859L27.881,8.381a.664.664,0,0,0-.818-.288L23.722,9.441a10.181,10.181,0,0,0-2.268-1.322l-.5-3.556A.69.69,0,0,0,20.28,4H14.913a.677.677,0,0,0-.664.564l-.5,3.556a9.929,9.929,0,0,0-2.268,1.322L8.138,8.092a.671.671,0,0,0-.818.288L4.636,13.03a.672.672,0,0,0,.161.859l2.831,2.221a10.532,10.532,0,0,0-.094,1.308,10.532,10.532,0,0,0,.094,1.308L4.8,20.946a.669.669,0,0,0-.161.859l2.683,4.649a.664.664,0,0,0,.818.288l3.341-1.348a10.181,10.181,0,0,0,2.268,1.322l.5,3.556a.677.677,0,0,0,.664.564H20.28a.677.677,0,0,0,.664-.564l.5-3.556a9.929,9.929,0,0,0,2.268-1.322l3.341,1.348a.671.671,0,0,0,.818-.288L30.558,21.8a.672.672,0,0,0-.161-.859ZM17.6,22.113a4.7,4.7,0,1,1,4.7-4.7A4.693,4.693,0,0,1,17.6,22.113Z" stroke="none"/>
      <path d="M 19.12788391113281 28.83459281921387 L 19.46741485595703 26.43525314331055 L 19.62679481506348 25.3089542388916 L 20.67631530761719 24.87022399902344 C 21.32672500610352 24.59833335876465 21.9363842010498 24.24308395385742 22.48837471008301 23.81435394287109 L 23.39694595336914 23.1086540222168 L 24.46376419067383 23.53924369812012 L 26.72163009643555 24.4505500793457 L 28.24953079223633 21.80345726013184 L 26.33165550231934 20.29915428161621 L 25.44102478027344 19.60058403015137 L 25.5814151763916 18.47741317749023 C 25.63569450378418 18.04323387145996 25.6598949432373 17.71627426147461 25.6598949432373 17.41729354858398 C 25.6598949432373 17.11839294433594 25.63569450378418 16.79142379760742 25.5814151763916 16.35712432861328 L 25.44085502624512 15.23248386383057 L 26.33345413208008 14.53401374816895 L 28.25555419921875 13.02995681762695 L 26.72832870483398 10.38404083251953 L 24.47047424316406 11.29534339904785 L 23.41116523742676 11.72290325164795 L 22.50473594665527 11.02768325805664 C 21.93090438842773 10.58756351470947 21.31798553466797 10.22980308532715 20.6829948425293 9.964353561401367 L 19.63350486755371 9.525613784790039 L 19.47412490844727 8.399333953857422 L 19.13459587097168 6.000003337860107 L 16.06595420837402 6.000003337860107 L 15.72642517089844 8.399333953857422 L 15.56704521179199 9.525613784790039 L 14.51755523681641 9.964353561401367 C 13.86711502075195 10.23626327514648 13.2574348449707 10.59151363372803 12.70545482635498 11.02024364471436 L 11.79688549041748 11.72592353820801 L 10.73007488250732 11.29534339904785 L 8.472221374511719 10.38404083251953 L 6.944318294525146 13.03112983703613 L 8.862195014953613 14.53543376922607 L 9.752824783325195 15.23400402069092 L 9.612435340881348 16.35717391967773 C 9.558155059814453 16.79135322570801 9.533954620361328 17.11831283569336 9.533954620361328 17.41729354858398 C 9.533954620361328 17.71627426147461 9.558155059814453 18.04323387145996 9.612435340881348 18.47741317749023 L 9.752824783325195 19.60058403015137 L 8.862195014953613 20.29915428161621 L 6.944318294525146 21.80345726013184 L 8.472221374511719 24.45054626464844 L 10.73007488250732 23.53924369812012 L 11.78940486907959 23.1116828918457 L 12.69583511352539 23.80691337585449 C 13.26965522766113 24.24703407287598 13.88256549835205 24.60478401184082 14.51753520965576 24.87022399902344 L 15.56704521179199 25.3089542388916 L 15.72642517089844 26.43525314331055 L 16.06595611572266 28.83459281921387 L 19.12788391113281 28.83459281921387 M 17.59692573547363 10.7212438583374 C 21.28913497924805 10.7212438583374 24.2929744720459 13.72508335113525 24.2929744720459 17.41729354858398 C 24.2929744720459 21.1095027923584 21.28913497924805 24.11334419250488 17.59692573547363 24.11334419250488 C 13.90470504760742 24.11334419250488 10.90086460113525 21.1095027923584 10.90086460113525 17.41729354858398 C 10.90086460113525 13.72508335113525 13.90470504760742 10.7212438583374 17.59692573547363 10.7212438583374 M 20.28038597106934 30.83459281921387 L 14.91346549987793 30.83459281921387 C 14.57803535461426 30.83459281921387 14.30297470092773 30.58637428283691 14.24930477142334 30.27106285095215 L 13.74615478515625 26.71548271179199 C 12.92770481109619 26.37334442138672 12.1696252822876 25.92386436462402 11.47863483428955 25.39387321472168 L 8.137724876403809 26.74231338500977 C 8.059123039245605 26.77375602722168 7.977353096008301 26.7888240814209 7.896408557891846 26.7888240814209 C 7.666477203369141 26.7888240814209 7.443324565887451 26.66720199584961 7.31927490234375 26.45384407043457 L 4.635815143585205 21.80475425720215 C 4.468094825744629 21.50956344604492 4.541894912719727 21.14730262756348 4.796824932098389 20.94604301452637 L 7.627874851226807 18.72548294067383 C 7.574204921722412 18.29612350463867 7.533955097198486 17.86006355285645 7.533955097198486 17.41729354858398 C 7.533955097198486 16.97452354431152 7.574204921722412 16.5384635925293 7.627874851226807 16.10910415649414 L 4.796824932098389 13.88854312896729 C 4.541894912719727 13.68057346343994 4.468094825744629 13.31831359863281 4.635815143585205 13.02983379364014 L 7.31927490234375 8.380743980407715 C 7.44375467300415 8.166645050048828 7.667994499206543 8.048626899719238 7.898769855499268 8.048626899719238 C 7.978933811187744 8.048626899719238 8.059893608093262 8.062870025634766 8.137724876403809 8.092273712158203 L 11.47863483428955 9.440713882446289 C 12.1696252822876 8.904023170471191 12.92770481109619 8.46125316619873 13.74615478515625 8.11910343170166 L 14.24930477142334 4.563523769378662 C 14.30297470092773 4.248223781585693 14.57802486419678 4.000003337860107 14.91346549987793 4.000003337860107 L 20.28038597106934 4.000003337860107 C 20.61581420898438 4.000003337860107 20.89086532592773 4.248223781585693 20.95124435424805 4.563523769378662 L 21.45439529418945 8.11910343170166 C 22.2728443145752 8.46125316619873 23.03092575073242 8.910733222961426 23.72191429138184 9.440713882446289 L 27.06282424926758 8.092273712158203 C 27.14142990112305 8.060830116271973 27.22320175170898 8.045763969421387 27.30414772033691 8.045763969421387 C 27.53408241271973 8.045763969421387 27.75723266601563 8.167384147644043 27.88127517700195 8.380743980407715 L 30.56473541259766 13.02983379364014 C 30.73245429992676 13.32502365112305 30.65865516662598 13.68728351593018 30.40372467041016 13.88854312896729 L 27.56597518920898 16.10910415649414 C 27.6196346282959 16.5384635925293 27.6598949432373 16.97452354431152 27.6598949432373 17.41729354858398 C 27.6598949432373 17.86006355285645 27.61964416503906 18.29612350463867 27.56597518920898 18.72548294067383 L 30.39702415466309 20.94604301452637 C 30.65195465087891 21.15401268005371 30.72574424743652 21.51627349853516 30.55802536010742 21.80475425720215 L 27.87457466125488 26.45384407043457 C 27.75009536743164 26.66794204711914 27.52585029602051 26.78596305847168 27.29507255554199 26.78596115112305 C 27.21490669250488 26.78595924377441 27.13394546508789 26.7717170715332 27.05611419677734 26.74231338500977 L 23.7152042388916 25.39387321472168 C 23.02421569824219 25.93057441711426 22.26614570617676 26.37334442138672 21.44768524169922 26.71548271179199 L 20.94453430175781 30.27106285095215 C 20.89086532592773 30.58637428283691 20.61581420898438 30.83459281921387 20.28038597106934 30.83459281921387 Z M 17.59692573547363 12.7212438583374 C 15.00067520141602 12.7212438583374 12.90086460113525 14.82104396820068 12.90086460113525 17.41729354858398 C 12.90086460113525 20.0135326385498 15.00067520141602 22.11334419250488 17.59692573547363 22.11334419250488 C 20.19316482543945 22.11334419250488 22.2929744720459 20.0135326385498 22.2929744720459 17.41729354858398 C 22.2929744720459 14.82104396820068 20.19316482543945 12.7212438583374 17.59692573547363 12.7212438583374 Z" stroke="none" fill="#1cb0f6"/>
    </g>
  </g>
</svg>
