<svg id="share" xmlns="http://www.w3.org/2000/svg" width="14" height="15.273" viewBox="0 0 14 15.273">
  <path id="Path_2539" data-name="Path 2539" d="M311.718,4.773A2.386,2.386,0,1,1,314.1,2.386,2.389,2.389,0,0,1,311.718,4.773Zm0-3.818a1.432,1.432,0,1,0,1.432,1.432A1.434,1.434,0,0,0,311.718.955Zm0,0" transform="translate(-300.105)"/>
  <path id="Path_2540" data-name="Path 2540" d="M311.718,356.773a2.386,2.386,0,1,1,2.386-2.386A2.389,2.389,0,0,1,311.718,356.773Zm0-3.818a1.432,1.432,0,1,0,1.432,1.432A1.434,1.434,0,0,0,311.718,352.955Zm0,0" transform="translate(-300.105 -341.5)"/>
  <path id="Path_2541" data-name="Path 2541" d="M2.386,180.773a2.386,2.386,0,1,1,2.386-2.386A2.389,2.389,0,0,1,2.386,180.773Zm0-3.818a1.432,1.432,0,1,0,1.432,1.432A1.434,1.434,0,0,0,2.386,176.955Zm0,0" transform="translate(0 -170.75)"/>
  <path id="Path_2542" data-name="Path 2542" d="M120.167,99.881a.477.477,0,0,1-.237-.892l5.9-3.366a.477.477,0,0,1,.472.829l-5.9,3.366a.478.478,0,0,1-.235.062Zm0,0" transform="translate(-116.119 -92.709)"/>
  <path id="Path_2543" data-name="Path 2543" d="M126.092,275.87a.473.473,0,0,1-.235-.063l-5.9-3.366a.477.477,0,0,1,.472-.829l5.9,3.366a.477.477,0,0,1-.237.892Zm0,0" transform="translate(-116.14 -263.448)"/>
</svg>
