<svg xmlns="http://www.w3.org/2000/svg" width="83.645" height="94.705" viewBox="0 0 83.645 94.705">
  <g id="shield" transform="translate(-29.896 0)">
    <path id="Path_2504" data-name="Path 2504" d="M113.495,22.133a2.774,2.774,0,0,0-1.53-2.337L72.959.293a2.775,2.775,0,0,0-2.482,0L31.472,19.8a2.774,2.774,0,0,0-1.53,2.337A98.3,98.3,0,0,0,33.877,51.92,72.674,72.674,0,0,0,45.792,76.031a56.393,56.393,0,0,0,24.94,18.492,2.777,2.777,0,0,0,1.974,0,56.392,56.392,0,0,0,24.94-18.492A72.675,72.675,0,0,0,109.56,51.92,98.3,98.3,0,0,0,113.495,22.133Zm-9.3,28.378c-5.649,19.115-16.57,32.043-32.472,38.44-15.9-6.4-26.823-19.324-32.472-38.44a96.469,96.469,0,0,1-3.795-26.5L71.719,5.876l36.266,18.133A96.463,96.463,0,0,1,104.19,50.511Z" transform="translate(0)" fill="#fff"/>
    <path id="Path_2505" data-name="Path 2505" d="M150.368,81.269,122.582,67.376a2.776,2.776,0,0,0-2.482,0L92.315,81.269a2.774,2.774,0,0,0-1.528,2.654,90.569,90.569,0,0,0,3.539,20.138c4.756,15.748,13.432,26.83,25.786,32.939a2.774,2.774,0,0,0,2.459,0c12.355-6.108,21.03-17.191,25.786-32.939A90.594,90.594,0,0,0,151.9,83.923,2.774,2.774,0,0,0,150.368,81.269Zm-7.323,21.188c-4.131,13.68-11.43,23.407-21.7,28.934-10.274-5.528-17.573-15.255-21.7-28.934A84.129,84.129,0,0,1,96.458,85.4l24.884-12.442L146.225,85.4A84.17,84.17,0,0,1,143.045,102.456Z" transform="translate(-49.623 -54.675)" fill="#fff"/>
  </g>
</svg>
