<svg id="sun_1_" data-name="sun (1)" xmlns="http://www.w3.org/2000/svg" width="15" height="15" viewBox="0 0 15 15">
  <circle id="Ellipse_768" data-name="Ellipse 768" cx="4.729" cy="4.729" r="4.729" transform="translate(2.771 2.771)" fill="#f8eb33"/>
  <g id="Group_1834" data-name="Group 1834" transform="translate(0 0)">
    <path id="Path_2548" data-name="Path 2548" d="M66.226,35.186a.211.211,0,0,1-.21-.21,3.558,3.558,0,0,0-3.554-3.554.211.211,0,0,1,0-.422,3.98,3.98,0,0,1,3.976,3.976.211.211,0,0,1-.211.21Z" transform="translate(-54.961 -27.476)" fill="#f8eb33"/>
    <g id="Group_1833" data-name="Group 1833" transform="translate(0 0)">
      <path id="Path_2549" data-name="Path 2549" d="M56.469,3.555a5.693,5.693,0,0,1,1.024.094c0-.066.008-.133.008-.2a2.571,2.571,0,0,0-1.032-1.7,2.57,2.57,0,0,0-1.032,1.7c0,.068,0,.134.008.2A5.692,5.692,0,0,1,56.469,3.555Z" transform="translate(-48.969 -1.747)" fill="#f8eb33"/>
      <path id="Path_2550" data-name="Path 2550" d="M56.47,110.558a5.7,5.7,0,0,0,1.024-.094c0,.066.008.132.008.2a2.571,2.571,0,0,1-1.032,1.7,2.57,2.57,0,0,1-1.032-1.7c0-.068,0-.134.008-.2A5.7,5.7,0,0,0,56.47,110.558Z" transform="translate(-48.97 -97.366)" fill="#f8eb33"/>
      <path id="Path_2551" data-name="Path 2551" d="M91.638,21.074a5.7,5.7,0,0,1,.657.791c.05-.043.1-.088.147-.136a2.57,2.57,0,0,0,.474-1.933,2.572,2.572,0,0,0-1.933.474c-.048.048-.093.1-.136.147a5.7,5.7,0,0,1,.791.657Z" transform="translate(-80.112 -17.599)" fill="#f8eb33"/>
      <path id="Path_2552" data-name="Path 2552" d="M21.076,91.635a5.691,5.691,0,0,0,.791.657c-.043.05-.088.1-.136.147a2.57,2.57,0,0,1-1.933.474,2.57,2.57,0,0,1,.474-1.933c.048-.048.1-.093.147-.136A5.7,5.7,0,0,0,21.076,91.635Z" transform="translate(-17.601 -80.109)" fill="#f8eb33"/>
      <path id="Path_2553" data-name="Path 2553" d="M110.561,56.47a5.7,5.7,0,0,1-.094,1.024c.066,0,.132.008.2.008a2.571,2.571,0,0,0,1.7-1.032,2.57,2.57,0,0,0-1.7-1.032c-.068,0-.134,0-.2.008A5.7,5.7,0,0,1,110.561,56.47Z" transform="translate(-97.369 -48.97)" fill="#f8eb33"/>
      <path id="Path_2554" data-name="Path 2554" d="M3.558,56.47a5.7,5.7,0,0,0,.094,1.024c-.066,0-.133.008-.2.008a2.572,2.572,0,0,1-1.7-1.032,2.57,2.57,0,0,1,1.7-1.032c.068,0,.134,0,.2.008a5.7,5.7,0,0,0-.094,1.024Z" transform="translate(-1.75 -48.969)" fill="#f8eb33"/>
      <path id="Path_2555" data-name="Path 2555" d="M91.638,91.635a5.7,5.7,0,0,1-.791.657c.043.05.088.1.136.147a2.57,2.57,0,0,0,1.933.474,2.57,2.57,0,0,0-.474-1.933c-.048-.048-.1-.093-.147-.136A5.7,5.7,0,0,1,91.638,91.635Z" transform="translate(-80.112 -80.109)" fill="#f8eb33"/>
      <path id="Path_2556" data-name="Path 2556" d="M21.076,21.074a5.7,5.7,0,0,0-.657.791c-.05-.043-.1-.088-.147-.136A2.57,2.57,0,0,1,19.8,19.8a2.572,2.572,0,0,1,1.933.474c.048.048.093.1.136.147A5.7,5.7,0,0,0,21.076,21.074Z" transform="translate(-17.601 -17.599)" fill="#f8eb33"/>
    </g>
  </g>
</svg>
