<svg id="taxi-cab-local-travel-service-ride-32131" xmlns="http://www.w3.org/2000/svg" width="65" height="65" viewBox="0 0 65 65">
  <path id="Path_1795" data-name="Path 1795" d="M0,0H65V65H0Z" fill="none"/>
  <path id="Path_1796" data-name="Path 1796" d="M55.062,15.276a4.634,4.634,0,0,0-4.376-3.113h-7.7V6H24.491v6.164h-7.7a4.634,4.634,0,0,0-4.376,3.113L6,33.736V58.39a3.091,3.091,0,0,0,3.082,3.082h3.082a3.081,3.081,0,0,0,3.082-3.082V55.308H52.226V58.39a3.091,3.091,0,0,0,3.082,3.082H58.39a3.081,3.081,0,0,0,3.082-3.082V33.736ZM16.786,46.063a4.623,4.623,0,1,1,4.623-4.623A4.616,4.616,0,0,1,16.786,46.063Zm33.9,0a4.623,4.623,0,1,1,4.623-4.623A4.616,4.616,0,0,1,50.685,46.063ZM12.164,30.654l4.623-13.868h33.9l4.623,13.868Z" transform="translate(-1.236 -1.236)" fill="#474747"/>
</svg>
