<svg id="time" xmlns="http://www.w3.org/2000/svg" width="10.263" height="10.263" viewBox="0 0 10.263 10.263">
  <g id="Group_1883" data-name="Group 1883">
    <g id="Group_1882" data-name="Group 1882">
      <path id="Path_2567" data-name="Path 2567" d="M5.132,0a5.132,5.132,0,1,0,5.132,5.132A5.132,5.132,0,0,0,5.132,0Zm0,9.53a4.4,4.4,0,1,1,4.4-4.4A4.4,4.4,0,0,1,5.132,9.53Z" fill="#a7a7a7"/>
    </g>
  </g>
  <g id="Group_1885" data-name="Group 1885" transform="translate(1.833 1.833)">
    <g id="Group_1884" data-name="Group 1884">
      <path id="Path_2568" data-name="Path 2568" d="M88.632,85.333a.367.367,0,0,0-.367.367v2.566H85.7a.367.367,0,1,0,0,.733h2.932A.367.367,0,0,0,89,88.632V85.7A.367.367,0,0,0,88.632,85.333Z" transform="translate(-85.333 -85.333)" fill="#a7a7a7"/>
    </g>
  </g>
</svg>
