<svg id="today-calender-schedule-day-management-31793" xmlns="http://www.w3.org/2000/svg" width="34.906" height="27" viewBox="0 0 34.906 27">
  <path id="Path_1947" data-name="Path 1947" d="M0,0H34.906V27H0Z" fill="none"/>
  <path id="Path_1948" data-name="Path 1948" d="M24.349,4.053H23.2V2H20.908V4.053H11.734V2H9.44V4.053H8.294A2.172,2.172,0,0,0,6.011,6.106L6,20.478a2.183,2.183,0,0,0,2.294,2.053H24.349a2.183,2.183,0,0,0,2.294-2.053V6.106A2.183,2.183,0,0,0,24.349,4.053Zm0,16.425H8.294V9.186H24.349ZM10.587,11.239h5.734v5.133H10.587Z" transform="translate(1.132 0.377)"/>
</svg>
