<svg xmlns="http://www.w3.org/2000/svg" width="274.095" height="271.996" viewBox="0 0 274.095 271.996">
  <g id="Layer_x0020_1" transform="translate(0.936 1.003)">
    <g id="_1960281528496" transform="translate(-0.019 -0.008)">
      <g id="Group_1825" data-name="Group 1825" transform="translate(46.843 52.227)">
        <path id="Path_2618" data-name="Path 2618" d="M33.358,40.886c0-3.789.774-4.563,4.563-4.563H190.45c3.605,0,4.4,1.039,4.4,4.563,0,10.246,1.344,13.627-4.4,13.627l-156.237-.55c-1.406-2.974-.856-8.82-.856-13.077Zm.285-14.5C25.495,28.338,23.01,34.041,23.03,43.371c.02,10.144.081,16.418,7.679,20.166,5.317,2.628,44.814,1.3,53.939,1.3,7.6,0,105.8.713,110.506-.428,7.9-1.915,10.083-8.209,10.063-17.07-.02-10.226-.061-16.377-7.639-20.024-5.622-2.709-44.406-1.344-53.8-1.344-7.578,0-105.394-.713-110.119.407Z" transform="translate(-22.923 -28.631)" fill="#b4b4b4" stroke="#afafaf" stroke-width="2" fill-rule="evenodd"/>
        <path id="Path_2619" data-name="Path 2619" d="M33.412,83.1c0-3.748,1.12-4.257,4.563-4.257H121.45c3.463,0,4.583.469,4.583,4.257,0,9.7,1.365,13.913-4.094,13.913H37.975c-5.907,0-4.563-3.076-4.563-13.913Zm-.1-14.2a13.309,13.309,0,0,0-9.7,9.268c-.754,2.607-.815,15.216-.306,18.17a13.1,13.1,0,0,0,8.6,10.226c4.38,1.609,49.58.794,56.241.794,7.965,0,31.7,1.018,37.786-.346a13.338,13.338,0,0,0,9.8-9.126c.876-2.893.937-14.85.407-18.17C133.978,65.808,118.293,68.5,109,68.5c-9.92,0-71.457-.672-75.715.407Z" transform="translate(-22.978 22.603)" fill="#b4b4b4" stroke="#afafaf" stroke-width="2" fill-rule="evenodd"/>
        <path id="Path_2620" data-name="Path 2620" d="M53.081,61.913c0-3.483.693-4.42,4.38-4.42h71.926a9.148,9.148,0,0,1,3.728.693,10.55,10.55,0,0,1,.652,3.728c0,11.081,1.3,13.77-4.38,13.77H57.338c-5.6,0-4.257-3.809-4.257-13.77Zm1.344-14.585C40.961,49.365,42.713,62.463,42.733,70.855,42.774,85.542,53,86.031,62.8,86.031c5.52,0,66.324.407,70.133-.2a13.809,13.809,0,0,0,9.879-7.5c1.915-4.217,1.3-10.816,1.3-15.929-.041-14.483-9.716-15.237-19.7-15.237-5.459,0-66.222-.387-69.991.183Z" transform="translate(-2.579 -3.434)" fill="#b4b4b4" stroke="#afafaf" stroke-width="2" fill-rule="evenodd"/>
      </g>
      <path id="Path_2621" data-name="Path 2621" d="M238.713,12.773c-8.189-.469-110.975-.244-160.575-.143-20.39.041-14.89.081-24.749.081-1.833,0-4.726-.081-7.028-.143a31.7,31.7,0,0,0-3.85-.02c-.041,0-.815.693-2.73,2.241l-1.324,1.08L17.437,37.118a14.7,14.7,0,0,0-2.974,3.83,12.565,12.565,0,0,0-.835,5.031c.041,19.962-.02,40.19-.1,60.417-.1,30.82-1.012,65.116-.707,95.324v1.08a3.49,3.49,0,0,0,1.771,3.195c.02.081,2.434.938,2.434.938l9,1.4s29.827-.914,38.79,18.111c3.667,7.8,2.376,20.9,1.989,28.291q-.122,2.078-.183,4.094h15.9l21.014-30.776c4.359-6.254,1.312-5.2,6.791-9.114,5.765-4.115,12.629-6.6,22.3-7.354,5.826-.448,24.648-.306,38.214-.2,4.644.041,8.637.061,11.244.061l23-.02q13.352,0,26.685-.02h2.261c4.828,0,6.763.02,6.926-.061s.367-.509,1.263-1.507a170.863,170.863,0,0,1,16.715-16.389c1.426-1.161,2.974-2.2,3.137-2.444.081-.122-.306-24.749-.509-37.419-.061-4.359-.122-6.478-.122-7.129,0-56.669.02-20.411.02-32.51q-.031-33.427.02-66.874v-.041c0-1.263.041-2.322.081-3.443a74.943,74.943,0,0,0,.081-8.229,8.446,8.446,0,0,1-.713-.774L240.506,14.81h0a20.244,20.244,0,0,1-1.752-2.078ZM78.138.13C129.47.008,237.287-.216,241.626.436c6.315.957,8.026,3.28,10.144,6.172a8.371,8.371,0,0,0,.55.713l-.02.02,14.768,16.153c5.48,5.276,5.194,13.627,4.97,20.655-.041,1.161-.081,2.261-.081,2.994q-.061,33.427-.02,66.833c.02,33.753.041-2.505.041,32.51,0,3.218.02,4.807.061,6.865.224,14.4.672,42.369-2.22,46.728-1.344,2.037-4.237,4.4-6.437,6.213-.754.611-1.385,1.141-1.528,1.263l-.02-.02-.02.02a87.81,87.81,0,0,0-7.333,7.394c-2.22,2.465-3.565,3.931-6.192,5.255-3.524,1.772-6.62,1.752-14.3,1.752h-2.261q-13.352,0-26.684.02l-23,.02c-2.648,0-6.661-.02-11.305-.061-13.077-.1-31.227-.224-36.931.2-6.376.489-10.653,1.956-13.953,4.3-3.5,2.505-6.478,6.315-9.859,11.183l-20.553,28.9h0a8.233,8.233,0,0,1-6.926,3.463l-17.7-.407a8.27,8.27,0,0,1-8.189-6.763c-.917-4.991-.672-9.716-.428-14.483.285-5.357.57-10.816-1.324-14.85C50.129,223.4,37.887,222.712,27.437,222.1c-6.376-.367-12.263-.713-17.375-2.689-9.737-3.768-9.8-10.8-9.879-19.188v-.937c-.306-30.229-.2-61.171-.081-92.031C.182,87.008.244,66.8.2,46.838v-.306a28.131,28.131,0,0,1,2.322-11.57A29.715,29.715,0,0,1,8.616,26.53L26.887,8.156a7.342,7.342,0,0,1,.835-.754l1.609-1.3c3.83-3.117,5.561-4.522,9-5.418,2.505-.652,4.6-.591,8.372-.489,1.222.041,2.73.081,6.641.081,17.172,0,20.859,0,24.749-.02Z" transform="translate(0.019 0.008)" fill="#b4b4b4" stroke="#afafaf" stroke-width="2"/>
    </g>
  </g>
</svg>
