<svg xmlns="http://www.w3.org/2000/svg" width="173.421" height="172.401" viewBox="0 0 173.421 172.401">
  <g id="Layer_x0020_1" transform="translate(0.001 -0.02)">
    <g id="_1960082657088">
      <path id="Path_2544" data-name="Path 2544" d="M11.48,55.05l-.1,50.78c2.19-1.57,10.37-9.61,12.73-12.1L60.98,56.14c1.37-.44,29.2-.11,33.03-.06-.78.13-5.89,6.14-7.31,7.53L85.57,64.9l24.54.04c.83-1.45,4.89-5.31,6.34-6.82,1.84-1.91,1.02-2.09,4.19-2.04,2.14.03,4.29-.01,6.43.02-1.26.19-8.82,10.14-11.49,11.28,1.14,2.09.78,4.85.78,7.45.01,2.82.26,4.58-1.46,6.41-1.8,1.9-3.41,1.63-6.41,1.63-2.62,0-5.23,0-7.85-.01-.86,1.48-4.83,5.28-6.3,6.85C91.69,92.52,89.8,92,83.51,91.78c1.4-1.24,2.84-2.88,4.21-4.33.75-.8,1.35-1.48,2.14-2.23,1.15-1.09,1.51-.87,2.21-2.33L67.8,82.87a57.219,57.219,0,0,1-4.6,5.04c-4.79,5.11-3.36,3.9-15.26,3.9-2.01,0-7.51-.32-9.35.33a2.478,2.478,0,0,0-.3.13c17.13-.25,34.34.03,51.47-.02,4.29-.01,7.95-.09,8.81,4.04.53,2.57.41,9.64-.75,11.56-1.82,2.99-6.31,2.26-10.55,2.26-4.4,0-8.79.02-13.19-.01-.79,1.82-4.34,4.58-5.43,5.72l-9.57,10.1c-.72.69-1.29,1.04-1.98,1.76-.74.77-1.23,1.32-1.97,2.09-1.34,1.41-2.46,2.6-3.8,4l-5.78,5.77c-1.45,1.5-1.51,1.17-1.63,2.36.97,2.98,2.16,4.17,2.6,8.31a104.173,104.173,0,0,1,.07,10.76l4.15.05,8.79-12.17c6.59-9.52,10.39-17.02,23.98-17.82,6.34-.37,14.26-.22,20.67-.08,2.96-2.46,6.31-6.66,8.93-9.05l49.11-49.81-.01-45.33c.02-3.68.38-3-1.6-4.95-1.67.63-7.42,7.77-9.51,9.49-2.3,1.9-7.88,8.82-9.59,9.48.66,1.78.76,9.45.15,11.36-1.12,3.5-4.04,3.47-8.21,3.47l-93.02.01c-3.76,0-6.21-1.45-6.42-5.16-.16-2.82-.46-8.5.86-10.53,1.78-2.73,5.58-2.24,9.61-2.24l34.54.02c.75-1.47,1.81-2.2,3.26-3.42l9.5-9.85c1.14-1.19,2.08-2.15,3.21-3.35,1.06-1.11,2.15-1.91,3.21-3.03,1.6-1.69,5.11-4.94,6.18-6.6l-50.69-.04c-1.48,1.85-3.53,3.77-5.24,5.58L37.82,27.9c-1.8,1.89-3.39,3.54-5.17,5.45-.96,1.03-1.94,1.71-2.89,2.72l-18.32,19Z" fill="#78dcff" fill-rule="evenodd"/>
      <path id="Path_2545" data-name="Path 2545" d="M104.2,130.93c-6.42-.14-14.33-.3-20.67.08-13.6.8-17.39,8.3-23.98,17.82L50.76,161l-4.15-.05a101.459,101.459,0,0,0-.07-10.76c-.44-4.14-1.64-5.33-2.6-8.31-.76-.71-1.6-2.08-2.36-2.95-.88-1-1.72-1.67-2.68-2.68-1.19-.54-2.15-1.33-3.55-2.03a27.593,27.593,0,0,0-4.02-1.6,37.665,37.665,0,0,0-9.61-1.6c-1.98-.11-7.1.08-8.61-.45-2.28-.8-1.74-4.62-1.74-7.07.02-5.74.26-11.98.01-17.66l.1-50.78c-.05-7.25-.03-14.5-.09-21.76-.06-7.52.89-6.77,7.85-13.72,9.3-9.29,6.22-8.12,13.41-8.12,6.79-.01,14.4.32,21.08-.04l50.69.04,32.37-.03,14.75.09c.67,1.05,1.81,1.95,2.62,2.97a19.937,19.937,0,0,1,2.43,2.87,31.811,31.811,0,0,1,4.04,4.45c1.98,1.94,1.61,1.27,1.6,4.95l.01,45.33-.02,49.24c-.15.79-7.66,7.38-8.52,8.38-1.58,1.83-2.12,1.19-7.12,1.19q-4.215.015-8.43.01c-11.3,0-22.67-.11-33.95.04ZM35.15,160.95c0,3.67-.65,8.83,1.63,10.54,1.58,1.18,8.79.7,11.17.69,5.64-.03,7.73,1.97,12.42-5.05.8-1.2,1.6-2.28,2.47-3.46.94-1.26,1.72-2.43,2.59-3.66,1.79-2.53,8.12-11.72,10.21-13.82,4.63-4.64,11.17-3.97,20.06-3.97,6.3,0,56.13.44,59.65-.27,3.89-.79,3.85-1.58,7.22-4.95l4.37-4.37c2.38-2.2,6.48-4.5,6.48-8.81V23.32a11.507,11.507,0,0,0-3.66-8.51l-7.19-7.79c-.66-.71-.74-1.01-1.4-1.72C156.5.25,155.81.23,147.51.23H48.88c-5.22,0-20.73-.58-23.85.19-3.35.83-5.37,2.65-7.44,4.73L5.26,17.48A17.466,17.466,0,0,0,.77,25.16C-.51,29.5.19,43.21.19,49.24v61.49c0,3.79.29,8.84-.02,12.47-2.08,24.82,15.93,16.33,28.31,20.41,9,2.97,6.66,10.31,6.66,17.37Z" fill="#1cb0f6" fill-rule="evenodd"/>
      <path id="Path_2546" data-name="Path 2546" d="M141.53,40.77c-1.11-1.85-1.99-2.86-4.82-3.11l-24.93-.01-32.73.03-34.54-.02c-4.03,0-7.84-.49-9.61,2.24-1.32,2.03-1.02,7.71-.86,10.53.21,3.72,2.65,5.16,6.42,5.16l93.02-.01c4.18,0,7.09.03,8.21-3.47.61-1.91.51-9.58-.15-11.36Z" fill="#feffff" fill-rule="evenodd"/>
      <path id="Path_2547" data-name="Path 2547" d="M104.2,130.93c11.29-.14,22.66-.04,33.95-.04q4.215,0,8.43-.01c5-.01,5.55.63,7.12-1.19.86-1,8.37-7.59,8.52-8.38l.02-49.24-49.11,49.81c-2.62,2.4-5.96,6.59-8.93,9.05Z" fill="#51d1ff" fill-rule="evenodd"/>
      <path id="Path_2548" data-name="Path 2548" d="M11.38,105.83c.25,5.68.01,11.92-.01,17.66-.01,2.45-.54,6.27,1.74,7.07,1.51.53,6.63.34,8.61.45l9.86-10.47c1.68-1.79,3.44-3.39,5.12-5.18a59.312,59.312,0,0,0,4.8-5.27c-6.09-.09-7.49-1.39-7.47-7.52.01-4.99-.62-9.19,4.27-10.34a1.944,1.944,0,0,1,.3-.13c1.84-.65,7.34-.33,9.35-.33,11.9,0,10.48,1.21,15.26-3.9a57.218,57.218,0,0,0,4.6-5.04c-4.56-.02-8.07-.18-8.57-4.63-.39-3.49-.54-9.94,1.48-11.86,2.35-2.23,8.07-1.42,11.89-1.42,4.28,0,8.71.11,12.97-.03l1.13-1.29c1.42-1.38,6.53-7.4,7.31-7.53-3.82-.05-31.66-.38-33.03.06L24.12,93.72c-2.36,2.49-10.54,10.54-12.73,12.1Z" fill="#51d1ff" fill-rule="evenodd"/>
      <path id="Path_2549" data-name="Path 2549" d="M41.5,110.1H65.59l8.49-.01c4.39.02,8.79.01,13.19.01,4.25,0,8.74.73,10.55-2.26,1.16-1.92,1.29-8.99.75-11.56-.86-4.13-4.52-4.05-8.81-4.04-17.13.05-34.34-.23-51.47.02-4.89,1.14-4.26,5.35-4.27,10.34-.02,6.12,1.38,7.43,7.47,7.52Z" fill="#feffff" fill-rule="evenodd"/>
      <path id="Path_2550" data-name="Path 2550" d="M67.81,82.85l24.27.02,8.58-.03c2.62.01,5.23,0,7.85.01,3,.01,4.61.27,6.41-1.63,1.72-1.82,1.47-3.58,1.46-6.41,0-2.6.36-5.36-.78-7.45-1.62-1.91-2.32-2.45-5.47-2.43l-24.54-.04c-4.26.14-8.69.03-12.97.03-3.82,0-9.54-.81-11.89,1.42-2.02,1.92-1.87,8.37-1.48,11.86.5,4.46,4,4.61,8.57,4.63Z" fill="#feffff" fill-rule="evenodd"/>
      <path id="Path_2551" data-name="Path 2551" d="M79.05,37.69l32.73-.03c4.67-5.34,10.63-11,15.74-16.55,2.59-2.81,6.52-6.12,9.27-9.69l-32.37.03c-1.07,1.66-4.58,4.9-6.18,6.6-1.06,1.12-2.15,1.91-3.21,3.03-1.14,1.2-2.07,2.15-3.21,3.35l-9.5,9.85c-1.45,1.22-2.51,1.95-3.26,3.42Z" fill="#51d1ff" fill-rule="evenodd"/>
      <path id="Path_2552" data-name="Path 2552" d="M11.48,55.05l18.32-19c.95-1.01,1.93-1.69,2.89-2.72,1.78-1.91,3.37-3.56,5.17-5.45l10.63-10.9c1.71-1.81,3.76-3.73,5.24-5.58-6.68.37-14.29.04-21.08.04-7.19.01-4.11-1.17-13.41,8.12-6.96,6.96-7.91,6.2-7.85,13.72.06,7.25.04,14.5.09,21.76Z" fill="#51d1ff" fill-rule="evenodd"/>
      <path id="Path_2553" data-name="Path 2553" d="M111.78,37.66l24.93.01c2.93-3.39,6.51-6.83,9.71-10.15.89-.92,1.54-1.63,2.44-2.56l7.73-7.61a19.412,19.412,0,0,0-2.43-2.87c-.81-1.02-1.95-1.92-2.62-2.97l-14.75-.09c-2.74,3.57-6.68,6.89-9.27,9.69-5.11,5.55-11.07,11.21-15.74,16.55Z" fill="#78dcff" fill-rule="evenodd"/>
      <path id="Path_2554" data-name="Path 2554" d="M21.72,131.02a38.106,38.106,0,0,1,9.61,1.6,26.508,26.508,0,0,1,4.02,1.6c1.4.7,2.36,1.5,3.55,2.03,2.72-1,18.24-17.57,19.94-19.36,1.11-1.16,2.27-2.03,3.36-3.19l3.4-3.62H41.51a57.817,57.817,0,0,1-4.8,5.27c-1.68,1.79-3.44,3.39-5.12,5.18L21.73,131Z" fill="#78dcff" fill-rule="evenodd"/>
      <path id="Path_2555" data-name="Path 2555" d="M38.89,136.26c.96,1.01,1.8,1.68,2.68,2.68.77.87,1.6,2.24,2.36,2.95.12-1.19.18-.87,1.63-2.36l5.78-5.77c1.34-1.41,2.46-2.6,3.8-4,.74-.77,1.23-1.31,1.97-2.09.69-.72,1.26-1.07,1.98-1.76l9.57-10.1c1.08-1.14,4.63-3.89,5.43-5.72l-8.49.01-3.4,3.62c-1.1,1.16-2.26,2.03-3.36,3.19-1.7,1.78-17.22,18.36-19.94,19.36Z" fill="#51d1ff" fill-rule="evenodd"/>
      <path id="Path_2556" data-name="Path 2556" d="M136.7,37.66c2.83.25,3.71,1.26,4.82,3.11,1.71-.66,7.29-7.59,9.59-9.48,2.08-1.72,7.84-8.86,9.51-9.49a31.812,31.812,0,0,0-4.04-4.45l-7.73,7.61c-.9.92-1.55,1.63-2.44,2.56-3.2,3.32-6.78,6.76-9.71,10.15Z" fill="#51d1ff" fill-rule="evenodd"/>
      <path id="Path_2557" data-name="Path 2557" d="M110.11,64.93c3.15-.02,3.85.52,5.47,2.43,2.68-1.14,10.24-11.09,11.49-11.28-2.14-.03-4.29.02-6.43-.02-3.17-.05-2.36.14-4.19,2.04-1.46,1.51-5.51,5.37-6.34,6.82Z" fill="#51d1ff" fill-rule="evenodd"/>
      <path id="Path_2558" data-name="Path 2558" d="M100.65,82.84l-8.58.03c-.7,1.47-1.06,1.24-2.21,2.33-.79.75-1.39,1.43-2.14,2.23-1.37,1.44-2.81,3.08-4.21,4.33,6.29.22,8.19.74,10.83-2.07,1.48-1.56,5.44-5.37,6.3-6.85Z" fill="#51d1ff" fill-rule="evenodd"/>
    </g>
  </g>
</svg>
