<svg xmlns="http://www.w3.org/2000/svg" width="252.473" height="301.107" viewBox="0 0 252.473 301.107">
  <g id="Layer_x0020_1" transform="translate(1.08 1.042)">
    <g id="_1960281509680" transform="translate(-0.012 -0.01)">
      <path id="Path_2593" data-name="Path 2593" d="M57.793,159.633c6.325,2.679,10.383,4.974,18.458,6.294,13.03,2.122,27.738-5.132,37.714-11.888,2.939-1.991,12.907-9.276,13.974-11.224,12.35.2,25.206,1.62,37.762,1.979,13.3.383,25.862-.067,39.026-.759.2,6.732-.838,29.931.514,34.4a10.378,10.378,0,0,0,10.146,7.463c5.468-.043,7.708-4.085,15.112-1.284a11.987,11.987,0,0,1,1.647,21.714c-6.384,3.512-8.937.992-14.488-.217a10.335,10.335,0,0,0-11.7,5.468c-2.6,5.041,2.066,44.233-38.338,67.594a69.725,69.725,0,0,1-26.786,8.7C98.194,292.8,65.458,264.191,59.026,229.3c-1.272-6.9,1.26-23.764-12.417-22.99-5.579.316-7.961,3.8-14.867.146A11.847,11.847,0,0,1,32.69,184.8c7.447-3.042,9.612,1.007,15.369.62a10.3,10.3,0,0,0,9.446-8.2c.778-3.722.284-13.275.284-17.6ZM96.831-.006H105.6C119.09,1,131.957,6.525,144.019,14.086c5.417,3.4,14.128,10.474,18.158,15.8,4.291,5.673,4.35,5.756,7.767,12.508,2.224,4.4,5.78,14.934,5.31,21.465l.091,2.232,1.32-.711c10.6-7.127,27.9-12.421,41.207-10.082,11.094,1.952,17.854,7.57,24.27,14.76,14.847,16.641,7.522,41.9-5.847,55.256-3.457,3.453-.51,1.209-6.325,6.349-2.758,2.438-11.414,10.43-14.578,11.276v31.934c3.986-.928,7.617-2.635,12.907-1.758,7.665,1.268,14.258,4.824,17.85,11.552,1.5,2.8,3.319,7.345,3.228,11.481-.273,12.184-9.154,20.588-21.67,22.488-5.326.81-9.632-1.47-12.315-1.691a79.909,79.909,0,0,1-7.6,33.969c-5.428,11-9.166,15.993-17.368,24.2-15.9,15.9-36.122,23.95-59.183,23.95-46.521,0-84.148-36.825-84.148-82.121-7.443,3.572-16.676,1.679-22.519-2.319-13.654-9.348-13.741-27.391-.375-37.3,9.644-7.151,17.846-3.382,22.891-2.959V147.5c-5.152-2.469-15.8-3.623-27.723-13.338a42.646,42.646,0,0,1-6.823-6.357c-4.484-5.571-7.372-9.786-9.877-17.494-6.716-20.659-.774-44.794,17.478-58.191a35.359,35.359,0,0,1,4.306-2.789C40.09,40.873,35.4,46.917,41.01,38.514c.893-1.335,1.64-2.529,2.679-3.911l9.059-11.22C59.093,15.453,71.21,7.212,80.257,3.751A58.6,58.6,0,0,1,96.827-.01ZM239.5,96.306c-1.877,14.871-14.61,26.526-25.613,34.98-3.141,2.414-5.089,1.881-10.106,2.232-24.2,1.711-45.485.774-69.731-.94-14.9-1.055-13.026,5.262-31.8,16.344-11.347,6.7-24.171,9.561-37.28,2.5-9.1-4.9-6.914-9.47-11.623-12.706-6.076-4.172-32.266-6.321-40.567-31.938-6.195-19.114.814-39.054,18.9-49.2C37.616,54.254,43.9,53.9,47.26,48.83,54.3,38.206,57.3,33.493,66.046,25.038c1.051-1.015,2.157-1.691,3.394-2.71,22.832-18.81,48.63-12.789,71.09,2.335,8.846,5.958,17.233,14.294,21.524,26.648,3.137,9.039,2.331,16.6,4.35,19.971,3.67,6.132,10.043,6.4,16.605,2.762,9.707-5.385,24.57-12.038,37.667-6.855C230.7,71.156,241.37,81.507,239.5,96.3Z" transform="translate(0.012 0.01)" fill="#aeaeae" stroke="#aeaeae" stroke-width="2" fill-rule="evenodd"/>
      <path id="Path_2594" data-name="Path 2594" d="M364.428,442.855c-3.417,1.3-4.808,3.745-4.856,8.233-.047,4.33-.628,23.005.885,25.763a7.425,7.425,0,0,0,9.182,3.319c6.606-2.584,4.591-14.085,4.591-21.465,0-3.358.585-9.885-.881-12.52A7.248,7.248,0,0,0,364.428,442.855Z" transform="translate(-217.418 -267.594)" fill="#aeaeae" stroke="#aeaeae" stroke-width="2" fill-rule="evenodd"/>
      <path id="Path_2595" data-name="Path 2595" d="M272.4,442.892c-3.864,1.533-4.812,3.8-4.824,8.7-.012,4.393.016,8.794.016,13.192,0,3.445-.545,9.616,1.023,12.3,2.916,4.994,13.618,6.223,13.634-5.689.008-4.437.616-22.373-.921-25.277a7.1,7.1,0,0,0-8.925-3.228Z" transform="translate(-161.811 -267.592)" fill="#aeaeae" stroke="#aeaeae" stroke-width="2" fill-rule="evenodd"/>
      <path id="Path_2596" data-name="Path 2596" d="M445.01,163.191l-1.41-1.521.091,2.232Z" transform="translate(-268.338 -97.794)" fill="#aeaeae" stroke="#aeaeae" stroke-width="2" fill-rule="evenodd"/>
    </g>
  </g>
</svg>
