<svg xmlns="http://www.w3.org/2000/svg" width="308.461" height="368.513" viewBox="0 0 308.461 368.513">
  <g id="Layer_x0020_1" transform="translate(0.003 -0.012)">
    <g id="_1959934939424" transform="translate(-0.003 0.012)">
      <path id="Path_2588" data-name="Path 2588" d="M525.045,4111.2c11.461.728,20.436.026,30.4-3.762a62.3,62.3,0,0,0,11.262-5.6c3.878-2.463,6.856-5.357,10.489-7.465,2.909,9.113,4.776,15.041.05,24.861-3.27,6.793-7.848,11.894-16.109,14.512-17.808,5.644-33.267-8.868-36.1-22.549Zm-8.438-51.564c-.533-3.178-.519-29.055-.01-32.325,1.572-10.084,16.1-9.805,17.728-.034.522,3.14.512,29.1-.015,32.235-1.7,10.072-16.09,9.729-17.7.125Zm62.418.624c-2.482,9.508-16.474,8.121-17.65-1.271-.414-3.3-.365-30.374.286-32.785,2.367-8.767,16.6-8.279,17.6,1.691.353,3.5.355,30.1-.235,32.366Zm-135.078-74.106v33.516c-8.905-4.273-21.776-1.154-27.94,3.283-20.375,14.668-14.227,45.8,12.664,50.708,6.209,1.135,10.576-.442,15.275-1.537a156.892,156.892,0,0,0,2.991,21.988c7.165,30.417,29.528,57.7,58.023,69.991,38.79,16.728,85.86,9.378,115.864-20.634a67.3,67.3,0,0,0,6.094-6.4c6.727-8.713,9.9-12.513,15.2-23.519,6.357-13.2,9.15-26.614,9.15-42.056,4.79,1.116,8.225,3.015,14.959,2.478a29.851,29.851,0,0,0,13.536-4.582c17.508-11.514,17.974-34.48.861-46.61-6.974-4.944-19.5-7.378-28.731-2.491v-39.406c-40,2.26-56.086,2.933-95.533.308-6.935-.461-10.917-1.783-14.28,1.1-22.17,18.983-51.054,37.033-82.165,20.148-13.181-7.154-13.115-13.623-15.967-16.288Z" transform="translate(-386.046 -3804.365)" fill="#bf7356" fill-rule="evenodd"/>
      <path id="Path_2589" data-name="Path 2589" d="M57.9,181.8c2.852,2.665,2.786,9.134,15.967,16.288,31.111,16.885,59.995-1.165,82.165-20.148,3.364-2.88,7.345-1.557,14.28-1.1,39.447,2.625,55.528,1.952,95.533-.308A29.1,29.1,0,0,1,270,173.477c1.1-.962,2.785-2.033,4.042-3.035,10.023-8,19.966-17.3,26.5-28.451,25.508-43.493-14.826-86.808-62.113-70.856-8.253,2.785-20.7,9.593-21.927,9.922,0-23.8-15.557-47.4-34.09-60.2-20.279-14.006-45.3-24.772-71.8-19.464C83.778,6.765,66.929,25.085,53.262,43.949l-4.7,7.16c-1.207,1.865-1.119,2.173-3.2,3.042-14.594,6.082-17.493,6.776-29.141,18.318C12.9,75.75,8.155,81.98,6.692,86.263c-3.641,7.526-7.775,23.021-6.438,33.05.931,6.977.944,9.947,3.227,16.784A58.188,58.188,0,0,0,9.8,149.758c11.212,16.87,23.3,22.734,40.416,29.523,2.7,1.073,4.967,1.462,7.677,2.519Z" transform="translate(0.003 -0.012)" fill="#57cc02" fill-rule="evenodd"/>
      <path id="Path_2590" data-name="Path 2590" d="M3141.43,6571.164c2.829,13.682,18.287,28.193,36.1,22.549,8.261-2.618,12.839-7.719,16.109-14.512,4.726-9.821,2.859-15.748-.05-24.861-3.634,2.108-6.611,5-10.489,7.465a62.33,62.33,0,0,1-11.262,5.6c-9.967,3.788-18.943,4.489-30.4,3.762Z" transform="translate(-3002.43 -6264.33)" fill="#fffefe" fill-rule="evenodd"/>
      <path id="Path_2591" data-name="Path 2591" d="M2942.167,4909.753c1.614,9.6,16.006,9.947,17.7-.125.527-3.131.538-29.1.015-32.235-1.625-9.77-16.157-10.05-17.729.035-.51,3.27-.523,29.147.01,32.325Z" transform="translate(-2811.606 -4654.483)" fill="#6d4430" fill-rule="evenodd"/>
      <path id="Path_2592" data-name="Path 2592" d="M3974.39,4913.646c.591-2.262.588-28.867.235-32.366-1-9.969-15.233-10.458-17.6-1.691-.651,2.411-.7,29.481-.286,32.786,1.177,9.392,15.168,10.778,17.65,1.271Z" transform="translate(-3781.411 -4657.751)" fill="#6d4430" fill-rule="evenodd"/>
    </g>
  </g>
</svg>
