<svg id="Layer_x0020_1" xmlns="http://www.w3.org/2000/svg" width="296.06" height="287.7" viewBox="0 0 296.06 287.7">
  <g id="_1960082465680">
    <path id="Path_2563" data-name="Path 2563" d="M40.05,180.79a9.849,9.849,0,0,1,11.81-11.93c2.89.68,28.17,13.77,33.04,16.2,5.81,2.9,12.23,4.51,13.69,10.91a9.823,9.823,0,0,1-11.73,11.75c-3.02-.61-28.23-13.69-33.13-16.14C48.02,188.72,41.5,186.97,40.05,180.79ZM0,217.9V180.52c.26-8.1,1.32-15.64,5.08-23.71,6.72-14.43,24.06-27.09,40.24-27.53l20.31-.16,73.96-.09,8.69.07.03,59.13c-12.92.58-29.52-3.51-29.71,9.81-.2,13.6,17.19,9.38,29.57,10l-.05,39.52,68.9.02v.2H79.18c-2.07-1.17-25.82-.39-30.41-.39H33.5c-6.52.01-8.29-.8-13.79-1.64-3.55-1.66-3.94-1.39-7.61-4.16a28.451,28.451,0,0,1-5.7-5.63C2.16,230.41.55,224.34.01,217.88Z" fill="#fd7875" fill-rule="evenodd"/>
    <path id="Path_2564" data-name="Path 2564" d="M256.31,180.3c-1.38,6.6-8.06,8.32-13.67,11.12-4.62,2.31-30.46,15.65-32.99,16.27a9.828,9.828,0,0,1-11.98-11.98c1.35-5.87,8.63-8.09,13.93-10.74,4.53-2.27,30.5-15.68,33.02-16.18a9.841,9.841,0,0,1,11.69,11.5Zm39.75-5.07v45a31.875,31.875,0,0,1-6.47,16.17c-2.52,3.37-8.66,8.39-13.24,9.41-15.64,4.33-41.88-.01-59.34,1.78l-68.9-.02.05-39.52c6.19.08,13.77.36,19.84-.02,13.14-.82,12.86-19.22-.01-19.81-6.18-.28-13.44-.08-19.69.01l-.03-59.13,12.71-.03,33.43-.01,21.36.03,14.89.11,20.07-.1c14.7.79,29.23,10.21,36.26,20.85,6.41,9.71,8.48,17.06,9.06,25.28Z" fill="#fc4849" fill-rule="evenodd"/>
    <path id="Path_2565" data-name="Path 2565" d="M69.5,109.49l-3.87,19.62,73.96-.09a31,31,0,0,1,8.13-15.17c.37-.77.52-1.14.9-1.91-1.35-1.33-.49-17.59-.49-20.81,0-6.95-.21-14.24.06-21.15H111.7c-14,.25-22.02,5.12-27.5,13.21a30.015,30.015,0,0,0-4.91,15.83c-.24,6.36-3.64,9.97-9.78,10.47Z" fill="#3e5959" fill-rule="evenodd"/>
    <path id="Path_2566" data-name="Path 2566" d="M148.62,111.95c2.31-.74,5.32-6.62,16.55-10.34a40.49,40.49,0,0,1,23.81-.43c11.96,3.53,24.75,15.17,26.8,27.92l14.89.11c-1.24-9.77-6.36-32.3-8.75-44.24-3.7-18.48-5.46-14.99-38.17-14.99-11.84,0-23.74-.12-35.57.02-.27,6.91-.06,14.2-.06,21.15,0,3.22-.85,19.48.49,20.81Z" fill="#384949" fill-rule="evenodd"/>
    <path id="Path_2567" data-name="Path 2567" d="M148.18,69.99c11.83-.13,23.73-.02,35.57-.02,32.72,0,34.48-3.48,38.17,14.99,2.39,11.94,7.51,34.47,8.75,44.24l20.07-.1L239.52,72.3c-2.8-10.99-12.4-19.49-23.62-21.7-4.36-.86-60.43-.35-67.69-.35l-.04,19.74Z" fill="#cc2e43" fill-rule="evenodd"/>
    <path id="Path_2568" data-name="Path 2568" d="M54.68,83.88c3.06,2.9,4.47,10.1,4.74,15.15.36,6.73,3.5,9.88,10.07,10.46l-.01-98.65c-12.03,0-9.88,13-11.34,18.24a34.345,34.345,0,0,1-2.98,6.87c-4.9,8.5-14.36,13.94-25.11,14.3-9,.3-13.26,9.7-7.69,16.57,1.8,2.23,3.75,2.85,6.61,3.24,2.88.39,5.8.32,8.66,1.19a28.991,28.991,0,0,1,7.01,2.85,29.786,29.786,0,0,1,10.05,9.78Z" fill="#fed300" fill-rule="evenodd"/>
    <path id="Path_2569" data-name="Path 2569" d="M69.5,109.49c6.15-.5,9.54-4.12,9.78-10.47a30.015,30.015,0,0,1,4.91-15.83c5.48-8.09,13.5-12.96,27.5-13.21l1.01-.61c3.64-2.12,6.2-4.79,5.95-9.72-.33-6.68-5.22-7.84-7.7-9.41-13.37,0-21.56-5.4-26.92-13.59a29.54,29.54,0,0,1-4.72-15.48c-.1-5.91-3.66-10.34-9.83-10.34l.01,98.65Z" fill="#fdbe00" fill-rule="evenodd"/>
    <path id="Path_2570" data-name="Path 2570" d="M79.18,247.79c-2.07-1.17-25.82-.39-30.41-.39H33.5c-6.52.01-8.29-.8-13.79-1.64,0,13.91-.02,20.71,5.84,29.19a31.238,31.238,0,0,0,9.23,8.51,29.319,29.319,0,0,0,13.54,4.21l.25.02h3.11c8.06-.56,16.05-5.37,20.83-11.25,5.47-6.74,8.01-15.59,6.69-28.65Z" fill="#4a696f" fill-rule="evenodd"/>
    <path id="Path_2571" data-name="Path 2571" d="M217.03,247.59v.2c-.83,3.91-.06,13.34.69,16.28a30.954,30.954,0,0,0,15.3,20.17,32.554,32.554,0,0,0,12.48,3.46h2.61c10.06-.55,17.79-6.33,22.29-12.38,6.43-8.65,5.97-15.03,5.97-29.51-15.64,4.33-41.88-.01-59.34,1.78Z" fill="#384949" fill-rule="evenodd"/>
    <path id="Path_2572" data-name="Path 2572" d="M148.62,111.95c-.38.77-.52,1.14-.9,1.91.98,1.7.29,12.82.56,15.24l12.71-.03c2.28-4.92,9.12-9.7,16.85-9.63,7.92.07,14.27,4.9,16.58,9.62l21.36.03c-2.05-12.75-14.84-24.39-26.8-27.92a40.488,40.488,0,0,0-23.81.43c-11.23,3.72-14.24,9.6-16.55,10.34Z" fill="#8ebac5" fill-rule="evenodd"/>
    <path id="Path_2573" data-name="Path 2573" d="M40.05,180.79c1.45,6.18,7.96,7.93,13.68,10.79,4.9,2.45,30.11,15.53,33.13,16.14a9.817,9.817,0,0,0,11.73-11.75c-1.46-6.4-7.89-8.01-13.69-10.91-4.87-2.44-30.15-15.52-33.04-16.2a9.849,9.849,0,0,0-11.81,11.93Z" fill="#fed300" fill-rule="evenodd"/>
    <path id="Path_2574" data-name="Path 2574" d="M256.31,180.3a9.837,9.837,0,0,0-11.69-11.5c-2.51.51-28.48,13.92-33.02,16.18-5.3,2.65-12.58,4.87-13.93,10.74a9.831,9.831,0,0,0,11.98,11.98c2.53-.62,28.37-13.96,32.99-16.27,5.61-2.81,12.29-4.52,13.67-11.12Z" fill="#fdbe00" fill-rule="evenodd"/>
    <path id="Path_2575" data-name="Path 2575" d="M255.67,64.04,255.75,0c-10.47.82-3.11,9.58-12.03,20.06-1.82,2.13-6.95,5.12-10.27,5.49-2.83.32-4.66,0-6.65,1.23a6.437,6.437,0,0,0-.57,10.55c4.02,3.26,9.61-.79,17.27,6.87,9.04,9.04,1.91,19.61,12.18,19.84Z" fill="#fed300" fill-rule="evenodd"/>
    <path id="Path_2576" data-name="Path 2576" d="M255.67,64.04a6.16,6.16,0,0,0,5.24-2.64c1.83-2.8-.15-14.75,11.16-20.36,7.32-3.63,9.13-1.1,12.48-3.28,3.37-2.2,3.88-8.43-.07-10.9-2.37-1.47-3.47-.95-6.58-1.3-3.89-.44-7.98-3.11-10.3-5.47-7.31-7.44-4.35-13.48-6.58-17.07A6.5,6.5,0,0,0,255.74,0l-.08,64.04Z" fill="#fdbe00" fill-rule="evenodd"/>
    <path id="Path_2577" data-name="Path 2577" d="M111.69,69.98h36.49l.04-19.74H110.95c2.48,1.57,7.37,2.73,7.7,9.41.24,4.93-2.31,7.6-5.95,9.72l-1.01.61Z" fill="#e5394f" fill-rule="evenodd"/>
    <path id="Path_2578" data-name="Path 2578" d="M45.32,129.28l20.31-.16L69.5,109.5c-6.57-.58-9.71-3.73-10.07-10.46-.27-5.05-1.68-12.26-4.74-15.15l-9.36,45.4Z" fill="#e5394f" fill-rule="evenodd"/>
    <path id="Path_2579" data-name="Path 2579" d="M148.17,208.05c6.19.08,13.77.36,19.84-.02,13.14-.82,12.86-19.22-.01-19.81-6.18-.28-13.44-.08-19.69.01l-.14,19.82Z" fill="#3e5959" fill-rule="evenodd"/>
    <path id="Path_2580" data-name="Path 2580" d="M148.17,208.05l.14-19.82c-12.92.58-29.52-3.51-29.71,9.81-.2,13.6,17.19,9.38,29.57,10Z" fill="#4a686e" fill-rule="evenodd"/>
    <path id="Path_2581" data-name="Path 2581" d="M160.99,129.07l33.43-.01c-2.32-4.72-8.66-9.55-16.58-9.62C170.11,119.37,163.27,124.14,160.99,129.07Z" fill="#384949" fill-rule="evenodd"/>
    <path id="Path_2582" data-name="Path 2582" d="M139.59,129.03l8.69.07c-.27-2.42.42-13.55-.56-15.24a31.044,31.044,0,0,0-8.13,15.17Z" fill="#a7d2d7" fill-rule="evenodd"/>
  </g>
</svg>
