<svg xmlns="http://www.w3.org/2000/svg" width="298.588" height="290.101" viewBox="0 0 298.588 290.101">
  <g id="Layer_x0020_1" transform="translate(1 1.044)">
    <g id="_1960275939712" transform="translate(0 -0.003)">
      <path id="Path_2583" data-name="Path 2583" d="M227.74,253.552l38.675.007c0,8.3.692,14.844-3.324,21a19.624,19.624,0,0,1-15.85,8.849,18.641,18.641,0,0,1-15.837-8.372c-4.565-6.727-3.657-12.4-3.657-21.48Zm20.761,40.19h-3.657a26.05,26.05,0,0,1-11.533-3.35c-15.739-9.163-16.177-21.506-16.177-36.624H79.453c0,11.546.79,21.5-8.5,30.982-6.5,6.642-13,8.993-23.086,8.993-9.319,0-18.573-6.91-22.42-12.617-5.91-8.751-5.708-15.249-5.708-29.33-2.971-.692-6.132-2.867-8.327-4.506C3.853,241.633,0,232.5,0,221.7V186.161c0-14.955,5-25.261,11.768-33.633a52.851,52.851,0,0,1,12.258-10.443,52.983,52.983,0,0,1,15.994-6.25L50.339,84.014l-5.518-3.86a27.943,27.943,0,0,0-14.727-4.023,9.323,9.323,0,0,1-6.537-2.345,10.2,10.2,0,0,1-2.142-13.27c3.677-5.695,9.3-4.16,13.362-4.9A29.48,29.48,0,0,0,58.613,33.067c.6-2.789.431-6.093.973-8.405,2.482-10.606,15.021-10.612,18.9-2.351,2.41,5.127-.477,9.476,4.885,18.8,1.678,2.926,6.2,9.032,9.509,9.737,2.358.5,99.378.1,114.882.1,7.948,0,10.789.281,16.647,2.6a35.179,35.179,0,0,1,18.965,19.037c1.868,4.624,2.736,9.966,3.827,15.419l7.981,39.89c.424,2.129,1.391,5.682,1.437,7.935,13.989,3.259,19.109,7.393,27.756,16.164,6.028,6.113,12.213,19.142,12.213,31.21V225.15c0,11.612-9.6,24.288-19.742,26.645,0,5.643.5,12.4-.522,17.241a31.739,31.739,0,0,1-5.114,12.16,26.137,26.137,0,0,1-4.121,4.767,37.279,37.279,0,0,1-5.068,3.814,31.115,31.115,0,0,1-13.519,3.964Zm-218.16-40.19,38.675.007c0,8.281.692,14.871-3.324,21-7.373,11.246-23.752,12.167-31.687.477-4.565-6.727-3.657-12.4-3.657-21.48ZM47.42,145.488c14.374-.9,31.622-.091,46.336-.091h140.15c19.122,0,24.562-.738,37.859,8.823,9.639,6.929,14.361,19.782,14.381,31.935.013,9.313,1.293,38.74-1.5,45.33-5.649,13.323-18.155,11.8-34.463,11.8H39.465c-7.954,0-13.773.875-20-3.063-11.618-7.354-8.875-21.708-8.875-37.767,0-16.738-1.561-27.906,6.929-40.2a38.845,38.845,0,0,1,29.885-16.764Zm-10.959-79.6A39.487,39.487,0,0,0,65.21,45.091c2.318-4.565,2.593-7.811,4.265-11.977a46.026,46.026,0,0,0,4.408,12.533c9.372,17.45,24.836,18.7,28.435,20.533-17.692,3.011-28.885,15.55-32.824,32.739C67.123,93.7,67.757,86.842,58.058,77.261c-9.515-9.4-14.394-8.209-21.6-11.383ZM50.77,135.1l7.543-37.4c2.025,4.2.124,9.829,3.141,13.675A10.1,10.1,0,0,0,73.8,114.369c4.258-2.031,5.166-5.192,5.584-11.122a29.516,29.516,0,0,1,22.812-26.606c3.167-.725,20.787.653,15.511-15.347h51.057c9.868,0,42.149-1.162,49.32,1.012a24.032,24.032,0,0,1,14.074,11.128c3.226,5.486,4,12.9,5.414,19.769,1.221,5.93,8.17,38.662,8.163,41.927L50.764,135.1Z" transform="translate(0 -5.682)" fill="#afafaf" stroke="#aeaeae" stroke-width="2" fill-rule="evenodd"/>
      <path id="Path_2584" data-name="Path 2584" d="M375.113,21.661c6.563,9.711,8.32,8.137,10.364,10.887C381.513,35,377.34,38.563,375.25,42.828L374,41.443c-7.536-9.548-4.63-4.336-9.489-9.15a66.17,66.17,0,0,0,5.773-4.735,31.414,31.414,0,0,0,2.554-2.867,18.447,18.447,0,0,1,2.279-3.037ZM343.06,32.431a6.662,6.662,0,0,0,2.638,5.257c3.69,2.567,9.633-.666,16.98,6.707,8.183,8.216,3.938,11.625,6.831,16.862a6.374,6.374,0,0,0,4.8,3.069,6.546,6.546,0,0,0,5.42-2.136c3.527-3.905-.052-10.116,6.622-17.065a18.807,18.807,0,0,1,10.031-5.76c5.375-1.2,10.338.5,10.338-7.922,0-6.936-9.835-4.617-15.6-8.085l-3.344-2.58c-8.366-7.752-4.65-14.159-7.6-18.064C377.849-.373,369.261-3.41,368.2,9.2c-.679,8.065-7.393,15.066-15.674,16.405-2.606.425-9.463.085-9.463,6.825Z" transform="translate(-119.016 0.003)" fill="#afafaf" stroke="#aeaeae" stroke-width="2" fill-rule="evenodd"/>
      <path id="Path_2585" data-name="Path 2585" d="M67.932,259.221c-6.23,2.011-9.509,9.842-4.813,15.465,3.1,3.7,26.064,14.159,32.131,17.2,4.565,2.286,12.591,7.745,18.345,5.741,5.388-1.881,9.189-9.639,4.5-15.236-3.1-3.7-26.058-14.224-32.092-17.241-4.474-2.233-12.63-7.674-18.077-5.917Z" transform="translate(-21.126 -89.811)" fill="#afafaf" stroke="#aeaeae" stroke-width="2" fill-rule="evenodd"/>
      <path id="Path_2586" data-name="Path 2586" d="M349.254,259.153c-4.539,1.476-11.788,5.695-16.34,7.967-5.584,2.8-10.874,5.434-16.451,8.222-5.538,2.769-12.356,4.493-13.5,11.2a9.847,9.847,0,0,0,12.99,10.991l32.575-16.255c5.616-2.808,12.415-4.715,13.336-11.311.986-7.04-5.649-13.081-12.617-10.815Z" transform="translate(-105.056 -89.737)" fill="#afafaf" stroke="#aeaeae" stroke-width="2" fill-rule="evenodd"/>
      <path id="Path_2587" data-name="Path 2587" d="M188.828,289.23a9.79,9.79,0,0,0-6.387,12.657c1.776,5.375,6.367,6.616,12.9,6.6,6.72-.02,34.5.816,38.8-.451,8.9-2.625,11.821-19.344-6.23-19.285-6.511.02-35.214-.745-39.093.47Z" transform="translate(-63.098 -100.098)" fill="#afafaf" stroke="#aeaeae" stroke-width="2" fill-rule="evenodd"/>
    </g>
  </g>
</svg>
