<svg xmlns="http://www.w3.org/2000/svg" width="21.853" height="22.58" viewBox="0 0 21.853 22.58">
  <g id="wallet_3_" data-name="wallet (3)" transform="translate(-8.241 0)">
    <path id="Path_2447" data-name="Path 2447" d="M46.2,175.275H28.5a.791.791,0,0,0-.791.791v2.125H46.989v-2.125A.791.791,0,0,0,46.2,175.275Z" transform="translate(-18.611 -167.545)" fill="#ffb125"/>
    <path id="Path_2448" data-name="Path 2448" d="M58.428,40.629l-1.6,16.224a.741.741,0,0,1-.811.665l-8.12-.8a.742.742,0,0,1-.665-.811l1.6-16.224a.741.741,0,0,1,.811-.665l8.12.8A.741.741,0,0,1,58.428,40.629Z" transform="translate(-37.266 -37.292)" fill="#b6fa4c"/>
    <path id="Path_2449" data-name="Path 2449" d="M89.462,39.817l-8.12-.8a.741.741,0,0,0-.811.665l-.144,1.456a.737.737,0,0,1,.408-.077l8.12.8a.742.742,0,0,1,.665.811L88.121,57.439a.74.74,0,0,0,.4-.588l1.6-16.224A.741.741,0,0,0,89.462,39.817Z" transform="translate(-68.964 -37.291)" fill="#a8e83a"/>
    <path id="Path_2450" data-name="Path 2450" d="M77.775,74.965,76.605,86.8a.448.448,0,0,0,.207.425,2.174,2.174,0,0,1,.876,1.058.448.448,0,0,0,.374.282l4.209.416a.447.447,0,0,0,.422-.2,2.174,2.174,0,0,1,1.066-.866.448.448,0,0,0,.287-.376L85.216,75.7a.448.448,0,0,0-.207-.425,2.174,2.174,0,0,1-.876-1.058.448.448,0,0,0-.374-.282l-4.209-.416a.447.447,0,0,0-.422.2,2.174,2.174,0,0,1-1.066.866A.448.448,0,0,0,77.775,74.965Z" transform="translate(-65.347 -70.276)" fill="#7d0"/>
    <path id="Path_2451" data-name="Path 2451" d="M109.432,75.276a2.174,2.174,0,0,1-.876-1.058.448.448,0,0,0-.374-.282l-4.209-.416a.447.447,0,0,0-.422.2,2.174,2.174,0,0,1-1.066.866.448.448,0,0,0-.287.376l-.044.451,5.454.522a.447.447,0,0,1,.374.282,2.175,2.175,0,0,0,.876,1.058.448.448,0,0,1,.207.425l-1.014,10.265c.043-.02.087-.039.132-.055a.448.448,0,0,0,.287-.376L109.64,75.7A.448.448,0,0,0,109.432,75.276Z" transform="translate(-89.771 -70.276)" fill="#73cc00"/>
    <path id="Path_2452" data-name="Path 2452" d="M82.855,5.754,73.674,19.226a.742.742,0,0,1-1.03.2l-6.743-4.6a.742.742,0,0,1-.2-1.03L74.887.324a.742.742,0,0,1,1.03-.2l6.743,4.6A.742.742,0,0,1,82.855,5.754Z" transform="translate(-54.808 0)" fill="#b6fa4c"/>
    <path id="Path_2453" data-name="Path 2453" d="M240.089,4.724l-6.743-4.6a.741.741,0,0,0-1.03.2l-.785,1.152a.742.742,0,0,1,.2.095l6.743,4.6a.742.742,0,0,1,.2,1.03l-8.4,12.319a.742.742,0,0,0,.834-.29l9.181-13.472A.742.742,0,0,0,240.089,4.724Z" transform="translate(-212.237 0)" fill="#a8e83a"/>
    <path id="Path_2454" data-name="Path 2454" d="M121.934,51.715l-6.7,9.828a.448.448,0,0,0-.021.472,2.174,2.174,0,0,1,.262,1.348.448.448,0,0,0,.193.427l3.5,2.382a.447.447,0,0,0,.468.024,2.175,2.175,0,0,1,1.35-.249.448.448,0,0,0,.432-.193l6.7-9.828a.448.448,0,0,0,.021-.472,2.174,2.174,0,0,1-.262-1.348.447.447,0,0,0-.193-.427l-3.5-2.382a.447.447,0,0,0-.468-.024,2.175,2.175,0,0,1-1.35.249A.448.448,0,0,0,121.934,51.715Z" transform="translate(-102.202 -48.96)" fill="#7d0"/>
    <path id="Path_2455" data-name="Path 2455" d="M245.836,55.454a2.174,2.174,0,0,1-.262-1.348.448.448,0,0,0-.193-.427l-3.5-2.382a.448.448,0,0,0-.468-.024,2.174,2.174,0,0,1-1.35.249.448.448,0,0,0-.432.193l-.279.41,4.368,2.945a.447.447,0,0,1,.193.427,2.175,2.175,0,0,0,.262,1.348.448.448,0,0,1-.021.472l-5.869,8.612a2.165,2.165,0,0,1,.4.018.448.448,0,0,0,.432-.193l6.7-9.828A.448.448,0,0,0,245.836,55.454Z" transform="translate(-219.903 -48.96)" fill="#73cc00"/>
    <circle id="Ellipse_755" data-name="Ellipse 755" cx="2.399" cy="2.399" r="2.399" transform="translate(18.1 6.466)" fill="#b6fa4c"/>
    <path id="Path_2456" data-name="Path 2456" d="M27.861,217.842H9.382A1.141,1.141,0,0,1,8.241,216.7v-11.29a1.141,1.141,0,0,1,1.141-1.141H27.861A1.141,1.141,0,0,1,29,205.412V216.7A1.141,1.141,0,0,1,27.861,217.842Z" transform="translate(0 -195.262)" fill="#ffb125"/>
    <path id="Path_2457" data-name="Path 2457" d="M408.137,204.271h-2.075a1.141,1.141,0,0,1,1.141,1.141V216.7a1.141,1.141,0,0,1-1.141,1.141h2.075a1.141,1.141,0,0,0,1.141-1.141v-11.29A1.141,1.141,0,0,0,408.137,204.271Z" transform="translate(-380.276 -195.262)" fill="#ff901d"/>
    <path id="Path_2458" data-name="Path 2458" d="M356.972,308.688h-4.159a2.181,2.181,0,0,0-2.181,2.181h0a2.181,2.181,0,0,0,2.181,2.181h4.159a.413.413,0,0,0,.413-.413V309.1A.413.413,0,0,0,356.972,308.688Z" transform="translate(-327.291 -295.074)" fill="#ff6d3a"/>
    <path id="Path_2459" data-name="Path 2459" d="M356.971,308.688h-2.083a.413.413,0,0,1,.413.413v2.977a.441.441,0,0,1-.441.441h-2.049a2.181,2.181,0,0,1-2.164-1.916,2.177,2.177,0,0,0,2.164,2.446h4.159a.413.413,0,0,0,.413-.413V309.1A.413.413,0,0,0,356.971,308.688Z" transform="translate(-327.29 -295.074)" fill="#ed5729"/>
    <path id="Path_2460" data-name="Path 2460" d="M27.861,204.271H9.382a1.141,1.141,0,0,0-1.141,1.141v1.25H29v-1.25A1.141,1.141,0,0,0,27.861,204.271Z" transform="translate(0 -195.262)" fill="#ff6d3a"/>
    <path id="Path_2461" data-name="Path 2461" d="M409.085,204.773a1.148,1.148,0,0,0-.139-.169l0,0a1.148,1.148,0,0,0-.167-.138l-.046-.03c-.023-.014-.047-.027-.072-.04l-.048-.023a1.136,1.136,0,0,0-.472-.1h-2.075a1.141,1.141,0,0,1,1.141,1.141v1.25h2.075v-1.25a1.136,1.136,0,0,0-.138-.544Q409.116,204.819,409.085,204.773Z" transform="translate(-380.278 -195.261)" fill="#ed5729"/>
    <path id="Path_2462" data-name="Path 2462" d="M9.382,460.175H27.861A1.141,1.141,0,0,0,29,459.034v-1.25H8.241v1.25A1.141,1.141,0,0,0,9.382,460.175Z" transform="translate(0 -437.595)" fill="#ff6d3a"/>
    <path id="Path_2463" data-name="Path 2463" d="M26.927,457.784v1.252a.192.192,0,0,1-.194.189H9.382a1.141,1.141,0,0,1-1.141-1.141v.949a1.141,1.141,0,0,0,1.141,1.141H27.861l.067,0,.021,0,.046,0,.023,0,.045-.007.02,0,.063-.014h0l.027-.008a1.137,1.137,0,0,0,.132-.046l.051-.023.049-.025h0q.048-.026.094-.057h0c.026-.017.051-.036.075-.056l0,0q.037-.03.071-.063h0q.04-.038.077-.081h0a1.143,1.143,0,0,0,.1-.14l0,0c.011-.018.022-.037.033-.056h0a1.133,1.133,0,0,0,.071-.159l.006-.019.014-.043.006-.022q.006-.022.011-.044l0-.02c0-.021.009-.042.012-.064h0c0-.025.007-.051.009-.076v-.019c0-.026,0-.052,0-.078h0v-1.25Z" transform="translate(0 -437.595)" fill="#ed5729"/>
    <circle id="Ellipse_756" data-name="Ellipse 756" cx="1.013" cy="1.013" r="1.013" transform="translate(24.587 14.782)" fill="#f2f2f2"/>
  </g>
</svg>
