<svg xmlns="http://www.w3.org/2000/svg" width="27" height="27" viewBox="0 0 27 27">
  <path id="Subtraction_36" data-name="Subtraction 36" d="M-91.5-1831a13.412,13.412,0,0,1-9.546-3.954A13.412,13.412,0,0,1-105-1844.5a13.412,13.412,0,0,1,3.954-9.546A13.412,13.412,0,0,1-91.5-1858a13.412,13.412,0,0,1,9.546,3.954A13.412,13.412,0,0,1-78-1844.5a13.412,13.412,0,0,1-3.954,9.546A13.412,13.412,0,0,1-91.5-1831Zm-6.043-17.2a1.429,1.429,0,0,0-1.45,1.4l-.007,7.715a1.432,1.432,0,0,0,1.457,1.4h11.659a1.432,1.432,0,0,0,1.457-1.4v-7.715a1.432,1.432,0,0,0-1.457-1.4H-88.8v-1.4a1.433,1.433,0,0,0-1.458-1.4h-2.914a1.432,1.432,0,0,0-1.457,1.4v1.4Zm7.286,0h-2.914v-1.4h2.914v1.4Z" transform="translate(105 1858)" fill="#1da1f3"/>
</svg>
